<?xml version="1.0" standalone="no"?>
<!DOCTYPE svg PUBLIC "-//W3C//DTD SVG 1.1//EN" "http://www.w3.org/Graphics/SVG/1.1/DTD/svg11.dtd" >
<svg xmlns="http://www.w3.org/2000/svg" xmlns:xlink="http://www.w3.org/1999/xlink" version="1.1">
<metadata>
Created by FontForge 20170731 at Tue Jan 31 13:40:54 2017
 By Aleksey,,,
Copyright 2012 The Encode Project Authors (impallari@gmail.com), with Reserved Font Name "Encode Sans".
</metadata>
<defs>
<font id="EncodeSansExpanded-Black" horiz-adv-x="1440" >
  <font-face 
    font-family="Encode Sans Expanded Black"
    font-weight="900"
    font-stretch="expanded"
    units-per-em="2000"
    panose-1="0 0 10 5 0 0 0 0 0 0"
    ascent="1600"
    descent="-400"
    x-height="1100"
    cap-height="1480"
    bbox="-1186 -520 3482 2330"
    underline-thickness="50"
    underline-position="-150"
    unicode-range="U+000D-FB02"
  />
<missing-glyph horiz-adv-x="1028" 
d="M843 1616v-2056h-652v2056h652zM685 1478h-340v-68h134v-76h-136v-68h342v68h-136v76h136v68zM549 1213h-206v-214h342v70h-136v144zM479 1143v-74h-68v74h68zM685 944h-342v-68h136v-76h-136v-68h206v144h136v68zM685 820h-68v-135h-274v-70h342v205zM685 569h-206v-115
h70v48h68v-97h-206v164h-68v-232h342v232zM685 214h-342v-233h342v233zM617 146v-97h-206v97h206zM685 -66h-342v-68h144l-144 -96v-68h342v68h-210l144 96h66v68z" />
    <glyph glyph-name="fi" unicode="fi" horiz-adv-x="1676" 
d="M301.5 1384.5q71.5 119.5 203.5 185.5t307 66q56 0 95 -4t85 -14v-348q-43 12 -100 12q-97 0 -147.5 -42t-50.5 -118v-22h276v-360h-276v-740h-464v740h-180v360h180v8q0 157 71.5 276.5zM1121 1259.5q-67 53.5 -67 158.5t67 158.5t207 53.5t207 -53.5t67 -158.5
t-67 -158.5t-207 -53.5t-207 53.5zM1096 0v1100h464v-1100h-464z" />
    <glyph glyph-name="fl" unicode="fl" horiz-adv-x="1676" 
d="M301.5 1384.5q71.5 119.5 203.5 185.5t307 66q56 0 95 -4t85 -14v-348q-43 12 -100 12q-97 0 -147.5 -42t-50.5 -118v-22h276v-360h-276v-740h-464v740h-180v360h180v8q0 157 71.5 276.5zM1096 1616h464v-1616h-464v1616z" />
    <glyph glyph-name="f_j" unicode="fj" horiz-adv-x="1676" 
d="M694 740v-740h-464v740h-180v360h180v8q0 157 71.5 276.5t203.5 185.5t307 66q56 0 95 -4t85 -14v-348q-43 12 -100 12q-97 0 -147.5 -42t-50.5 -118v-22h276v-360h-276zM1111 1259.5q-67 53.5 -67 158.5t67 158.5t207 53.5t207 -53.5t67 -158.5t-67 -158.5t-207 -53.5
t-207 53.5zM1096 1100h464v-904q0 -194 -73.5 -353.5t-248.5 -318.5l-288 192q81 98 113.5 202.5t32.5 261.5v920z" />
    <glyph glyph-name=".notdef" horiz-adv-x="1028" 
d="M843 1616v-2056h-652v2056h652zM685 1478h-340v-68h134v-76h-136v-68h342v68h-136v76h136v68zM549 1213h-206v-214h342v70h-136v144zM479 1143v-74h-68v74h68zM685 944h-342v-68h136v-76h-136v-68h206v144h136v68zM685 820h-68v-135h-274v-70h342v205zM685 569h-206v-115
h70v48h68v-97h-206v164h-68v-232h342v232zM685 214h-342v-233h342v233zM617 146v-97h-206v97h206zM685 -66h-342v-68h144l-144 -96v-68h342v68h-210l144 96h66v68z" />
    <glyph glyph-name=".null" horiz-adv-x="0" 
 />
    <glyph glyph-name="nonmarkingreturn" unicode="&#xd;" horiz-adv-x="584" 
 />
    <glyph glyph-name="NULL" horiz-adv-x="0" 
 />
    <glyph glyph-name="NULL" horiz-adv-x="0" 
 />
    <glyph glyph-name="space" unicode=" " horiz-adv-x="584" 
 />
    <glyph glyph-name="exclam" unicode="!" horiz-adv-x="736" 
d="M232 532l-108 464v484h488v-484l-102 -464h-278zM155 43q-77 63 -77 173t76 173t214 63q91 0 156.5 -29t99.5 -82.5t34 -124.5t-34.5 -124.5t-100 -82.5t-155.5 -29q-136 0 -213 63z" />
    <glyph glyph-name="quotedbl" unicode="&#x22;" horiz-adv-x="1130" 
d="M150 784l-80 832h440l-80 -832h-280zM700 784l-80 832h440l-80 -832h-280z" />
    <glyph glyph-name="numbersign" unicode="#" 
d="M1330 814h-173l-18 -148h191v-346h-234l-40 -320h-354l40 320h-148l-40 -320h-354l40 320h-130v346h173l18 148h-191v346h234l40 320h354l-40 -320h148l40 320h354l-40 -320h130v-346zM785 666l18 148h-148l-18 -148h148z" />
    <glyph glyph-name="dollar" unicode="$" horiz-adv-x="1378" 
d="M1208.5 182q-105.5 -117 -300.5 -167v-255h-440v225q-192 13 -362 59v368q99 -31 245 -50.5t249 -19.5q99 0 153.5 12t74.5 33.5t20 54.5q0 27 -13 44.5t-48.5 31t-104.5 26.5l-144 28q-170 33 -274 92t-152 147t-48 209q0 171 101 283.5t303 160.5v256h440v-222
q170 -7 320 -40v-368q-75 21 -182.5 34.5t-201.5 13.5q-178 0 -246 -26.5t-68 -75.5q0 -24 11 -39.5t39.5 -27.5t83.5 -23l144 -28q184 -35 295.5 -97t161 -149t49.5 -206q0 -167 -105.5 -284z" />
    <glyph glyph-name="percent" unicode="%" horiz-adv-x="2520" 
d="M321.5 622q-109.5 56 -170.5 161t-61 249t61 249.5t170.5 162t252.5 56.5t252.5 -56.5t170.5 -162t61 -249.5t-61 -249t-170.5 -161t-252.5 -56t-252.5 56zM710 0l722 1480h378l-722 -1480h-378zM671.5 885.5q36.5 47.5 36.5 146.5t-36.5 147.5t-97.5 48.5t-97.5 -48.5
t-36.5 -147.5t36.5 -146.5t97.5 -47.5t97.5 47.5zM1693.5 38q-109.5 56 -170.5 161t-61 249t61 249.5t170.5 162t252.5 56.5t252.5 -56.5t170.5 -162t61 -249.5t-61 -249t-170.5 -161t-252.5 -56t-252.5 56zM2043.5 301.5q36.5 47.5 36.5 146.5t-36.5 147.5t-97.5 48.5
t-97.5 -48.5t-36.5 -147.5t36.5 -146.5t97.5 -47.5t97.5 47.5z" />
    <glyph glyph-name="ampersand" unicode="&#x26;" horiz-adv-x="1846" 
d="M1666 -20l-302 165q-101 -81 -245.5 -122t-326.5 -41q-224 0 -378 51.5t-231 147t-77 225.5q0 120 67.5 212t175.5 141q-58 67 -81.5 131.5t-23.5 133.5q0 149 82 255.5t249 163.5t417 57q152 0 302 -20v-368q-60 11 -132.5 18.5t-137.5 7.5q-123 0 -192 -17t-95.5 -46.5
t-26.5 -72.5q0 -37 29.5 -70t96.5 -70l390 -213v13q0 108 -34 244h358q15 -60 23.5 -123t8.5 -117q0 -111 -22 -200l286 -156zM1039 323l-383 209l-53 30q-31 -51 -31 -108q0 -79 73 -121.5t203 -42.5q115 0 191 33z" />
    <glyph glyph-name="quotesingle" unicode="'" horiz-adv-x="580" 
d="M150 784l-80 832h440l-80 -832h-280z" />
    <glyph glyph-name="parenleft" unicode="(" horiz-adv-x="834" 
d="M203.5 1.5q-99.5 259.5 -99.5 586.5t99.5 586.5t318.5 441.5h498q-163 -155 -261.5 -311.5t-142.5 -330.5t-44 -386t44 -386t142.5 -330.5t261.5 -311.5h-498q-219 182 -318.5 441.5z" />
    <glyph glyph-name="parenright" unicode=")" horiz-adv-x="834" 
d="M75.5 -128.5q98.5 156.5 142.5 330.5t44 386t-44 386t-142.5 330.5t-261.5 311.5h498q219 -182 318.5 -441.5t99.5 -586.5t-99.5 -586.5t-318.5 -441.5h-498q163 155 261.5 311.5z" />
    <glyph glyph-name="asterisk" unicode="*" horiz-adv-x="1116" 
d="M734 1106l132 -114l88 -124l-230 -166l-88 122l-78 188l-78 -188l-88 -122l-230 166l88 124l132 114l-166 14l-186 60l88 270l186 -60l154 -96l-42 178v144h284v-144l-42 -178l154 96l186 60l88 -270l-186 -60z" />
    <glyph glyph-name="plus" unicode="+" horiz-adv-x="1196" 
d="M420 270v320h-306v340h306v320h356v-320h306v-340h-306v-320h-356z" />
    <glyph glyph-name="comma" unicode="," horiz-adv-x="696" 
d="M560 408.5q74 -83.5 74 -248.5q0 -137 -55.5 -275t-152.5 -245h-258q55 101 86.5 183t41.5 160q-112 13 -175 79.5t-63 173.5q0 119 75 187.5t209 68.5q144 0 218 -83.5z" />
    <glyph glyph-name="hyphen" unicode="-" horiz-adv-x="1150" 
d="M114 384v372h922v-372h-922z" />
    <glyph glyph-name="period" unicode="." horiz-adv-x="696" 
d="M135 48.5q-77 68.5 -77 187.5q0 120 76 188t214 68q91 0 156.5 -31.5t99.5 -89.5t34 -135t-34.5 -135t-100 -89.5t-155.5 -31.5q-136 0 -213 68.5z" />
    <glyph glyph-name="slash" unicode="/" horiz-adv-x="1058" 
d="M0 -240l592 1856h466l-592 -1856h-466z" />
    <glyph glyph-name="zero" unicode="0" horiz-adv-x="1574" 
d="M417.5 66q-155.5 86 -239.5 256.5t-84 417.5t84 417.5t239.5 256.5t368.5 86t369 -86t240.5 -256.5t84.5 -417.5t-84.5 -417.5t-240.5 -256.5t-369 -86t-368.5 86zM959.5 445q58.5 87 58.5 295t-58.5 295t-171.5 87q-114 0 -173 -87t-59 -295q0 -142 26.5 -226t77.5 -120
t128 -36q113 0 171.5 87z" />
    <glyph glyph-name="one" unicode="1" horiz-adv-x="1072" 
d="M612 1486h320v-1486h-476v936l-406 -292v438z" />
    <glyph glyph-name="two" unicode="2" horiz-adv-x="1282" 
d="M1228 368v-368h-1180v242l478 492q92 93 128 151.5t36 110.5q0 49 -24.5 80t-82.5 46.5t-157 15.5q-102 0 -210 -19t-186 -47v368q79 24 204.5 42t227.5 18q242 0 395.5 -49.5t226 -148.5t72.5 -252q0 -118 -53.5 -226t-178.5 -230l-233 -226h537z" />
    <glyph glyph-name="three" unicode="3" horiz-adv-x="1290" 
d="M1142.5 650q77.5 -84 77.5 -226q0 -210 -167.5 -327t-522.5 -117q-246 0 -476 54v330q104 -25 221 -40.5t227 -15.5q149 0 214.5 36.5t65.5 107.5q0 47 -24.5 77t-84 45.5t-163.5 15.5h-302v330h258q139 0 193.5 30.5t54.5 89.5q0 64 -57.5 98t-184.5 34q-95 0 -201 -17
t-191 -45v330q82 26 205 43t231 17q327 0 488.5 -109.5t161.5 -314.5q0 -112 -64.5 -195.5t-175.5 -117.5q139 -29 216.5 -113z" />
    <glyph glyph-name="four" unicode="4" horiz-adv-x="1492" 
d="M1460 616v-360h-198v-256h-426v256h-802v250l522 974h454l-459 -864h285l40 364h386v-364h198z" />
    <glyph glyph-name="five" unicode="5" horiz-adv-x="1302" 
d="M969 855q146 -58 211.5 -155t65.5 -237q0 -234 -170 -358.5t-522 -124.5q-242 0 -476 62v330q104 -25 221 -40.5t227 -15.5q148 0 214 36t66 102q0 48 -33 78.5t-124.5 49.5t-264.5 28l-260 12l58 858h998v-336h-578l-16 -214q237 -17 383 -75z" />
    <glyph glyph-name="six" unicode="6" horiz-adv-x="1472" 
d="M1267 806q143 -114 143 -348q0 -141 -71 -249t-209.5 -168.5t-335.5 -60.5q-208 0 -363.5 79.5t-241 237.5t-85.5 385q0 260 95 443t282.5 279t460.5 96q114 0 205 -13t175 -43v-338q-77 28 -168 43t-178 15q-200 0 -302 -81t-113 -227q65 30 148 47t167 17
q248 0 391 -114zM936 335.5q50 39.5 50 112.5q0 79 -54 117.5t-154 38.5q-112 0 -216 -45q9 -144 67 -203.5t165 -59.5q92 0 142 39.5z" />
    <glyph glyph-name="seven" unicode="7" horiz-adv-x="1224" 
d="M12 1480h1154v-242l-482 -1238h-482l465 1112h-655v368z" />
    <glyph glyph-name="eight" unicode="8" horiz-adv-x="1574" 
d="M1424 646.5q62 -90.5 62 -214.5q0 -126 -73 -228t-229.5 -163t-395.5 -61q-369 0 -537.5 103.5t-168.5 274.5q0 115 71.5 203.5t206.5 137.5q-125 67 -180.5 158.5t-55.5 206.5q0 128 75 226t232 154t395 56q200 0 339 -44t210 -127t71 -199q0 -221 -232 -326
q148 -67 210 -157.5zM624 1164q-58 -32 -58 -80q0 -40 24.5 -68t98 -56t222.5 -62q67 40 97 83t30 91q0 59 -55 91.5t-171 32.5q-130 0 -188 -32zM989 314.5q61 30.5 61 87.5q0 43 -29 73.5t-106.5 57.5t-226.5 57l-34 7q-69 -35 -100.5 -79.5t-31.5 -91.5q0 -142 268 -142
q138 0 199 30.5z" />
    <glyph glyph-name="nine" unicode="9" horiz-adv-x="1472" 
d="M1041.5 1420.5q155.5 -79.5 241 -237.5t85.5 -385q0 -260 -95 -443t-282.5 -279t-460.5 -96q-114 0 -205 13t-175 43v338q77 -28 168 -43t178 -15q200 0 302 81t113 227q-65 -30 -148 -47t-167 -17q-248 0 -391 114t-143 348q0 141 71 249t209.5 168.5t335.5 60.5
q208 0 363.5 -79.5zM540 914.5q54 -38.5 154 -38.5q112 0 216 45q-9 144 -67 203.5t-165 59.5q-92 0 -142 -39.5t-50 -112.5q0 -79 54 -117.5z" />
    <glyph glyph-name="colon" unicode=":" horiz-adv-x="696" 
d="M135 48.5q-77 68.5 -77 187.5q0 120 76 188t214 68q91 0 156.5 -31.5t99.5 -89.5t34 -135t-34.5 -135t-100 -89.5t-155.5 -31.5q-136 0 -213 68.5zM135 676.5q-77 68.5 -77 187.5q0 120 76 188t214 68q91 0 156.5 -31.5t99.5 -89.5t34 -135t-34.5 -135t-100 -89.5
t-155.5 -31.5q-136 0 -213 68.5z" />
    <glyph glyph-name="semicolon" unicode=";" horiz-adv-x="696" 
d="M560 408.5q74 -83.5 74 -248.5q0 -137 -55.5 -275t-152.5 -245h-258q55 101 86.5 183t41.5 160q-112 13 -175 79.5t-63 173.5q0 119 75 187.5t209 68.5q144 0 218 -83.5zM135 676.5q-77 68.5 -77 187.5q0 120 76 188t214 68q91 0 156.5 -31.5t99.5 -89.5t34 -135
t-34.5 -135t-100 -89.5t-155.5 -31.5q-136 0 -213 68.5z" />
    <glyph glyph-name="less" unicode="&#x3c;" horiz-adv-x="1196" 
d="M1082 1300v-340l-638 -196l638 -204v-340l-968 326v428z" />
    <glyph glyph-name="equal" unicode="=" horiz-adv-x="1196" 
d="M114 840v340h968v-340h-968zM114 340v340h968v-340h-968z" />
    <glyph glyph-name="greater" unicode="&#x3e;" horiz-adv-x="1196" 
d="M114 1300l968 -326v-428l-968 -326v340l638 204l-638 196v340z" />
    <glyph glyph-name="question" unicode="?" horiz-adv-x="1188" 
d="M326 878q350 33 350 158q0 57 -58 86.5t-188 29.5q-94 0 -198 -16.5t-190 -45.5v350q82 26 205 43t231 17q328 0 489 -111t161 -323q0 -160 -109.5 -261t-306.5 -147l-28 -126h-278zM333 43q-77 63 -77 173t76 173t214 63q91 0 156.5 -29t99.5 -82.5t34 -124.5
t-34.5 -124.5t-100 -82.5t-155.5 -29q-136 0 -213 63z" />
    <glyph glyph-name="at" unicode="@" horiz-adv-x="2432" 
d="M774 563.5q134 88.5 420 104.5l157 9q-20 49 -77.5 71t-167.5 22q-74 0 -166 -15.5t-168 -40.5v322q97 30 205.5 46t212.5 16q227 0 363.5 -50.5t200.5 -164.5t64 -309v-230q0 -98 92 -98q46 0 76.5 27t48 100t15.5 207q-3 230 -91 371t-268 206t-467 65t-466 -69.5
t-265.5 -223.5t-86.5 -409q0 -257 88.5 -410.5t276 -223.5t495.5 -70q280 0 556 54v-276q-273 -54 -556 -54q-585 0 -883.5 240.5t-298.5 739.5q0 496 292 737t848 241q550 0 837 -229.5t287 -680.5q0 -322 -144.5 -466t-413.5 -144q-276 0 -392 154h-24
q-31 -83 -111.5 -118.5t-192.5 -35.5q-141 0 -237.5 42t-144.5 117t-48 175q0 163 134 251.5zM1234 444q-73 -5 -104.5 -24t-31.5 -66q0 -41 35.5 -59.5t88.5 -18.5q28 0 74 8t68 20v147z" />
    <glyph glyph-name="A" unicode="A" horiz-adv-x="1760" 
d="M1280 0l-110 334h-584l-110 -334h-460l520 1480h688l520 -1480h-464zM701 684h354l-177 539z" />
    <glyph glyph-name="B" unicode="B" horiz-adv-x="1522" 
d="M1396 653q72 -84 72 -223q0 -144 -79 -243t-266 -153t-501 -54q-101 0 -245 9.5t-247 22.5v1420q121 29 282.5 48.5t295.5 19.5q377 0 549.5 -109t172.5 -321q0 -73 -29 -136t-79.5 -107t-115.5 -64q118 -26 190 -110zM594 1162v-244h186q113 0 160.5 33t47.5 99
q0 67 -50.5 98.5t-175.5 31.5q-78 0 -168 -18zM927.5 316.5q62.5 16.5 87.5 47.5t25 80q0 53 -20 85t-68 47.5t-132 15.5h-226v-286q62 -6 160 -6q111 0 173.5 16.5z" />
    <glyph glyph-name="C" unicode="C" horiz-adv-x="1488" 
d="M327 172q-243 192 -243 564q0 235 110.5 406.5t328.5 264.5t535 93q192 0 358 -32v-376q-152 28 -318 28q-270 0 -393 -95.5t-123 -284.5q0 -188 119.5 -284t376.5 -96q162 0 338 36v-376q-84 -19 -179.5 -29.5t-188.5 -10.5q-478 0 -721 192z" />
    <glyph glyph-name="D" unicode="D" horiz-adv-x="1800" 
d="M379.5 -7q-137.5 7 -249.5 21v1418q120 28 289 45t321 17q486 0 731 -185t245 -569q0 -269 -118 -435t-356.5 -242.5t-609.5 -76.5q-115 0 -252.5 7zM1031 396q103 40 152 125t49 223q0 198 -114.5 290t-355.5 92q-34 0 -78.5 -4t-77.5 -10v-752q48 -4 156 -4
q166 0 269 40z" />
    <glyph glyph-name="E" unicode="E" horiz-adv-x="1498" 
d="M600 350h812v-350h-1282v1480h1272v-350h-802v-200h696v-350h-696v-230z" />
    <glyph glyph-name="F" unicode="F" horiz-adv-x="1474" 
d="M1402 1120h-796v-234h684v-360h-684v-526h-476v1480h1272v-360z" />
    <glyph glyph-name="G" unicode="G" horiz-adv-x="1678" 
d="M1540 720v-700q-243 -40 -444 -40q-511 0 -761.5 190t-250.5 562q0 238 114 410t345.5 265t576.5 93q87 0 182.5 -8t179.5 -24v-376q-152 28 -326 28q-210 -1 -337.5 -45.5t-184 -131t-56.5 -219.5q0 -177 119.5 -272.5t370.5 -95.5h30v364h442z" />
    <glyph glyph-name="H" unicode="H" horiz-adv-x="1794" 
d="M130 0v1480h476v-524h582v524h476v-1480h-476v554h-582v-554h-476z" />
    <glyph glyph-name="I" unicode="I" horiz-adv-x="736" 
d="M130 0v1480h476v-1480h-476z" />
    <glyph glyph-name="J" unicode="J" horiz-adv-x="736" 
d="M-12 -162q81 98 113.5 202.5t32.5 261.5v1178h472v-1162q0 -195 -74.5 -356.5t-251.5 -319.5z" />
    <glyph glyph-name="K" unicode="K" horiz-adv-x="1546" 
d="M1082 0l-382 554h-94v-554h-476v1480h476v-524h92l352 524h498l-479 -713l529 -767h-516z" />
    <glyph glyph-name="L" unicode="L" horiz-adv-x="1362" 
d="M130 0v1480h476v-1112h744v-368h-1220z" />
    <glyph glyph-name="M" unicode="M" horiz-adv-x="2176" 
d="M1464 1480h578v-1480h-444v902l-314 -682h-392l-314 644v-864h-444v1480h578l383 -808z" />
    <glyph glyph-name="N" unicode="N" horiz-adv-x="1804" 
d="M1226 1480h448v-1480h-476l-620 834v-834h-448v1480h476l620 -834v834z" />
    <glyph glyph-name="O" unicode="O" horiz-adv-x="1892" 
d="M486.5 72q-194.5 92 -298.5 263.5t-104 404.5t103.5 404.5t298 263.5t460.5 92q265 0 459.5 -92.5t298.5 -264t104 -403.5t-104 -403.5t-298.5 -264t-459.5 -92.5t-459.5 92zM1227 447.5q97 99.5 97 284.5q0 195 -98.5 297.5t-279.5 102.5t-279.5 -98t-98.5 -286
q0 -200 96 -300t282 -100q184 0 281 99.5z" />
    <glyph glyph-name="P" unicode="P" horiz-adv-x="1528" 
d="M130 1450q273 50 546 50q393 0 583.5 -134.5t190.5 -421.5q0 -276 -182.5 -416t-537.5 -140l-65 1q-21 1 -59 1v-390h-476v1450zM880.5 736q56.5 22 84 72.5t27.5 135.5q0 121 -64.5 175.5t-205.5 54.5q-65 0 -116 -8v-444q61 -8 128 -8q90 0 146.5 22z" />
    <glyph glyph-name="Q" unicode="Q" horiz-adv-x="1892" 
d="M1750.5 427q-57.5 -141 -175.5 -240t-294 -142q237 -55 519 -89l-70 -350q-627 91 -991 255t-509.5 377.5t-145.5 481.5q0 243 103.5 418.5t297.5 268.5t461 93q265 0 459.5 -92.5t298.5 -264t104 -403.5q0 -172 -57.5 -313zM662.5 446.5q94.5 -98.5 283.5 -98.5
q184 0 281 99.5t97 284.5q0 195 -98.5 297.5t-279.5 102.5t-279.5 -98t-98.5 -286q0 -203 94.5 -301.5z" />
    <glyph glyph-name="R" unicode="R" horiz-adv-x="1578" 
d="M1060 0l-356 492q-75 2 -108 4v-496h-466v1432q121 29 280.5 48.5t287.5 19.5q363 0 548.5 -122.5t185.5 -379.5q0 -149 -70 -256t-201 -169l421 -573h-522zM596 830q83 -10 158 -10q121 0 179.5 41.5t58.5 136.5q0 91 -61.5 134.5t-188.5 43.5q-69 0 -146 -14v-332z" />
    <glyph glyph-name="S" unicode="S" horiz-adv-x="1378" 
d="M106 50v368q101 -34 248 -55t266 -21q90 0 140 12t69 33.5t19 54.5q0 27 -13 44.5t-48.5 31t-104.5 26.5l-144 28q-170 33 -274 92t-152 147t-48 209q0 234 187.5 357t558.5 123q230 0 418 -46v-368q-77 23 -187 37.5t-217 14.5q-165 0 -229.5 -27t-64.5 -75
q0 -24 11 -39.5t39.5 -27.5t83.5 -23l144 -28q184 -35 295.5 -97t161 -149t49.5 -206q0 -149 -84.5 -258.5t-242 -168.5t-371.5 -59q-273 0 -510 70z" />
    <glyph glyph-name="T" unicode="T" horiz-adv-x="1532" 
d="M528 0v1112h-506v368h1488v-368h-506v-1112h-476z" />
    <glyph glyph-name="U" unicode="U" horiz-adv-x="1756" 
d="M306 163q-182 183 -182 531v786h476v-824q0 -153 70 -226.5t212 -73.5t212 73.5t70 226.5v824h468v-786q0 -347 -181 -530.5t-569 -183.5q-394 0 -576 183z" />
    <glyph glyph-name="V" unicode="V" horiz-adv-x="1740" 
d="M1266 1480h468l-520 -1480h-688l-520 1480h502l375 -1119z" />
    <glyph glyph-name="W" unicode="W" horiz-adv-x="2748" 
d="M2272 1480h452l-442 -1480h-600l-302 1021l-314 -1021h-600l-442 1480h480l297 -1063l325 1063h520l316 -1085z" />
    <glyph glyph-name="X" unicode="X" horiz-adv-x="1592" 
d="M1072 782l590 -782h-528l-346 470l-344 -470h-512l582 774l-536 706h528l292 -394l290 394h510z" />
    <glyph glyph-name="Y" unicode="Y" horiz-adv-x="1532" 
d="M1572 1480l-564 -872v-608h-476v602l-592 878h502l335 -507l327 507h468z" />
    <glyph glyph-name="Z" unicode="Z" horiz-adv-x="1482" 
d="M699 368h699v-368h-1314v254l689 858h-679v368h1294v-254z" />
    <glyph glyph-name="bracketleft" unicode="[" horiz-adv-x="834" 
d="M150 -440v2056h706v-360h-242v-1336h222v-360h-686z" />
    <glyph glyph-name="backslash" unicode="\" horiz-adv-x="1058" 
d="M592 -240l-592 1856h466l592 -1856h-466z" />
    <glyph glyph-name="bracketright" unicode="]" horiz-adv-x="834" 
d="M-2 -440v360h222v1336h-242v360h706v-2056h-686z" />
    <glyph glyph-name="asciicircum" unicode="^" 
d="M1406 740h-462l-224 365l-224 -365h-462l454 740h464z" />
    <glyph glyph-name="underscore" unicode="_" horiz-adv-x="1448" 
d="M90 -362v360h1268v-360h-1268z" />
    <glyph glyph-name="grave" unicode="`" horiz-adv-x="1200" 
d="M380 1220l-326 396h508l258 -396h-440z" />
    <glyph glyph-name="a" unicode="a" horiz-adv-x="1344" 
d="M968 1067q139 -51 203.5 -169.5t64.5 -323.5v-574h-384l-30 90h-20q-109 -112 -314 -112q-140 0 -236.5 43.5t-145 119t-48.5 171.5q0 164 135 254.5t419 103.5l163 8q-16 60 -76.5 86t-186.5 26q-74 0 -168 -12t-172 -34v322q97 26 211 39t213 13q233 0 372 -51z
M782 300v144l-124 -6q-76 -4 -109 -26.5t-33 -61.5q0 -36 31.5 -57t92.5 -21q86 0 142 28z" />
    <glyph glyph-name="b" unicode="b" horiz-adv-x="1490" 
d="M381.5 -4.5q-144.5 17.5 -265.5 54.5v1566h464v-610h20q124 112 326 112q138 0 251 -61t180 -182.5t67 -294.5q0 -292 -190.5 -447t-559.5 -155q-148 0 -292.5 17.5zM904.5 375q61.5 57 61.5 173q0 206 -210 206q-47 0 -92.5 -9.5t-83.5 -28.5v-384q63 -14 136 -14
q127 0 188.5 57z" />
    <glyph glyph-name="c" unicode="c" horiz-adv-x="1194" 
d="M394.5 44.5q-162.5 66.5 -245.5 194t-83 307.5t85 308.5t252 196t409 67.5q176 0 314 -30v-348q-80 11 -140.5 16.5t-125.5 5.5q-168 0 -245 -54.5t-77 -161.5q0 -103 76.5 -157.5t225.5 -54.5q65 0 127 7.5t159 26.5v-348q-65 -19 -151.5 -30.5t-182.5 -11.5
q-235 0 -397.5 66.5z" />
    <glyph glyph-name="d" unicode="d" horiz-adv-x="1490" 
d="M330 40q-121 58 -192.5 180t-71.5 306q0 185 82 319.5t234 205.5t358 71q70 0 170 -8v502h464v-1616h-386l-24 106h-20q-65 -58 -151 -91t-191 -33q-151 0 -272 58zM829 358q47 12 81 36v374q-72 12 -136 12q-127 0 -188.5 -56t-61.5 -168q0 -210 208 -210q50 0 97 12z
" />
    <glyph glyph-name="e" unicode="e" horiz-adv-x="1326" 
d="M1270 428h-747q8 -48 41.5 -75t108.5 -39t211 -12q139 0 310 24v-318q-177 -30 -384 -30q-259 0 -423 60.5t-242.5 186t-78.5 321.5q0 174 72 303t212 199t340 70q189 0 319 -71t195.5 -203t65.5 -314v-102zM562.5 803q-39.5 -43 -42.5 -135h324q-4 92 -43 135t-119 43
t-119.5 -43z" />
    <glyph glyph-name="f" unicode="f" horiz-adv-x="980" 
d="M747.5 1239.5q-53.5 -42.5 -53.5 -125.5v-14h276v-360h-276v-740h-464v740h-180v360h180q0 161 73 282.5t209.5 187.5t323.5 66q55 0 95.5 -2.5t94.5 -9.5v-348q-60 6 -110 6q-115 0 -168.5 -42.5z" />
    <glyph glyph-name="g" unicode="g" horiz-adv-x="1490" 
d="M380.5 -448.5q-115.5 11.5 -232.5 38.5v348q118 -29 234 -43.5t206 -14.5q175 0 248.5 47.5t73.5 144.5v46h-20q-124 -112 -326 -112q-136 0 -249.5 62t-181 179.5t-67.5 278.5q0 183 85 316t253 204.5t412 71.5q142 0 294.5 -19t263.5 -53v-882q0 -216 -79.5 -353.5
t-245 -204t-425.5 -66.5q-128 0 -243.5 11.5zM826.5 379.5q45.5 9.5 83.5 28.5v356q-63 14 -134 14q-123 0 -187.5 -55.5t-64.5 -160.5q0 -192 210 -192q47 0 92.5 9.5z" />
    <glyph glyph-name="h" unicode="h" horiz-adv-x="1462" 
d="M116 1616h464v-610h20q62 55 144 83.5t172 28.5q128 0 226 -54t155 -168t57 -288v-608h-464v582q0 84 -32.5 118t-101.5 34q-52 0 -98.5 -17.5t-77.5 -46.5v-670h-464v1616z" />
    <glyph glyph-name="i" unicode="i" horiz-adv-x="696" 
d="M116 0v1100h464v-1100h-464zM141 1259.5q-67 53.5 -67 158.5t67 158.5t207 53.5t207 -53.5t67 -158.5t-67 -158.5t-207 -53.5t-207 53.5z" />
    <glyph glyph-name="j" unicode="j" horiz-adv-x="696" 
d="M-30 -284q81 98 113.5 202.5t32.5 261.5v920h464v-904q0 -194 -73.5 -353.5t-248.5 -318.5zM131 1259.5q-67 53.5 -67 158.5t67 158.5t207 53.5t207 -53.5t67 -158.5t-67 -158.5t-207 -53.5t-207 53.5z" />
    <glyph glyph-name="k" unicode="k" horiz-adv-x="1456" 
d="M990 0l-271 380h-139v-380h-464v1616h464v-864h137l245 348h494l-356 -523l394 -577h-504z" />
    <glyph glyph-name="l" unicode="l" horiz-adv-x="696" 
d="M116 0v1616h464v-1616h-464z" />
    <glyph glyph-name="m" unicode="m" horiz-adv-x="2126" 
d="M1898 992.5q120 -125.5 120 -384.5v-608h-462v582q0 83 -31.5 117.5t-90.5 34.5q-85 0 -135 -43q3 -36 3 -77v-614h-454v582q0 84 -27.5 118t-86.5 34q-49 0 -89 -17t-65 -47v-670h-464v1100h378l28 -96h20q61 55 146.5 84.5t189.5 29.5q101 0 182 -33.5t136 -102.5
q158 136 374 136q208 0 328 -125.5z" />
    <glyph glyph-name="n" unicode="n" horiz-adv-x="1462" 
d="M116 1100h378l28 -96h20q65 54 156.5 84t195.5 30q212 0 336 -125.5t124 -384.5v-608h-464v582q0 84 -32.5 118t-101.5 34q-52 0 -98.5 -17.5t-77.5 -46.5v-670h-464v1100z" />
    <glyph glyph-name="o" unicode="o" horiz-adv-x="1464" 
d="M381.5 47q-150.5 69 -233 198t-82.5 305q0 177 78 305t228 195.5t360 67.5t360 -67.5t228 -195.5t78 -305q0 -176 -82.5 -305t-233 -198t-350.5 -69t-350.5 69zM887.5 381q52.5 55 52.5 169t-52 167t-156 53t-156 -53t-52 -167t52.5 -169t155.5 -55t155.5 55z" />
    <glyph glyph-name="p" unicode="p" horiz-adv-x="1490" 
d="M116 1100h386l24 -106h20q65 58 151 91t191 33q151 0 272 -58t192.5 -180t71.5 -306q0 -185 -82 -319.5t-234 -205.5t-358 -71q-70 0 -170 8v-426h-464v1540zM904.5 376q61.5 56 61.5 168q0 210 -208 210q-50 0 -97 -12t-81 -36v-374q72 -12 136 -12q127 0 188.5 56z" />
    <glyph glyph-name="q" unicode="q" horiz-adv-x="1490" 
d="M910 90h-20q-124 -112 -326 -112q-138 0 -251 61t-180 182.5t-67 294.5q0 292 190.5 447t559.5 155q142 0 294.5 -19t263.5 -53v-1486h-464v530zM826.5 351.5q45.5 9.5 83.5 28.5v384q-63 14 -136 14q-123 0 -186.5 -57.5t-63.5 -172.5q0 -206 210 -206q47 0 92.5 9.5z
" />
    <glyph glyph-name="r" unicode="r" horiz-adv-x="958" 
d="M116 1100h376l36 -124h20q46 71 122 106.5t176 35.5q48 0 100 -8v-406q-50 10 -128 10q-70 0 -136 -19t-102 -53v-642h-464v1100z" />
    <glyph glyph-name="s" unicode="s" horiz-adv-x="1208" 
d="M307 -8q-120 14 -215 40v306q96 -26 215.5 -41t234.5 -15q97 0 136.5 13.5t39.5 40.5q0 17 -12 25.5t-48 12.5l-236 30q-193 25 -276.5 107t-83.5 225q0 181 162.5 281.5t493.5 100.5q98 0 201.5 -12t172.5 -32v-306q-71 20 -173.5 33t-196.5 13q-133 0 -178.5 -16
t-45.5 -42q0 -14 13 -22t49 -12l236 -30q118 -15 196.5 -51t120 -105t41.5 -180q0 -118 -70.5 -203t-206 -130t-327.5 -45q-123 0 -243 14z" />
    <glyph glyph-name="t" unicode="t" horiz-adv-x="1024" 
d="M686 740v-228q0 -66 16 -103t50.5 -52t95.5 -15q45 0 114 12v-348q-55 -12 -124 -20t-128 -8q-241 0 -364.5 112t-123.5 334v316h-180v360h180l86 380h378v-380h276v-360h-276z" />
    <glyph glyph-name="u" unicode="u" horiz-adv-x="1452" 
d="M236 107q-128 125 -128 385v608h464v-582q0 -84 31.5 -118t96.5 -34q49 0 95.5 17.5t76.5 46.5v670h464v-1100h-378l-28 96h-16q-68 -55 -152.5 -84.5t-175.5 -29.5q-222 0 -350 125z" />
    <glyph glyph-name="v" unicode="v" horiz-adv-x="1424" 
d="M986 1100h452l-448 -1100h-558l-446 1100h488l256 -697z" />
    <glyph glyph-name="w" unicode="w" horiz-adv-x="2150" 
d="M1666 1100h424l-308 -1100h-514l-188 699l-196 -699h-514l-310 1100h444l152 -637l172 637h514l163 -620z" />
    <glyph glyph-name="x" unicode="x" horiz-adv-x="1356" 
d="M942 560l424 -560h-510l-182 258l-190 -258h-496l422 554l-414 546h510l178 -244l172 244h496z" />
    <glyph glyph-name="y" unicode="y" horiz-adv-x="1424" 
d="M986 1100h452l-628 -1540h-452l182 440h-108l-446 1100h488l256 -697z" />
    <glyph glyph-name="z" unicode="z" horiz-adv-x="1274" 
d="M716 360h490v-360h-1114v300l480 440h-470v360h1094v-300z" />
    <glyph glyph-name="braceleft" unicode="{" horiz-adv-x="874" 
d="M603 733q-51 -70 -158 -101q107 -31 158 -101t51 -179v-342q0 -57 28.5 -80.5t87.5 -23.5h126v-352q-108 -14 -214 -14q-243 0 -367.5 112t-124.5 322v360q0 53 -32.5 85.5t-85.5 32.5h-74v360h74q53 0 85.5 33t32.5 85v272q0 210 124.5 322t367.5 112q105 0 214 -14
v-352h-126q-59 0 -87.5 -23.5t-28.5 -80.5v-254q0 -109 -51 -179z" />
    <glyph glyph-name="bar" unicode="|" horiz-adv-x="680" 
d="M130 -440v2056h420v-2056h-420z" />
    <glyph glyph-name="braceright" unicode="}" horiz-adv-x="874" 
d="M876 812v-360h-74q-52 0 -85 -32.5t-33 -85.5v-360q0 -210 -124.5 -322t-367.5 -112q-105 0 -214 14v352h126q59 0 87.5 23.5t28.5 80.5v342q0 109 51 179t158 101q-107 31 -158 101t-51 179v254q0 57 -28.5 80.5t-87.5 23.5h-126v352q109 14 214 14q243 0 367.5 -112
t124.5 -322v-272q0 -52 33 -85t85 -33h74z" />
    <glyph glyph-name="asciitilde" unicode="~" horiz-adv-x="1196" 
d="M699.5 550.5q-53.5 16.5 -127.5 47.5q-64 27 -107 40.5t-87 13.5q-76 0 -137.5 -25.5t-126.5 -84.5v342q54 54 117.5 78t150.5 24q61 0 114.5 -16.5t127.5 -47.5q64 -27 107 -40.5t87 -13.5q76 0 137.5 25.5t126.5 84.5v-342q-54 -54 -117.5 -78t-150.5 -24
q-61 0 -114.5 16.5z" />
    <glyph glyph-name="uni00A0" unicode="&#xa0;" horiz-adv-x="584" 
 />
    <glyph glyph-name="exclamdown" unicode="&#xa1;" horiz-adv-x="736" 
d="M523.5 1088.5q65.5 -31.5 100 -89.5t34.5 -135t-34 -135t-99.5 -89.5t-156.5 -31.5q-138 0 -214 68t-76 188q0 119 77 187.5t213 68.5q90 0 155.5 -31.5zM232 528h278l102 -444v-464h-488v464z" />
    <glyph glyph-name="cent" unicode="&#xa2;" horiz-adv-x="1202" 
d="M615 707.5q-77 -54.5 -77 -161.5q0 -103 76.5 -157.5t225.5 -54.5q65 0 127 7.5t159 26.5v-348q-85 -25 -190 -35v-225h-400v242q-230 49 -350 188t-120 356q0 215 119.5 354.5t350.5 190.5v249h400v-226q107 -8 190 -26v-348q-80 11 -140.5 16.5t-125.5 5.5
q-168 0 -245 -54.5z" />
    <glyph glyph-name="sterling" unicode="&#xa3;" horiz-adv-x="1584" 
d="M1514 350v-350h-1424v350h200v240h-200v320h200v36q0 274 188 414t568 140q113 0 218.5 -11.5t189.5 -30.5v-368q-75 21 -182.5 34.5t-201.5 13.5q-130 0 -200 -16t-98 -51.5t-28 -98.5v-62h470v-320h-470v-240h770z" />
    <glyph glyph-name="currency" unicode="&#xa4;" 
d="M1180 476l142 -140l-198 -198l-140 142l-95 110q-79 -34 -169 -34t-169 34l-95 -110l-140 -142l-198 198l142 140l107 92q-37 77 -37 172q0 93 37 172l-107 92l-142 140l198 198l140 -142l96 -111q80 33 168 33t168 -33l96 111l140 142l198 -198l-142 -140l-107 -92
q37 -79 37 -172q0 -95 -37 -172zM613.5 623.5q41.5 -43.5 106.5 -43.5t106.5 43.5t41.5 116.5q0 69 -41 114.5t-105 45.5q-66 0 -108 -43t-42 -117q0 -73 41.5 -116.5z" />
    <glyph glyph-name="yen" unicode="&#xa5;" horiz-adv-x="1528" 
d="M1570 1480l-423 -654h189v-250h-330v-104h330v-250h-330v-222h-476v222h-330v250h330v104h-330v250h179l-441 654h502l335 -507l327 507h468z" />
    <glyph glyph-name="brokenbar" unicode="&#xa6;" horiz-adv-x="680" 
d="M130 836v780h420v-780h-420zM130 -440v780h420v-780h-420z" />
    <glyph glyph-name="section" unicode="&#xa7;" horiz-adv-x="1364" 
d="M1142 515q56 -67 56 -165q0 -177 -155.5 -274.5t-468.5 -97.5q-97 0 -212 12t-206 34v290q190 -46 410 -46q126 0 172 14.5t46 39.5q0 20 -14.5 31t-47.5 15l-306 48q-150 24 -237 102t-87 214t119 225q-65 68 -65 165q0 180 160.5 278t515.5 98q83 0 173.5 -8t160.5 -22
v-290q-144 30 -296 30q-300 0 -300 -58q0 -18 16 -27.5t50 -14.5l326 -46q152 -22 236 -98t84 -214q0 -141 -130 -235zM860 643q17 17 24.5 32t7.5 33q0 30 -21 50t-73 28l-297 49q-29 -40 -29 -71q0 -28 22 -47t74 -27z" />
    <glyph glyph-name="dieresis" unicode="&#xa8;" horiz-adv-x="1200" 
d="M137.5 1264q-57.5 54 -57.5 154t57.5 154t176.5 54t176.5 -54t57.5 -154t-57.5 -154t-176.5 -54t-176.5 54zM709.5 1264q-57.5 54 -57.5 154t57.5 154t176.5 54t176.5 -54t57.5 -154t-57.5 -154t-176.5 -54t-176.5 54z" />
    <glyph glyph-name="copyright" unicode="&#xa9;" horiz-adv-x="1668" 
d="M440 73q-170 95 -263 267.5t-93 399.5t93 399.5t263 267.5t394 95t394 -95t263 -267.5t93 -399.5t-93 -399.5t-263 -267.5t-394 -95t-394 95zM1119.5 256.5q118.5 66.5 180.5 190t62 293.5t-62 293.5t-180.5 190t-285.5 66.5t-285.5 -66.5t-180.5 -190t-62 -293.5
t62 -293.5t180.5 -190t285.5 -66.5t285.5 66.5zM667.5 372.5q-100.5 48.5 -155 140.5t-54.5 219q0 128 56 221t159 142t243 49q104 0 192 -22v-250q-96 16 -164 16q-186 0 -186 -156q0 -73 45 -112.5t129 -39.5q42 0 79.5 5t96.5 19v-250q-83 -30 -204 -30
q-136 0 -236.5 48.5z" />
    <glyph glyph-name="ordfeminine" unicode="&#xaa;" horiz-adv-x="1126" 
d="M821.5 1458.5q122.5 -43.5 179.5 -142.5t57 -270v-436h-360l-30 74h-18q-43 -46 -110.5 -69t-147.5 -23q-184 0 -273 73t-89 195q0 135 105.5 204t334.5 76l155 5q-8 34 -53.5 50.5t-155.5 16.5q-67 0 -145.5 -9.5t-144.5 -26.5v284q87 21 184 31.5t184 10.5
q205 0 327.5 -43.5zM628 856v109l-84 -3q-49 -1 -69.5 -16t-20.5 -42q0 -26 22.5 -41t69.5 -15q45 0 82 8z" />
    <glyph glyph-name="guillemotleft" unicode="&#xab;" horiz-adv-x="1558" 
d="M370 130l-298 440l298 440h480l-298 -440l298 -440h-480zM1046 130l-298 440l298 440h480l-298 -440l298 -440h-480z" />
    <glyph glyph-name="logicalnot" unicode="&#xac;" horiz-adv-x="1424" 
d="M960 210v380h-846v340h1202v-720h-356z" />
    <glyph glyph-name="uni00AD" unicode="&#xad;" horiz-adv-x="1150" 
d="M114 384v372h922v-372h-922z" />
    <glyph glyph-name="registered" unicode="&#xae;" horiz-adv-x="1432" 
d="M1033.5 1420q138.5 -78 215.5 -218t77 -320t-77 -319.5t-215.5 -217t-317.5 -77.5t-317.5 77.5t-215.5 217t-77 319.5t77 320t215.5 218t317.5 78t317.5 -78zM949 480.5q100 56.5 154.5 160t54.5 241.5q0 139 -54.5 243t-154.5 160.5t-233 56.5t-233 -56.5t-154.5 -160.5
t-54.5 -243q0 -138 54.5 -241.5t154.5 -160t233 -56.5t233 56.5zM944.5 875.5q-27.5 -44.5 -84.5 -66.5l144 -209h-182l-128 186h-28l-6 -186h-166v592h214q134 0 199 -50.5t65 -153.5q0 -68 -27.5 -112.5zM666 918h68q76 0 76 70q0 36 -19.5 54t-56.5 18h-68v-142z" />
    <glyph glyph-name="macron" unicode="&#xaf;" horiz-adv-x="1200" 
d="M184 1294v250h832v-250h-832z" />
    <glyph glyph-name="degree" unicode="&#xb0;" horiz-adv-x="1024" 
d="M303.5 753.5q-92.5 51.5 -145 143t-52.5 205.5t52.5 205t145 142t208.5 51t208.5 -51t145 -142t52.5 -205t-52.5 -205.5t-145 -143t-208.5 -51.5t-208.5 51.5zM613.5 991.5q40.5 41.5 40.5 110.5q0 70 -40.5 110t-101.5 40t-101.5 -40t-40.5 -110q0 -69 40.5 -110.5
t101.5 -41.5t101.5 41.5z" />
    <glyph glyph-name="plusminus" unicode="&#xb1;" horiz-adv-x="1196" 
d="M420 410v260h-306v340h306v260h356v-260h306v-340h-306v-260h-356zM114 0v340h968v-340h-968z" />
    <glyph glyph-name="uni00B2" unicode="&#xb2;" horiz-adv-x="980" 
d="M910 138v-274h-842v180l330 326q59 58 83.5 93t24.5 65q0 43 -38.5 62.5t-137.5 19.5q-70 0 -145 -13.5t-129 -32.5v274q63 19 149 29.5t175 10.5q251 0 368.5 -76t117.5 -232q0 -78 -39 -150t-123 -152l-138 -130h344z" />
    <glyph glyph-name="uni00B3" unicode="&#xb3;" horiz-adv-x="980" 
d="M839 304q51 -56 51 -152q0 -143 -118 -222.5t-372 -79.5q-182 0 -338 36v246q76 -18 160 -28t156 -10q94 0 134 20.5t40 59.5q0 40 -34.5 59t-121.5 19h-240v244h220q72 0 100 17t28 47q0 37 -36 56.5t-120 19.5q-62 0 -138.5 -12.5t-133.5 -31.5v246q55 17 143 28.5
t165 11.5q468 0 468 -292q0 -75 -41 -130.5t-112 -76.5q89 -19 140 -75z" />
    <glyph glyph-name="acute" unicode="&#xb4;" horiz-adv-x="1200" 
d="M380 1220l258 396h508l-326 -396h-440z" />
    <glyph glyph-name="uni00B5" unicode="&#xb5;" horiz-adv-x="1452" 
d="M1336 1100v-1100h-378l-28 96h-16q-50 -54 -112.5 -84t-129.5 -30q-55 0 -100 13v-435h-464v1538h464v-580q0 -84 31.5 -118t96.5 -34q49 0 95.5 17.5t76.5 46.5v670h464z" />
    <glyph glyph-name="paragraph" unicode="&#xb6;" horiz-adv-x="1528" 
d="M612 390q-22 0 -33 -1l-37 -1q-229 0 -346.5 140t-117.5 416q0 193 56 315.5t170.5 181.5t293.5 59q178 0 332 -20v-1480h-318v390zM1080 0v1480h318v-1480h-318z" />
    <glyph glyph-name="periodcentered" unicode="&#xb7;" horiz-adv-x="696" 
d="M135 372.5q-77 68.5 -77 187.5q0 120 76 188t214 68q91 0 156.5 -31.5t99.5 -89.5t34 -135t-34.5 -135t-100 -89.5t-155.5 -31.5q-136 0 -213 68.5z" />
    <glyph glyph-name="cedilla" unicode="&#xb8;" horiz-adv-x="1200" 
d="M848 -140.5q44 -49.5 44 -125.5q0 -91 -76.5 -142.5t-221.5 -51.5q-115 0 -208 32v154q37 -14 90 -22t96 -8q48 0 72 14t24 46t-23.5 46t-70.5 14h-62v204h202v-94q90 -17 134 -66.5z" />
    <glyph glyph-name="uni00B9" unicode="&#xb9;" horiz-adv-x="980" 
d="M726 138h218v-274h-818v274h232v357l-232 -141v300l352 214h248v-730z" />
    <glyph glyph-name="ordmasculine" unicode="&#xba;" horiz-adv-x="1222" 
d="M297 649q-130 57 -197.5 160.5t-67.5 240.5t67.5 238.5t197.5 157.5t313 56t313.5 -56t198.5 -158t68 -238q0 -137 -68 -240.5t-198.5 -160.5t-313.5 -57t-313 57zM723.5 944q40.5 38 40.5 106q0 67 -40 102.5t-114 35.5q-71 0 -111.5 -35.5t-40.5 -102.5t40.5 -105.5
t111.5 -38.5q73 0 113.5 38z" />
    <glyph glyph-name="guillemotright" unicode="&#xbb;" horiz-adv-x="1558" 
d="M32 130l298 440l-298 440h480l298 -440l-298 -440h-480zM708 130l298 440l-298 440h480l298 -440l-298 -440h-480z" />
    <glyph glyph-name="onequarter" unicode="&#xbc;" horiz-adv-x="2476" 
d="M726 890h218v-274h-818v274h232v357l-232 -141v300l352 214h248v-730zM600 -136l894 1752h382l-894 -1752h-382zM2456 294v-268h-124v-162h-320v162h-496v186l288 652h330l-252 -570h130l50 232h270v-232h124z" />
    <glyph glyph-name="onehalf" unicode="&#xbd;" horiz-adv-x="2476" 
d="M726 890h218v-274h-818v274h232v357l-232 -141v300l352 214h248v-730zM600 -136l894 1752h382l-894 -1752h-382zM2406 138v-274h-842v180l330 326q59 58 83.5 93t24.5 65q0 43 -38.5 62.5t-137.5 19.5q-70 0 -145 -13.5t-129 -32.5v274q63 19 149 29.5t175 10.5
q251 0 368.5 -76t117.5 -232q0 -78 -39 -150t-123 -152l-138 -130h344z" />
    <glyph glyph-name="threequarters" unicode="&#xbe;" horiz-adv-x="2476" 
d="M839 1056q51 -56 51 -152q0 -143 -118 -222.5t-372 -79.5q-182 0 -338 36v246q76 -18 160 -28t156 -10q94 0 134 20.5t40 59.5q0 40 -34.5 59t-121.5 19h-240v244h220q72 0 100 17t28 47q0 37 -36 56.5t-120 19.5q-62 0 -138.5 -12.5t-133.5 -31.5v246q55 17 143 28.5
t165 11.5q468 0 468 -292q0 -75 -41 -130.5t-112 -76.5q89 -19 140 -75zM600 -136l894 1752h382l-894 -1752h-382zM2456 294v-268h-124v-162h-320v162h-496v186l288 652h330l-252 -570h130l50 232h270v-232h124z" />
    <glyph glyph-name="questiondown" unicode="&#xbf;" horiz-adv-x="1188" 
d="M855 1057q77 -63 77 -173t-76 -173t-214 -63q-91 0 -156.5 29t-99.5 82.5t-34 124.5t34.5 124.5t100 82.5t155.5 29q136 0 213 -63zM862 222q-350 -33 -350 -158q0 -57 58 -86.5t188 -29.5q94 0 198 16.5t190 45.5v-350q-82 -26 -205 -43t-231 -17q-328 0 -489 111
t-161 323q0 160 109.5 261t306.5 147l28 126h278z" />
    <glyph glyph-name="Agrave" unicode="&#xc0;" horiz-adv-x="1760" 
d="M1280 0l-110 334h-584l-110 -334h-460l520 1480h688l520 -1480h-464zM701 684h354l-177 539zM668 1586l-272 316h488l204 -316h-420z" />
    <glyph glyph-name="Aacute" unicode="&#xc1;" horiz-adv-x="1760" 
d="M1280 0l-110 334h-584l-110 -334h-460l520 1480h688l520 -1480h-464zM701 684h354l-177 539zM664 1586l204 316h488l-272 -316h-420z" />
    <glyph glyph-name="Acircumflex" unicode="&#xc2;" horiz-adv-x="1760" 
d="M1280 0l-110 334h-584l-110 -334h-460l520 1480h688l520 -1480h-464zM701 684h354l-177 539zM1402 1586h-364l-160 155l-160 -155h-364l332 316h384z" />
    <glyph glyph-name="Atilde" unicode="&#xc3;" horiz-adv-x="1760" 
d="M1280 0l-110 334h-584l-110 -334h-460l520 1480h688l520 -1480h-464zM701 684h354l-177 539zM976 1595q-46 9 -115 28q-60 17 -103 26t-90 9q-69 0 -122 -15t-112 -49v232q50 40 108 58t138 18q55 0 102.5 -9.5t112.5 -28.5q63 -18 104.5 -27t88.5 -9q69 0 122 15t112 49
v-232q-50 -39 -107.5 -56.5t-138.5 -17.5q-54 0 -100 9z" />
    <glyph glyph-name="Adieresis" unicode="&#xc4;" horiz-adv-x="1760" 
d="M1280 0l-110 334h-584l-110 -334h-460l520 1480h688l520 -1480h-464zM701 684h354l-177 539zM409.5 1616.5q-55.5 46.5 -55.5 133.5t55.5 133.5t172.5 46.5t172.5 -46.5t55.5 -133.5t-55.5 -133.5t-172.5 -46.5t-172.5 46.5zM1001.5 1616.5q-55.5 46.5 -55.5 133.5
t55.5 133.5t172.5 46.5t172.5 -46.5t55.5 -133.5t-55.5 -133.5t-172.5 -46.5t-172.5 46.5z" />
    <glyph glyph-name="Aring" unicode="&#xc5;" horiz-adv-x="1760" 
d="M1280 0l-110 334h-584l-110 -334h-460l520 1480h688l520 -1480h-464zM701 684h354l-177 539zM761 1598.5q-52 28.5 -81.5 78.5t-29.5 113t29.5 113t81.5 78.5t117 28.5t117 -28.5t81.5 -78.5t29.5 -113t-29.5 -113t-81.5 -78.5t-117 -28.5t-117 28.5zM934.5 1730.5
q21.5 22.5 21.5 59.5t-21.5 59.5t-56.5 22.5t-56.5 -22.5t-21.5 -59.5t21.5 -59.5t56.5 -22.5t56.5 22.5z" />
    <glyph glyph-name="AE" unicode="&#xc6;" horiz-adv-x="2382" 
d="M1562 350h734v-350h-1180l-29 334h-502l-109 -334h-460l520 1480h1750v-350h-802l20 -200h676v-350h-641zM700 684h357l-39 446h-172z" />
    <glyph glyph-name="Ccedilla" unicode="&#xc7;" horiz-adv-x="1488" 
d="M705 1024.5q-123 -95.5 -123 -284.5q0 -188 119.5 -284t376.5 -96q162 0 338 36v-376q-84 -19 -179.5 -29.5t-188.5 -10.5q-32 0 -94 2v-54q101 -15 149.5 -63.5t48.5 -124.5q0 -94 -81 -147t-237 -53q-119 0 -228 32v154q47 -15 101.5 -22.5t104.5 -7.5q59 0 87.5 13.5
t28.5 44.5q0 33 -28 47.5t-86 14.5h-62v186q-332 55 -500 240t-168 494q0 235 110.5 406.5t328.5 264.5t535 93q192 0 358 -32v-376q-152 28 -318 28q-270 0 -393 -95.5z" />
    <glyph glyph-name="Egrave" unicode="&#xc8;" horiz-adv-x="1498" 
d="M600 350h812v-350h-1282v1480h1272v-350h-802v-200h696v-350h-696v-230zM578 1586l-272 316h488l204 -316h-420z" />
    <glyph glyph-name="Eacute" unicode="&#xc9;" horiz-adv-x="1498" 
d="M600 350h812v-350h-1282v1480h1272v-350h-802v-200h696v-350h-696v-230zM574 1586l204 316h488l-272 -316h-420z" />
    <glyph glyph-name="Ecircumflex" unicode="&#xca;" horiz-adv-x="1498" 
d="M600 350h812v-350h-1282v1480h1272v-350h-802v-200h696v-350h-696v-230zM1312 1586h-364l-160 155l-160 -155h-364l332 316h384z" />
    <glyph glyph-name="Edieresis" unicode="&#xcb;" horiz-adv-x="1498" 
d="M600 350h812v-350h-1282v1480h1272v-350h-802v-200h696v-350h-696v-230zM319.5 1616.5q-55.5 46.5 -55.5 133.5t55.5 133.5t172.5 46.5t172.5 -46.5t55.5 -133.5t-55.5 -133.5t-172.5 -46.5t-172.5 46.5zM911.5 1616.5q-55.5 46.5 -55.5 133.5t55.5 133.5t172.5 46.5
t172.5 -46.5t55.5 -133.5t-55.5 -133.5t-172.5 -46.5t-172.5 46.5z" />
    <glyph glyph-name="Igrave" unicode="&#xcc;" horiz-adv-x="736" 
d="M130 0v1480h476v-1480h-476zM158 1586l-272 316h488l204 -316h-420z" />
    <glyph glyph-name="Iacute" unicode="&#xcd;" horiz-adv-x="736" 
d="M130 0v1480h476v-1480h-476zM154 1586l204 316h488l-272 -316h-420z" />
    <glyph glyph-name="Icircumflex" unicode="&#xce;" horiz-adv-x="736" 
d="M130 0v1480h476v-1480h-476zM892 1586h-364l-160 155l-160 -155h-364l332 316h384z" />
    <glyph glyph-name="Idieresis" unicode="&#xcf;" horiz-adv-x="736" 
d="M130 0v1480h476v-1480h-476zM-100.5 1616.5q-55.5 46.5 -55.5 133.5t55.5 133.5t172.5 46.5t172.5 -46.5t55.5 -133.5t-55.5 -133.5t-172.5 -46.5t-172.5 46.5zM491.5 1616.5q-55.5 46.5 -55.5 133.5t55.5 133.5t172.5 46.5t172.5 -46.5t55.5 -133.5t-55.5 -133.5
t-172.5 -46.5t-172.5 46.5z" />
    <glyph glyph-name="Eth" unicode="&#xd0;" horiz-adv-x="1800" 
d="M1471 1309q245 -185 245 -569q0 -269 -118 -435t-356.5 -242.5t-609.5 -76.5q-115 0 -252.5 7t-249.5 21v608h-122v280h122v530q120 28 289 45t321 17q486 0 731 -185zM1031 396q103 40 152 125t49 223q0 198 -114.5 290t-355.5 92q-34 0 -78.5 -4t-77.5 -10v-210h274
v-280h-274v-262q48 -4 156 -4q166 0 269 40z" />
    <glyph glyph-name="Ntilde" unicode="&#xd1;" horiz-adv-x="1804" 
d="M1226 1480h448v-1480h-476l-620 834v-834h-448v1480h476l620 -834v834zM1000 1595q-46 9 -115 28q-60 17 -103 26t-90 9q-69 0 -122 -15t-112 -49v232q50 40 108 58t138 18q55 0 102.5 -9.5t112.5 -28.5q63 -18 104.5 -27t88.5 -9q69 0 122 15t112 49v-232
q-50 -39 -107.5 -56.5t-138.5 -17.5q-54 0 -100 9z" />
    <glyph glyph-name="Ograve" unicode="&#xd2;" horiz-adv-x="1892" 
d="M486.5 72q-194.5 92 -298.5 263.5t-104 404.5t103.5 404.5t298 263.5t460.5 92q265 0 459.5 -92.5t298.5 -264t104 -403.5t-104 -403.5t-298.5 -264t-459.5 -92.5t-459.5 92zM1227 447.5q97 99.5 97 284.5q0 195 -98.5 297.5t-279.5 102.5t-279.5 -98t-98.5 -286
q0 -200 96 -300t282 -100q184 0 281 99.5zM736 1586l-272 316h488l204 -316h-420z" />
    <glyph glyph-name="Oacute" unicode="&#xd3;" horiz-adv-x="1892" 
d="M486.5 72q-194.5 92 -298.5 263.5t-104 404.5t103.5 404.5t298 263.5t460.5 92q265 0 459.5 -92.5t298.5 -264t104 -403.5t-104 -403.5t-298.5 -264t-459.5 -92.5t-459.5 92zM1227 447.5q97 99.5 97 284.5q0 195 -98.5 297.5t-279.5 102.5t-279.5 -98t-98.5 -286
q0 -200 96 -300t282 -100q184 0 281 99.5zM732 1586l204 316h488l-272 -316h-420z" />
    <glyph glyph-name="Ocircumflex" unicode="&#xd4;" horiz-adv-x="1892" 
d="M486.5 72q-194.5 92 -298.5 263.5t-104 404.5t103.5 404.5t298 263.5t460.5 92q265 0 459.5 -92.5t298.5 -264t104 -403.5t-104 -403.5t-298.5 -264t-459.5 -92.5t-459.5 92zM1227 447.5q97 99.5 97 284.5q0 195 -98.5 297.5t-279.5 102.5t-279.5 -98t-98.5 -286
q0 -200 96 -300t282 -100q184 0 281 99.5zM1470 1586h-364l-160 155l-160 -155h-364l332 316h384z" />
    <glyph glyph-name="Otilde" unicode="&#xd5;" horiz-adv-x="1892" 
d="M486.5 72q-194.5 92 -298.5 263.5t-104 404.5t103.5 404.5t298 263.5t460.5 92q265 0 459.5 -92.5t298.5 -264t104 -403.5t-104 -403.5t-298.5 -264t-459.5 -92.5t-459.5 92zM1227 447.5q97 99.5 97 284.5q0 195 -98.5 297.5t-279.5 102.5t-279.5 -98t-98.5 -286
q0 -200 96 -300t282 -100q184 0 281 99.5zM1044 1595q-46 9 -115 28q-60 17 -103 26t-90 9q-69 0 -122 -15t-112 -49v232q50 40 108 58t138 18q55 0 102.5 -9.5t112.5 -28.5q63 -18 104.5 -27t88.5 -9q69 0 122 15t112 49v-232q-50 -39 -107.5 -56.5t-138.5 -17.5
q-54 0 -100 9z" />
    <glyph glyph-name="Odieresis" unicode="&#xd6;" horiz-adv-x="1892" 
d="M486.5 72q-194.5 92 -298.5 263.5t-104 404.5t103.5 404.5t298 263.5t460.5 92q265 0 459.5 -92.5t298.5 -264t104 -403.5t-104 -403.5t-298.5 -264t-459.5 -92.5t-459.5 92zM1227 447.5q97 99.5 97 284.5q0 195 -98.5 297.5t-279.5 102.5t-279.5 -98t-98.5 -286
q0 -200 96 -300t282 -100q184 0 281 99.5zM477.5 1616.5q-55.5 46.5 -55.5 133.5t55.5 133.5t172.5 46.5t172.5 -46.5t55.5 -133.5t-55.5 -133.5t-172.5 -46.5t-172.5 46.5zM1069.5 1616.5q-55.5 46.5 -55.5 133.5t55.5 133.5t172.5 46.5t172.5 -46.5t55.5 -133.5
t-55.5 -133.5t-172.5 -46.5t-172.5 46.5z" />
    <glyph glyph-name="multiply" unicode="&#xd7;" horiz-adv-x="1128" 
d="M314 270l-240 240l250 250l-250 250l240 240l250 -250l250 250l240 -240l-250 -250l250 -250l-240 -240l-250 250z" />
    <glyph glyph-name="Oslash" unicode="&#xd8;" horiz-adv-x="1892" 
d="M1755.5 1039q52.5 -135 52.5 -299q0 -232 -104 -403.5t-298.5 -264t-459.5 -92.5q-270 0 -467 96l-129 -138l-168 154l108 115q-101 98 -153.5 233t-52.5 300q0 233 103.5 404.5t298 263.5t460.5 92q267 0 467 -96l129 138l168 -154l-108 -115q101 -99 153.5 -234z
M604 542l522 556q-75 34 -180 34q-181 0 -279.5 -98t-98.5 -286q0 -122 36 -206zM1227 447.5q97 99.5 97 284.5q0 117 -37 205l-522 -557q78 -32 181 -32q184 0 281 99.5z" />
    <glyph glyph-name="Ugrave" unicode="&#xd9;" horiz-adv-x="1756" 
d="M306 163q-182 183 -182 531v786h476v-824q0 -153 70 -226.5t212 -73.5t212 73.5t70 226.5v824h468v-786q0 -347 -181 -530.5t-569 -183.5q-394 0 -576 183zM672 1586l-272 316h488l204 -316h-420z" />
    <glyph glyph-name="Uacute" unicode="&#xda;" horiz-adv-x="1756" 
d="M306 163q-182 183 -182 531v786h476v-824q0 -153 70 -226.5t212 -73.5t212 73.5t70 226.5v824h468v-786q0 -347 -181 -530.5t-569 -183.5q-394 0 -576 183zM668 1586l204 316h488l-272 -316h-420z" />
    <glyph glyph-name="Ucircumflex" unicode="&#xdb;" horiz-adv-x="1756" 
d="M306 163q-182 183 -182 531v786h476v-824q0 -153 70 -226.5t212 -73.5t212 73.5t70 226.5v824h468v-786q0 -347 -181 -530.5t-569 -183.5q-394 0 -576 183zM1406 1586h-364l-160 155l-160 -155h-364l332 316h384z" />
    <glyph glyph-name="Udieresis" unicode="&#xdc;" horiz-adv-x="1756" 
d="M306 163q-182 183 -182 531v786h476v-824q0 -153 70 -226.5t212 -73.5t212 73.5t70 226.5v824h468v-786q0 -347 -181 -530.5t-569 -183.5q-394 0 -576 183zM413.5 1616.5q-55.5 46.5 -55.5 133.5t55.5 133.5t172.5 46.5t172.5 -46.5t55.5 -133.5t-55.5 -133.5
t-172.5 -46.5t-172.5 46.5zM1005.5 1616.5q-55.5 46.5 -55.5 133.5t55.5 133.5t172.5 46.5t172.5 -46.5t55.5 -133.5t-55.5 -133.5t-172.5 -46.5t-172.5 46.5z" />
    <glyph glyph-name="Yacute" unicode="&#xdd;" horiz-adv-x="1532" 
d="M1572 1480l-564 -872v-608h-476v602l-592 878h502l335 -507l327 507h468zM550 1586l204 316h488l-272 -316h-420z" />
    <glyph glyph-name="Thorn" unicode="&#xde;" horiz-adv-x="1538" 
d="M130 1480h476v-166l40 1q14 1 40 1q389 0 576.5 -134.5t187.5 -421.5q0 -276 -181.5 -416t-534.5 -140l-67 1q-22 1 -61 1v-206h-476v1480zM880.5 552q56.5 22 84 72.5t27.5 135.5q0 121 -64.5 175.5t-205.5 54.5q-65 0 -116 -8v-446q69 -6 128 -6q90 0 146.5 22z" />
    <glyph glyph-name="germandbls" unicode="&#xdf;" horiz-adv-x="1940" 
d="M1724.5 641q78.5 -36 120 -105t41.5 -180q0 -119 -72.5 -203.5t-216.5 -129.5t-355 -45q-94 0 -211 12t-207 34v306q84 -19 202.5 -33.5t207.5 -14.5q125 0 170.5 13t45.5 41q0 17 -12 25.5t-48 12.5l-236 30q-193 25 -276.5 107t-83.5 225q0 116 68.5 198.5t202 126.5
t327.5 45q-4 115 -90.5 174.5t-237.5 59.5q-370 0 -370 -372v-968h-464v728h-180v372h193q30 169 130.5 289t265 183.5t383.5 63.5q211 0 365.5 -69t238.5 -206t84 -335q0 -56 -7 -98.5t-25 -119.5q-87 6 -192 6q-107 0 -163 -8t-74.5 -20.5t-18.5 -29.5q0 -14 13 -22
t49 -12l236 -30q118 -15 196.5 -51z" />
    <glyph glyph-name="agrave" unicode="&#xe0;" horiz-adv-x="1344" 
d="M968 1067q139 -51 203.5 -169.5t64.5 -323.5v-574h-384l-30 90h-20q-109 -112 -314 -112q-140 0 -236.5 43.5t-145 119t-48.5 171.5q0 164 135 254.5t419 103.5l163 8q-16 60 -76.5 86t-186.5 26q-74 0 -168 -12t-172 -34v322q97 26 211 39t213 13q233 0 372 -51z
M782 300v144l-124 -6q-76 -4 -109 -26.5t-33 -61.5q0 -36 31.5 -57t92.5 -21q86 0 142 28zM448 1220l-326 396h508l258 -396h-440z" />
    <glyph glyph-name="aacute" unicode="&#xe1;" horiz-adv-x="1344" 
d="M968 1067q139 -51 203.5 -169.5t64.5 -323.5v-574h-384l-30 90h-20q-109 -112 -314 -112q-140 0 -236.5 43.5t-145 119t-48.5 171.5q0 164 135 254.5t419 103.5l163 8q-16 60 -76.5 86t-186.5 26q-74 0 -168 -12t-172 -34v322q97 26 211 39t213 13q233 0 372 -51z
M782 300v144l-124 -6q-76 -4 -109 -26.5t-33 -61.5q0 -36 31.5 -57t92.5 -21q86 0 142 28zM448 1220l258 396h508l-326 -396h-440z" />
    <glyph glyph-name="acircumflex" unicode="&#xe2;" horiz-adv-x="1344" 
d="M968 1067q139 -51 203.5 -169.5t64.5 -323.5v-574h-384l-30 90h-20q-109 -112 -314 -112q-140 0 -236.5 43.5t-145 119t-48.5 171.5q0 164 135 254.5t419 103.5l163 8q-16 60 -76.5 86t-186.5 26q-74 0 -168 -12t-172 -34v322q97 26 211 39t213 13q233 0 372 -51z
M782 300v144l-124 -6q-76 -4 -109 -26.5t-33 -61.5q0 -36 31.5 -57t92.5 -21q86 0 142 28zM1132 1220h-334l-130 187l-130 -187h-334l286 396h356z" />
    <glyph glyph-name="atilde" unicode="&#xe3;" horiz-adv-x="1344" 
d="M968 1067q139 -51 203.5 -169.5t64.5 -323.5v-574h-384l-30 90h-20q-109 -112 -314 -112q-140 0 -236.5 43.5t-145 119t-48.5 171.5q0 164 135 254.5t419 103.5l163 8q-16 60 -76.5 86t-186.5 26q-74 0 -168 -12t-172 -34v322q97 26 211 39t213 13q233 0 372 -51z
M782 300v144l-124 -6q-76 -4 -109 -26.5t-33 -61.5q0 -36 31.5 -57t92.5 -21q86 0 142 28zM754.5 1253.5q-43.5 13.5 -103.5 39.5q-56 24 -94.5 36.5t-78.5 12.5q-65 0 -117 -21.5t-109 -70.5v262q49 45 106 65.5t132 20.5q48 0 91.5 -13.5t103.5 -39.5q56 -24 94.5 -36.5
t78.5 -12.5q65 0 117 21.5t109 70.5v-262q-49 -45 -106 -65.5t-132 -20.5q-48 0 -91.5 13.5z" />
    <glyph glyph-name="adieresis" unicode="&#xe4;" horiz-adv-x="1344" 
d="M968 1067q139 -51 203.5 -169.5t64.5 -323.5v-574h-384l-30 90h-20q-109 -112 -314 -112q-140 0 -236.5 43.5t-145 119t-48.5 171.5q0 164 135 254.5t419 103.5l163 8q-16 60 -76.5 86t-186.5 26q-74 0 -168 -12t-172 -34v322q97 26 211 39t213 13q233 0 372 -51z
M782 300v144l-124 -6q-76 -4 -109 -26.5t-33 -61.5q0 -36 31.5 -57t92.5 -21q86 0 142 28zM205.5 1264q-57.5 54 -57.5 154t57.5 154t176.5 54t176.5 -54t57.5 -154t-57.5 -154t-176.5 -54t-176.5 54zM777.5 1264q-57.5 54 -57.5 154t57.5 154t176.5 54t176.5 -54t57.5 -154
t-57.5 -154t-176.5 -54t-176.5 54z" />
    <glyph glyph-name="aring" unicode="&#xe5;" horiz-adv-x="1344" 
d="M968 1067q139 -51 203.5 -169.5t64.5 -323.5v-574h-384l-30 90h-20q-109 -112 -314 -112q-140 0 -236.5 43.5t-145 119t-48.5 171.5q0 164 135 254.5t419 103.5l163 8q-16 60 -76.5 86t-186.5 26q-74 0 -168 -12t-172 -34v322q97 26 211 39t213 13q233 0 372 -51z
M782 300v144l-124 -6q-76 -4 -109 -26.5t-33 -61.5q0 -36 31.5 -57t92.5 -21q86 0 142 28zM551 1242.5q-52 28.5 -81.5 78.5t-29.5 113t29.5 113t81.5 78.5t117 28.5t117 -28.5t81.5 -78.5t29.5 -113t-29.5 -113t-81.5 -78.5t-117 -28.5t-117 28.5zM724.5 1374.5
q21.5 22.5 21.5 59.5t-21.5 59.5t-56.5 22.5t-56.5 -22.5t-21.5 -59.5t21.5 -59.5t56.5 -22.5t56.5 22.5z" />
    <glyph glyph-name="ae" unicode="&#xe6;" horiz-adv-x="2034" 
d="M1978 428h-739q8 -48 41 -75t106.5 -39t205.5 -12q139 0 310 24v-318q-177 -30 -384 -30q-196 0 -337 36t-231 109q-89 -72 -197.5 -108.5t-224.5 -36.5q-159 0 -264 43.5t-155.5 119t-50.5 173.5q0 169 136.5 261.5t417.5 92.5h165q-9 45 -38 71.5t-83.5 38.5t-143.5 12
q-74 0 -168 -12t-172 -34v322q99 26 203 39t201 13q163 0 275.5 -29t184.5 -93q74 59 172 90.5t214 31.5q178 0 302.5 -71t189 -203.5t64.5 -313.5v-102zM1277.5 803q-38.5 -43 -41.5 -135h316q-4 91 -42.5 134.5t-115.5 43.5q-78 0 -116.5 -43zM547.5 291.5
q31.5 -19.5 94.5 -19.5q50 0 90 11t83 38q-16 46 -26 111h-133q-75 0 -107.5 -22t-32.5 -62q0 -37 31.5 -56.5z" />
    <glyph glyph-name="ccedilla" unicode="&#xe7;" horiz-adv-x="1194" 
d="M615 707.5q-77 -54.5 -77 -161.5q0 -103 76.5 -157.5t225.5 -54.5q65 0 127 7.5t159 26.5v-348q-65 -19 -151.5 -30.5t-182.5 -11.5h-2v-52q90 -17 134 -66.5t44 -125.5q0 -91 -76.5 -142.5t-221.5 -51.5q-115 0 -208 32v154q37 -14 90 -22t96 -8q48 0 72 14t24 46
t-23.5 46t-70.5 14h-62v177q-255 40 -388.5 182t-133.5 371q0 180 85 308.5t252 196t409 67.5q176 0 314 -30v-348q-80 11 -140.5 16.5t-125.5 5.5q-168 0 -245 -54.5z" />
    <glyph glyph-name="egrave" unicode="&#xe8;" horiz-adv-x="1326" 
d="M1270 428h-747q8 -48 41.5 -75t108.5 -39t211 -12q139 0 310 24v-318q-177 -30 -384 -30q-259 0 -423 60.5t-242.5 186t-78.5 321.5q0 174 72 303t212 199t340 70q189 0 319 -71t195.5 -203t65.5 -314v-102zM562.5 803q-39.5 -43 -42.5 -135h324q-4 92 -43 135t-119 43
t-119.5 -43zM462 1220l-326 396h508l258 -396h-440z" />
    <glyph glyph-name="eacute" unicode="&#xe9;" horiz-adv-x="1326" 
d="M1270 428h-747q8 -48 41.5 -75t108.5 -39t211 -12q139 0 310 24v-318q-177 -30 -384 -30q-259 0 -423 60.5t-242.5 186t-78.5 321.5q0 174 72 303t212 199t340 70q189 0 319 -71t195.5 -203t65.5 -314v-102zM562.5 803q-39.5 -43 -42.5 -135h324q-4 92 -43 135t-119 43
t-119.5 -43zM462 1220l258 396h508l-326 -396h-440z" />
    <glyph glyph-name="ecircumflex" unicode="&#xea;" horiz-adv-x="1326" 
d="M1270 428h-747q8 -48 41.5 -75t108.5 -39t211 -12q139 0 310 24v-318q-177 -30 -384 -30q-259 0 -423 60.5t-242.5 186t-78.5 321.5q0 174 72 303t212 199t340 70q189 0 319 -71t195.5 -203t65.5 -314v-102zM562.5 803q-39.5 -43 -42.5 -135h324q-4 92 -43 135t-119 43
t-119.5 -43zM1146 1220h-334l-130 187l-130 -187h-334l286 396h356z" />
    <glyph glyph-name="edieresis" unicode="&#xeb;" horiz-adv-x="1326" 
d="M1270 428h-747q8 -48 41.5 -75t108.5 -39t211 -12q139 0 310 24v-318q-177 -30 -384 -30q-259 0 -423 60.5t-242.5 186t-78.5 321.5q0 174 72 303t212 199t340 70q189 0 319 -71t195.5 -203t65.5 -314v-102zM562.5 803q-39.5 -43 -42.5 -135h324q-4 92 -43 135t-119 43
t-119.5 -43zM219.5 1264q-57.5 54 -57.5 154t57.5 154t176.5 54t176.5 -54t57.5 -154t-57.5 -154t-176.5 -54t-176.5 54zM791.5 1264q-57.5 54 -57.5 154t57.5 154t176.5 54t176.5 -54t57.5 -154t-57.5 -154t-176.5 -54t-176.5 54z" />
    <glyph glyph-name="igrave" unicode="&#xec;" horiz-adv-x="696" 
d="M116 0v1100h464v-1100h-464zM128 1220l-326 396h508l258 -396h-440z" />
    <glyph glyph-name="iacute" unicode="&#xed;" horiz-adv-x="696" 
d="M116 0v1100h464v-1100h-464zM128 1220l258 396h508l-326 -396h-440z" />
    <glyph glyph-name="icircumflex" unicode="&#xee;" horiz-adv-x="696" 
d="M116 0v1100h464v-1100h-464zM812 1220h-334l-130 187l-130 -187h-334l286 396h356z" />
    <glyph glyph-name="idieresis" unicode="&#xef;" horiz-adv-x="696" 
d="M116 0v1100h464v-1100h-464zM-114.5 1264q-57.5 54 -57.5 154t57.5 154t176.5 54t176.5 -54t57.5 -154t-57.5 -154t-176.5 -54t-176.5 54zM457.5 1264q-57.5 54 -57.5 154t57.5 154t176.5 54t176.5 -54t57.5 -154t-57.5 -154t-176.5 -54t-176.5 54z" />
    <glyph glyph-name="eth" unicode="&#xf0;" horiz-adv-x="1464" 
d="M1337.5 962.5q66.5 -171.5 66.5 -333.5q0 -214 -79.5 -359.5t-229.5 -218.5t-363 -73q-202 0 -352.5 70t-232 199t-81.5 303q0 175 76.5 299.5t215 189.5t322.5 65q61 0 111 -10q-40 65 -90 125l-507 -79l-42 246l332 52q-124 103 -252 178h578q70 -48 136 -106l372 58
l42 -246l-208 -32q119 -156 185.5 -327.5zM888.5 381.5q51.5 55.5 51.5 168.5t-51.5 168.5t-156.5 55.5t-156.5 -55.5t-51.5 -168.5t51.5 -168.5t156.5 -55.5t156.5 55.5z" />
    <glyph glyph-name="ntilde" unicode="&#xf1;" horiz-adv-x="1462" 
d="M116 1100h378l28 -96h20q65 54 156.5 84t195.5 30q212 0 336 -125.5t124 -384.5v-608h-464v582q0 84 -32.5 118t-101.5 34q-52 0 -98.5 -17.5t-77.5 -46.5v-670h-464v1100zM822.5 1253.5q-43.5 13.5 -103.5 39.5q-56 24 -94.5 36.5t-78.5 12.5q-65 0 -117 -21.5
t-109 -70.5v262q49 45 106 65.5t132 20.5q48 0 91.5 -13.5t103.5 -39.5q56 -24 94.5 -36.5t78.5 -12.5q65 0 117 21.5t109 70.5v-262q-49 -45 -106 -65.5t-132 -20.5q-48 0 -91.5 13.5z" />
    <glyph glyph-name="ograve" unicode="&#xf2;" horiz-adv-x="1464" 
d="M381.5 47q-150.5 69 -233 198t-82.5 305q0 177 78 305t228 195.5t360 67.5t360 -67.5t228 -195.5t78 -305q0 -176 -82.5 -305t-233 -198t-350.5 -69t-350.5 69zM887.5 381q52.5 55 52.5 169t-52 167t-156 53t-156 -53t-52 -167t52.5 -169t155.5 -55t155.5 55zM512 1220
l-326 396h508l258 -396h-440z" />
    <glyph glyph-name="oacute" unicode="&#xf3;" horiz-adv-x="1464" 
d="M381.5 47q-150.5 69 -233 198t-82.5 305q0 177 78 305t228 195.5t360 67.5t360 -67.5t228 -195.5t78 -305q0 -176 -82.5 -305t-233 -198t-350.5 -69t-350.5 69zM887.5 381q52.5 55 52.5 169t-52 167t-156 53t-156 -53t-52 -167t52.5 -169t155.5 -55t155.5 55zM512 1220
l258 396h508l-326 -396h-440z" />
    <glyph glyph-name="ocircumflex" unicode="&#xf4;" horiz-adv-x="1464" 
d="M381.5 47q-150.5 69 -233 198t-82.5 305q0 177 78 305t228 195.5t360 67.5t360 -67.5t228 -195.5t78 -305q0 -176 -82.5 -305t-233 -198t-350.5 -69t-350.5 69zM887.5 381q52.5 55 52.5 169t-52 167t-156 53t-156 -53t-52 -167t52.5 -169t155.5 -55t155.5 55zM1196 1220
h-334l-130 187l-130 -187h-334l286 396h356z" />
    <glyph glyph-name="otilde" unicode="&#xf5;" horiz-adv-x="1464" 
d="M381.5 47q-150.5 69 -233 198t-82.5 305q0 177 78 305t228 195.5t360 67.5t360 -67.5t228 -195.5t78 -305q0 -176 -82.5 -305t-233 -198t-350.5 -69t-350.5 69zM887.5 381q52.5 55 52.5 169t-52 167t-156 53t-156 -53t-52 -167t52.5 -169t155.5 -55t155.5 55z
M818.5 1253.5q-43.5 13.5 -103.5 39.5q-56 24 -94.5 36.5t-78.5 12.5q-65 0 -117 -21.5t-109 -70.5v262q49 45 106 65.5t132 20.5q48 0 91.5 -13.5t103.5 -39.5q56 -24 94.5 -36.5t78.5 -12.5q65 0 117 21.5t109 70.5v-262q-49 -45 -106 -65.5t-132 -20.5q-48 0 -91.5 13.5z
" />
    <glyph glyph-name="odieresis" unicode="&#xf6;" horiz-adv-x="1464" 
d="M381.5 47q-150.5 69 -233 198t-82.5 305q0 177 78 305t228 195.5t360 67.5t360 -67.5t228 -195.5t78 -305q0 -176 -82.5 -305t-233 -198t-350.5 -69t-350.5 69zM887.5 381q52.5 55 52.5 169t-52 167t-156 53t-156 -53t-52 -167t52.5 -169t155.5 -55t155.5 55zM269.5 1264
q-57.5 54 -57.5 154t57.5 154t176.5 54t176.5 -54t57.5 -154t-57.5 -154t-176.5 -54t-176.5 54zM841.5 1264q-57.5 54 -57.5 154t57.5 154t176.5 54t176.5 -54t57.5 -154t-57.5 -154t-176.5 -54t-176.5 54z" />
    <glyph glyph-name="divide" unicode="&#xf7;" horiz-adv-x="1196" 
d="M401 1057q-71 63 -71 173q0 111 70 173.5t198 62.5q127 0 197.5 -64t70.5 -172q0 -71 -32 -124.5t-92.5 -82.5t-143.5 -29q-126 0 -197 63zM114 590v340h968v-340h-968zM401 117q-71 63 -71 173q0 111 70 173.5t198 62.5q127 0 197.5 -64t70.5 -172q0 -71 -32 -124.5
t-92.5 -82.5t-143.5 -29q-126 0 -197 63z" />
    <glyph glyph-name="oslash" unicode="&#xf8;" horiz-adv-x="1464" 
d="M1349.5 798.5q48.5 -109.5 48.5 -248.5q0 -176 -82.5 -305t-233 -198t-350.5 -69q-158 0 -287 44l-89 -112l-158 130l64 80q-95 74 -145.5 183.5t-50.5 246.5q0 177 78 305t228 195.5t360 67.5q162 0 290 -41l90 113l158 -130l-63 -79q94 -73 142.5 -182.5zM572.5 720.5
q-52.5 -53.5 -52.5 -170.5q0 -62 15 -109l260 328q-32 5 -63 5q-107 0 -159.5 -53.5zM891 377.5q53 55.5 53 172.5q0 60 -14 105l-260 -328q32 -5 62 -5q106 0 159 55.5z" />
    <glyph glyph-name="ugrave" unicode="&#xf9;" horiz-adv-x="1452" 
d="M236 107q-128 125 -128 385v608h464v-582q0 -84 31.5 -118t96.5 -34q49 0 95.5 17.5t76.5 46.5v670h464v-1100h-378l-28 96h-16q-68 -55 -152.5 -84.5t-175.5 -29.5q-222 0 -350 125zM502 1220l-326 396h508l258 -396h-440z" />
    <glyph glyph-name="uacute" unicode="&#xfa;" horiz-adv-x="1452" 
d="M236 107q-128 125 -128 385v608h464v-582q0 -84 31.5 -118t96.5 -34q49 0 95.5 17.5t76.5 46.5v670h464v-1100h-378l-28 96h-16q-68 -55 -152.5 -84.5t-175.5 -29.5q-222 0 -350 125zM502 1220l258 396h508l-326 -396h-440z" />
    <glyph glyph-name="ucircumflex" unicode="&#xfb;" horiz-adv-x="1452" 
d="M236 107q-128 125 -128 385v608h464v-582q0 -84 31.5 -118t96.5 -34q49 0 95.5 17.5t76.5 46.5v670h464v-1100h-378l-28 96h-16q-68 -55 -152.5 -84.5t-175.5 -29.5q-222 0 -350 125zM1186 1220h-334l-130 187l-130 -187h-334l286 396h356z" />
    <glyph glyph-name="udieresis" unicode="&#xfc;" horiz-adv-x="1452" 
d="M236 107q-128 125 -128 385v608h464v-582q0 -84 31.5 -118t96.5 -34q49 0 95.5 17.5t76.5 46.5v670h464v-1100h-378l-28 96h-16q-68 -55 -152.5 -84.5t-175.5 -29.5q-222 0 -350 125zM259.5 1264q-57.5 54 -57.5 154t57.5 154t176.5 54t176.5 -54t57.5 -154t-57.5 -154
t-176.5 -54t-176.5 54zM831.5 1264q-57.5 54 -57.5 154t57.5 154t176.5 54t176.5 -54t57.5 -154t-57.5 -154t-176.5 -54t-176.5 54z" />
    <glyph glyph-name="yacute" unicode="&#xfd;" horiz-adv-x="1424" 
d="M986 1100h452l-628 -1540h-452l182 440h-108l-446 1100h488l256 -697zM492 1220l258 396h508l-326 -396h-440z" />
    <glyph glyph-name="thorn" unicode="&#xfe;" horiz-adv-x="1490" 
d="M116 1616h464v-610h20q124 112 326 112q138 0 251 -61t180 -184t67 -299q0 -185 -82 -319.5t-234 -205.5t-358 -71q-70 0 -170 8v-426h-464v2056zM904.5 376q61.5 56 61.5 168q0 210 -208 210q-50 0 -97 -12t-81 -36v-374q72 -12 136 -12q127 0 188.5 56z" />
    <glyph glyph-name="ydieresis" unicode="&#xff;" horiz-adv-x="1424" 
d="M986 1100h452l-628 -1540h-452l182 440h-108l-446 1100h488l256 -697zM249.5 1264q-57.5 54 -57.5 154t57.5 154t176.5 54t176.5 -54t57.5 -154t-57.5 -154t-176.5 -54t-176.5 54zM821.5 1264q-57.5 54 -57.5 154t57.5 154t176.5 54t176.5 -54t57.5 -154t-57.5 -154
t-176.5 -54t-176.5 54z" />
    <glyph glyph-name="Amacron" unicode="&#x100;" horiz-adv-x="1760" 
d="M1280 0l-110 334h-584l-110 -334h-460l520 1480h688l520 -1480h-464zM701 684h354l-177 539zM434 1620v250h888v-250h-888z" />
    <glyph glyph-name="amacron" unicode="&#x101;" horiz-adv-x="1344" 
d="M968 1067q139 -51 203.5 -169.5t64.5 -323.5v-574h-384l-30 90h-20q-109 -112 -314 -112q-140 0 -236.5 43.5t-145 119t-48.5 171.5q0 164 135 254.5t419 103.5l163 8q-16 60 -76.5 86t-186.5 26q-74 0 -168 -12t-172 -34v322q97 26 211 39t213 13q233 0 372 -51z
M782 300v144l-124 -6q-76 -4 -109 -26.5t-33 -61.5q0 -36 31.5 -57t92.5 -21q86 0 142 28zM252 1294v250h832v-250h-832z" />
    <glyph glyph-name="Abreve" unicode="&#x102;" horiz-adv-x="1760" 
d="M1280 0l-110 334h-584l-110 -334h-460l520 1480h688l520 -1480h-464zM701 684h354l-177 539zM537.5 1673q-119.5 87 -143.5 229h274q16 -50 67.5 -79t142.5 -29t142.5 29t67.5 79h274q-24 -142 -143.5 -229t-340.5 -87t-340.5 87z" />
    <glyph glyph-name="abreve" unicode="&#x103;" horiz-adv-x="1344" 
d="M968 1067q139 -51 203.5 -169.5t64.5 -323.5v-574h-384l-30 90h-20q-109 -112 -314 -112q-140 0 -236.5 43.5t-145 119t-48.5 171.5q0 164 135 254.5t419 103.5l163 8q-16 60 -76.5 86t-186.5 26q-74 0 -168 -12t-172 -34v322q97 26 211 39t213 13q233 0 372 -51z
M782 300v144l-124 -6q-76 -4 -109 -26.5t-33 -61.5q0 -36 31.5 -57t92.5 -21q86 0 142 28zM336.5 1322q-117.5 98 -128.5 274h270q9 -76 55 -115t135 -39t135 39t55 115h270q-11 -176 -128.5 -274t-331.5 -98t-331.5 98z" />
    <glyph glyph-name="Aogonek" unicode="&#x104;" horiz-adv-x="1760" 
d="M1778 -270v-160q-97 -30 -204 -30q-165 0 -248.5 60.5t-83.5 165.5q0 147 162 234h-124l-110 334h-584l-110 -334h-460l520 1480h688l520 -1480q-133 -43 -189.5 -90.5t-56.5 -105.5q0 -47 36 -72.5t112 -25.5q57 0 132 24zM701 684h354l-177 539z" />
    <glyph glyph-name="aogonek" unicode="&#x105;" horiz-adv-x="1344" 
d="M1256 -270v-160q-45 -15 -88 -22.5t-102 -7.5q-154 0 -233 60.5t-79 165.5q0 71 35 129.5t116 104.5h-53l-30 90h-20q-109 -112 -314 -112q-140 0 -236.5 43.5t-145 119t-48.5 171.5q0 164 135 254.5t419 103.5l163 8q-16 60 -76.5 86t-186.5 26q-74 0 -168 -12t-172 -34
v322q97 26 211 39t213 13q233 0 372 -51t203.5 -169.5t64.5 -323.5v-574q-125 -43 -175.5 -90.5t-50.5 -109.5q0 -43 32.5 -68.5t95.5 -25.5q59 0 118 24zM782 300v144l-124 -6q-76 -4 -109 -26.5t-33 -61.5q0 -36 31.5 -57t92.5 -21q86 0 142 28z" />
    <glyph glyph-name="Cacute" unicode="&#x106;" horiz-adv-x="1488" 
d="M327 172q-243 192 -243 564q0 235 110.5 406.5t328.5 264.5t535 93q192 0 358 -32v-376q-152 28 -318 28q-270 0 -393 -95.5t-123 -284.5q0 -188 119.5 -284t376.5 -96q162 0 338 36v-376q-84 -19 -179.5 -29.5t-188.5 -10.5q-478 0 -721 192zM666 1586l204 316h488
l-272 -316h-420z" />
    <glyph glyph-name="cacute" unicode="&#x107;" horiz-adv-x="1194" 
d="M394.5 44.5q-162.5 66.5 -245.5 194t-83 307.5t85 308.5t252 196t409 67.5q176 0 314 -30v-348q-80 11 -140.5 16.5t-125.5 5.5q-168 0 -245 -54.5t-77 -161.5q0 -103 76.5 -157.5t225.5 -54.5q65 0 127 7.5t159 26.5v-348q-65 -19 -151.5 -30.5t-182.5 -11.5
q-235 0 -397.5 66.5zM428 1220l258 396h508l-326 -396h-440z" />
    <glyph glyph-name="Ccircumflex" unicode="&#x108;" horiz-adv-x="1488" 
d="M327 172q-243 192 -243 564q0 235 110.5 406.5t328.5 264.5t535 93q192 0 358 -32v-376q-152 28 -318 28q-270 0 -393 -95.5t-123 -284.5q0 -188 119.5 -284t376.5 -96q162 0 338 36v-376q-84 -19 -179.5 -29.5t-188.5 -10.5q-478 0 -721 192zM1404 1586h-364l-160 155
l-160 -155h-364l332 316h384z" />
    <glyph glyph-name="ccircumflex" unicode="&#x109;" horiz-adv-x="1194" 
d="M394.5 44.5q-162.5 66.5 -245.5 194t-83 307.5t85 308.5t252 196t409 67.5q176 0 314 -30v-348q-80 11 -140.5 16.5t-125.5 5.5q-168 0 -245 -54.5t-77 -161.5q0 -103 76.5 -157.5t225.5 -54.5q65 0 127 7.5t159 26.5v-348q-65 -19 -151.5 -30.5t-182.5 -11.5
q-235 0 -397.5 66.5zM1112 1220h-334l-130 187l-130 -187h-334l286 396h356z" />
    <glyph glyph-name="Cdotaccent" unicode="&#x10a;" horiz-adv-x="1488" 
d="M327 172q-243 192 -243 564q0 235 110.5 406.5t328.5 264.5t535 93q192 0 358 -32v-376q-152 28 -318 28q-270 0 -393 -95.5t-123 -284.5q0 -188 119.5 -284t376.5 -96q162 0 338 36v-376q-84 -19 -179.5 -29.5t-188.5 -10.5q-478 0 -721 192zM677 1618q-65 48 -65 132
t65 132t203 48t203 -48t65 -132t-65 -132t-203 -48t-203 48z" />
    <glyph glyph-name="cdotaccent" unicode="&#x10b;" horiz-adv-x="1194" 
d="M394.5 44.5q-162.5 66.5 -245.5 194t-83 307.5t85 308.5t252 196t409 67.5q176 0 314 -30v-348q-80 11 -140.5 16.5t-125.5 5.5q-168 0 -245 -54.5t-77 -161.5q0 -103 76.5 -157.5t225.5 -54.5q65 0 127 7.5t159 26.5v-348q-65 -19 -151.5 -30.5t-182.5 -11.5
q-235 0 -397.5 66.5zM441 1259.5q-67 53.5 -67 158.5t67 158.5t207 53.5t207 -53.5t67 -158.5t-67 -158.5t-207 -53.5t-207 53.5z" />
    <glyph glyph-name="Ccaron" unicode="&#x10c;" horiz-adv-x="1488" 
d="M327 172q-243 192 -243 564q0 235 110.5 406.5t328.5 264.5t535 93q192 0 358 -32v-376q-152 28 -318 28q-270 0 -393 -95.5t-123 -284.5q0 -188 119.5 -284t376.5 -96q162 0 338 36v-376q-84 -19 -179.5 -29.5t-188.5 -10.5q-478 0 -721 192zM1040 1902h364l-332 -316
h-384l-332 316h364l160 -155z" />
    <glyph glyph-name="ccaron" unicode="&#x10d;" horiz-adv-x="1194" 
d="M394.5 44.5q-162.5 66.5 -245.5 194t-83 307.5t85 308.5t252 196t409 67.5q176 0 314 -30v-348q-80 11 -140.5 16.5t-125.5 5.5q-168 0 -245 -54.5t-77 -161.5q0 -103 76.5 -157.5t225.5 -54.5q65 0 127 7.5t159 26.5v-348q-65 -19 -151.5 -30.5t-182.5 -11.5
q-235 0 -397.5 66.5zM778 1616h334l-286 -396h-356l-286 396h334l130 -187z" />
    <glyph glyph-name="Dcaron" unicode="&#x10e;" horiz-adv-x="1800" 
d="M379.5 -7q-137.5 7 -249.5 21v1418q120 28 289 45t321 17q486 0 731 -185t245 -569q0 -269 -118 -435t-356.5 -242.5t-609.5 -76.5q-115 0 -252.5 7zM1031 396q103 40 152 125t49 223q0 198 -114.5 290t-355.5 92q-34 0 -78.5 -4t-77.5 -10v-752q48 -4 156 -4
q166 0 269 40zM934 1902h364l-332 -316h-384l-332 316h364l160 -155z" />
    <glyph glyph-name="dcaron" unicode="&#x10f;" horiz-adv-x="1490" 
d="M330 40q-121 58 -192.5 180t-71.5 306q0 185 82 319.5t234 205.5t358 71q70 0 170 -8v502h464v-1616h-386l-24 106h-20q-65 -58 -151 -91t-191 -33q-151 0 -272 58zM829 358q47 12 81 36v374q-72 12 -136 12q-127 0 -188.5 -56t-61.5 -168q0 -210 208 -210q50 0 97 12z
M1466 1395q8 99 8 221h294q0 -124 -24 -237.5t-66 -198.5h-240q20 116 28 215z" />
    <glyph glyph-name="Dcroat" unicode="&#x110;" horiz-adv-x="1800" 
d="M1471 1309q245 -185 245 -569q0 -269 -118 -435t-356.5 -242.5t-609.5 -76.5q-115 0 -252.5 7t-249.5 21v608h-122v280h122v530q120 28 289 45t321 17q486 0 731 -185zM1031 396q103 40 152 125t49 223q0 198 -114.5 290t-355.5 92q-34 0 -78.5 -4t-77.5 -10v-210h274
v-280h-274v-262q48 -4 156 -4q166 0 269 40z" />
    <glyph glyph-name="dcroat" unicode="&#x111;" horiz-adv-x="1490" 
d="M1488 1226h-114v-1226h-386l-24 106h-20q-65 -58 -151 -91t-191 -33q-151 0 -272 58t-192.5 180t-71.5 306q0 185 82 319.5t234 205.5t358 71q70 0 170 -8v112h-422v260h422v130h464v-130h114v-260zM910 768q-72 12 -136 12q-127 0 -188.5 -56t-61.5 -168
q0 -210 208 -210q50 0 97 12t81 36v374z" />
    <glyph glyph-name="Emacron" unicode="&#x112;" horiz-adv-x="1498" 
d="M600 350h812v-350h-1282v1480h1272v-350h-802v-200h696v-350h-696v-230zM344 1620v250h888v-250h-888z" />
    <glyph glyph-name="emacron" unicode="&#x113;" horiz-adv-x="1326" 
d="M1270 428h-747q8 -48 41.5 -75t108.5 -39t211 -12q139 0 310 24v-318q-177 -30 -384 -30q-259 0 -423 60.5t-242.5 186t-78.5 321.5q0 174 72 303t212 199t340 70q189 0 319 -71t195.5 -203t65.5 -314v-102zM562.5 803q-39.5 -43 -42.5 -135h324q-4 92 -43 135t-119 43
t-119.5 -43zM266 1294v250h832v-250h-832z" />
    <glyph glyph-name="Ebreve" unicode="&#x114;" horiz-adv-x="1498" 
d="M600 350h812v-350h-1282v1480h1272v-350h-802v-200h696v-350h-696v-230zM447.5 1673q-119.5 87 -143.5 229h274q16 -50 67.5 -79t142.5 -29t142.5 29t67.5 79h274q-24 -142 -143.5 -229t-340.5 -87t-340.5 87z" />
    <glyph glyph-name="ebreve" unicode="&#x115;" horiz-adv-x="1326" 
d="M1270 428h-747q8 -48 41.5 -75t108.5 -39t211 -12q139 0 310 24v-318q-177 -30 -384 -30q-259 0 -423 60.5t-242.5 186t-78.5 321.5q0 174 72 303t212 199t340 70q189 0 319 -71t195.5 -203t65.5 -314v-102zM562.5 803q-39.5 -43 -42.5 -135h324q-4 92 -43 135t-119 43
t-119.5 -43zM350.5 1322q-117.5 98 -128.5 274h270q9 -76 55 -115t135 -39t135 39t55 115h270q-11 -176 -128.5 -274t-331.5 -98t-331.5 98z" />
    <glyph glyph-name="Edotaccent" unicode="&#x116;" horiz-adv-x="1498" 
d="M600 350h812v-350h-1282v1480h1272v-350h-802v-200h696v-350h-696v-230zM585 1618q-65 48 -65 132t65 132t203 48t203 -48t65 -132t-65 -132t-203 -48t-203 48z" />
    <glyph glyph-name="edotaccent" unicode="&#x117;" horiz-adv-x="1326" 
d="M1270 428h-747q8 -48 41.5 -75t108.5 -39t211 -12q139 0 310 24v-318q-177 -30 -384 -30q-259 0 -423 60.5t-242.5 186t-78.5 321.5q0 174 72 303t212 199t340 70q189 0 319 -71t195.5 -203t65.5 -314v-102zM562.5 803q-39.5 -43 -42.5 -135h324q-4 92 -43 135t-119 43
t-119.5 -43zM475 1259.5q-67 53.5 -67 158.5t67 158.5t207 53.5t207 -53.5t67 -158.5t-67 -158.5t-207 -53.5t-207 53.5z" />
    <glyph glyph-name="Eogonek" unicode="&#x118;" horiz-adv-x="1498" 
d="M1122.5 -90.5q-56.5 -47.5 -56.5 -105.5q0 -47 36 -72.5t112 -25.5q57 0 132 24v-160q-97 -30 -204 -30q-165 0 -248.5 60.5t-83.5 165.5q0 147 162 234h-842v1480h1272v-350h-802v-200h696v-350h-696v-230h812v-350h-100q-133 -43 -189.5 -90.5z" />
    <glyph glyph-name="eogonek" unicode="&#x119;" horiz-adv-x="1326" 
d="M1270 428h-747q8 -48 41.5 -75t108.5 -39t211 -12q139 0 310 24v-318q-134 -41 -190 -92.5t-56 -115.5q0 -43 32.5 -68.5t95.5 -25.5q59 0 118 24v-160q-45 -15 -88 -22.5t-102 -7.5q-154 0 -233 60.5t-79 165.5q0 131 116 212q-259 0 -422.5 60.5t-241.5 186t-78 321.5
q0 174 72 303t212 199t340 70q189 0 319 -71t195.5 -203t65.5 -314v-102zM562.5 793q-39.5 -43 -42.5 -135h324q-4 92 -43 135t-119 43t-119.5 -43z" />
    <glyph glyph-name="Ecaron" unicode="&#x11a;" horiz-adv-x="1498" 
d="M600 350h812v-350h-1282v1480h1272v-350h-802v-200h696v-350h-696v-230zM948 1902h364l-332 -316h-384l-332 316h364l160 -155z" />
    <glyph glyph-name="ecaron" unicode="&#x11b;" horiz-adv-x="1326" 
d="M1270 428h-747q8 -48 41.5 -75t108.5 -39t211 -12q139 0 310 24v-318q-177 -30 -384 -30q-259 0 -423 60.5t-242.5 186t-78.5 321.5q0 174 72 303t212 199t340 70q189 0 319 -71t195.5 -203t65.5 -314v-102zM562.5 803q-39.5 -43 -42.5 -135h324q-4 92 -43 135t-119 43
t-119.5 -43zM812 1616h334l-286 -396h-356l-286 396h334l130 -187z" />
    <glyph glyph-name="Gcircumflex" unicode="&#x11c;" horiz-adv-x="1678" 
d="M1540 720v-700q-243 -40 -444 -40q-511 0 -761.5 190t-250.5 562q0 238 114 410t345.5 265t576.5 93q87 0 182.5 -8t179.5 -24v-376q-152 28 -326 28q-210 -1 -337.5 -45.5t-184 -131t-56.5 -219.5q0 -177 119.5 -272.5t370.5 -95.5h30v364h442zM1464 1586h-364l-160 155
l-160 -155h-364l332 316h384z" />
    <glyph glyph-name="gcircumflex" unicode="&#x11d;" horiz-adv-x="1490" 
d="M380.5 -448.5q-115.5 11.5 -232.5 38.5v348q118 -29 234 -43.5t206 -14.5q175 0 248.5 47.5t73.5 144.5v46h-20q-124 -112 -326 -112q-136 0 -249.5 62t-181 179.5t-67.5 278.5q0 183 85 316t253 204.5t412 71.5q142 0 294.5 -19t263.5 -53v-882q0 -216 -79.5 -353.5
t-245 -204t-425.5 -66.5q-128 0 -243.5 11.5zM826.5 379.5q45.5 9.5 83.5 28.5v356q-63 14 -134 14q-123 0 -187.5 -55.5t-64.5 -160.5q0 -192 210 -192q47 0 92.5 9.5zM1244 1220h-334l-130 187l-130 -187h-334l286 396h356z" />
    <glyph glyph-name="Gbreve" unicode="&#x11e;" horiz-adv-x="1678" 
d="M1540 720v-700q-243 -40 -444 -40q-511 0 -761.5 190t-250.5 562q0 238 114 410t345.5 265t576.5 93q87 0 182.5 -8t179.5 -24v-376q-152 28 -326 28q-210 -1 -337.5 -45.5t-184 -131t-56.5 -219.5q0 -177 119.5 -272.5t370.5 -95.5h30v364h442zM599.5 1673
q-119.5 87 -143.5 229h274q16 -50 67.5 -79t142.5 -29t142.5 29t67.5 79h274q-24 -142 -143.5 -229t-340.5 -87t-340.5 87z" />
    <glyph glyph-name="gbreve" unicode="&#x11f;" horiz-adv-x="1490" 
d="M380.5 -448.5q-115.5 11.5 -232.5 38.5v348q118 -29 234 -43.5t206 -14.5q175 0 248.5 47.5t73.5 144.5v46h-20q-124 -112 -326 -112q-136 0 -249.5 62t-181 179.5t-67.5 278.5q0 183 85 316t253 204.5t412 71.5q142 0 294.5 -19t263.5 -53v-882q0 -216 -79.5 -353.5
t-245 -204t-425.5 -66.5q-128 0 -243.5 11.5zM826.5 379.5q45.5 9.5 83.5 28.5v356q-63 14 -134 14q-123 0 -187.5 -55.5t-64.5 -160.5q0 -192 210 -192q47 0 92.5 9.5zM448.5 1322q-117.5 98 -128.5 274h270q9 -76 55 -115t135 -39t135 39t55 115h270q-11 -176 -128.5 -274
t-331.5 -98t-331.5 98z" />
    <glyph glyph-name="Gdotaccent" unicode="&#x120;" horiz-adv-x="1678" 
d="M1540 720v-700q-243 -40 -444 -40q-511 0 -761.5 190t-250.5 562q0 238 114 410t345.5 265t576.5 93q87 0 182.5 -8t179.5 -24v-376q-152 28 -326 28q-210 -1 -337.5 -45.5t-184 -131t-56.5 -219.5q0 -177 119.5 -272.5t370.5 -95.5h30v364h442zM737 1618q-65 48 -65 132
t65 132t203 48t203 -48t65 -132t-65 -132t-203 -48t-203 48z" />
    <glyph glyph-name="gdotaccent" unicode="&#x121;" horiz-adv-x="1490" 
d="M380.5 -448.5q-115.5 11.5 -232.5 38.5v348q118 -29 234 -43.5t206 -14.5q175 0 248.5 47.5t73.5 144.5v46h-20q-124 -112 -326 -112q-136 0 -249.5 62t-181 179.5t-67.5 278.5q0 183 85 316t253 204.5t412 71.5q142 0 294.5 -19t263.5 -53v-882q0 -216 -79.5 -353.5
t-245 -204t-425.5 -66.5q-128 0 -243.5 11.5zM826.5 379.5q45.5 9.5 83.5 28.5v356q-63 14 -134 14q-123 0 -187.5 -55.5t-64.5 -160.5q0 -192 210 -192q47 0 92.5 9.5zM573 1259.5q-67 53.5 -67 158.5t67 158.5t207 53.5t207 -53.5t67 -158.5t-67 -158.5t-207 -53.5
t-207 53.5z" />
    <glyph glyph-name="Gcommaaccent" unicode="&#x122;" horiz-adv-x="1678" 
d="M1540 720v-700q-243 -40 -444 -40q-511 0 -761.5 190t-250.5 562q0 238 114 410t345.5 265t576.5 93q87 0 182.5 -8t179.5 -24v-376q-152 28 -326 28q-210 -1 -337.5 -45.5t-184 -131t-56.5 -219.5q0 -177 119.5 -272.5t370.5 -95.5h30v364h442zM1188 -282
q0 -62 -26.5 -127.5t-69.5 -110.5h-280q49 84 64 148q-98 8 -141 41.5t-43 90.5q0 67 60 101.5t188 34.5q248 0 248 -178z" />
    <glyph glyph-name="gcommaaccent" unicode="&#x123;" horiz-adv-x="1490" 
d="M380.5 -448.5q-115.5 11.5 -232.5 38.5v348q118 -29 234 -43.5t206 -14.5q175 0 248.5 47.5t73.5 144.5v46h-20q-124 -112 -326 -112q-136 0 -249.5 62t-181 179.5t-67.5 278.5q0 183 85 316t253 204.5t412 71.5q142 0 294.5 -19t263.5 -53v-882q0 -216 -79.5 -353.5
t-245 -204t-425.5 -66.5q-128 0 -243.5 11.5zM826.5 379.5q45.5 9.5 83.5 28.5v356q-63 14 -134 14q-123 0 -187.5 -55.5t-64.5 -160.5q0 -192 210 -192q47 0 92.5 9.5zM985 1438.5q43 -33.5 43 -90.5q0 -67 -60 -101.5t-188 -34.5q-248 0 -248 178q0 62 26.5 127.5
t69.5 110.5h280q-49 -84 -64 -148q98 -8 141 -41.5z" />
    <glyph glyph-name="Hcircumflex" unicode="&#x124;" horiz-adv-x="1794" 
d="M130 0v1480h476v-524h582v524h476v-1480h-476v554h-582v-554h-476zM1422 1586h-364l-160 155l-160 -155h-364l332 316h384z" />
    <glyph glyph-name="hcircumflex" unicode="&#x125;" horiz-adv-x="1462" 
d="M116 1616h464v-610h20q62 55 144 83.5t172 28.5q128 0 226 -54t155 -168t57 -288v-608h-464v582q0 84 -32.5 118t-101.5 34q-52 0 -98.5 -17.5t-77.5 -46.5v-670h-464v1616zM1260 1682h-364l-160 155l-160 -155h-364l332 316h384z" />
    <glyph glyph-name="Hbar" unicode="&#x126;" horiz-adv-x="1794" 
d="M1786 1362v-280h-122v-1082h-476v554h-582v-554h-476v1082h-122v280h122v118h476v-118h582v118h476v-118h122zM1188 956v126h-582v-126h582z" />
    <glyph glyph-name="hbar" unicode="&#x127;" horiz-adv-x="1462" 
d="M1142 1064q98 -54 155 -168t57 -288v-608h-464v582q0 84 -32.5 118t-101.5 34q-52 0 -98.5 -17.5t-77.5 -46.5v-670h-464v1220h-114v260h114v136h464v-136h422v-260h-422v-214h20q62 55 144 83.5t172 28.5q128 0 226 -54z" />
    <glyph glyph-name="Itilde" unicode="&#x128;" horiz-adv-x="736" 
d="M130 0v1480h476v-1480h-476zM466 1595q-46 9 -115 28q-60 17 -103 26t-90 9q-69 0 -122 -15t-112 -49v232q50 40 108 58t138 18q55 0 102.5 -9.5t112.5 -28.5q63 -18 104.5 -27t88.5 -9q69 0 122 15t112 49v-232q-50 -39 -107.5 -56.5t-138.5 -17.5q-54 0 -100 9z" />
    <glyph glyph-name="itilde" unicode="&#x129;" horiz-adv-x="696" 
d="M116 0v1100h464v-1100h-464zM434.5 1253.5q-43.5 13.5 -103.5 39.5q-56 24 -94.5 36.5t-78.5 12.5q-65 0 -117 -21.5t-109 -70.5v262q49 45 106 65.5t132 20.5q48 0 91.5 -13.5t103.5 -39.5q56 -24 94.5 -36.5t78.5 -12.5q65 0 117 21.5t109 70.5v-262
q-49 -45 -106 -65.5t-132 -20.5q-48 0 -91.5 13.5z" />
    <glyph glyph-name="Imacron" unicode="&#x12a;" horiz-adv-x="736" 
d="M130 0v1480h476v-1480h-476zM-76 1620v250h888v-250h-888z" />
    <glyph glyph-name="imacron" unicode="&#x12b;" horiz-adv-x="696" 
d="M116 0v1100h464v-1100h-464zM-68 1294v250h832v-250h-832z" />
    <glyph glyph-name="Ibreve" unicode="&#x12c;" horiz-adv-x="736" 
d="M130 0v1480h476v-1480h-476zM27.5 1673q-119.5 87 -143.5 229h274q16 -50 67.5 -79t142.5 -29t142.5 29t67.5 79h274q-24 -142 -143.5 -229t-340.5 -87t-340.5 87z" />
    <glyph glyph-name="ibreve" unicode="&#x12d;" horiz-adv-x="696" 
d="M116 0v1100h464v-1100h-464zM16.5 1322q-117.5 98 -128.5 274h270q9 -76 55 -115t135 -39t135 39t55 115h270q-11 -176 -128.5 -274t-331.5 -98t-331.5 98z" />
    <glyph glyph-name="Iogonek" unicode="&#x12e;" horiz-adv-x="736" 
d="M640 -270v-160q-97 -30 -204 -30q-165 0 -248.5 60.5t-83.5 165.5q0 147 162 234h-136v1480h476v-1480q-133 -43 -189.5 -90.5t-56.5 -105.5q0 -47 36 -72.5t112 -25.5q57 0 132 24z" />
    <glyph glyph-name="iogonek" unicode="&#x12f;" horiz-adv-x="696" 
d="M141 1259.5q-67 53.5 -67 158.5t67 158.5t207 53.5t207 -53.5t67 -158.5t-67 -158.5t-207 -53.5t-207 53.5zM386.5 -268.5q32.5 -25.5 95.5 -25.5q59 0 118 24v-160q-45 -15 -88 -22.5t-102 -7.5q-154 0 -233 60.5t-79 165.5q0 71 35 129.5t116 104.5h-133v1100h464
v-1100q-125 -43 -175.5 -90.5t-50.5 -109.5q0 -43 32.5 -68.5z" />
    <glyph glyph-name="Idotaccent" unicode="&#x130;" horiz-adv-x="736" 
d="M130 0v1480h476v-1480h-476zM165 1618q-65 48 -65 132t65 132t203 48t203 -48t65 -132t-65 -132t-203 -48t-203 48z" />
    <glyph glyph-name="dotlessi" unicode="&#x131;" horiz-adv-x="696" 
d="M116 0v1100h464v-1100h-464z" />
    <glyph glyph-name="Jcircumflex" unicode="&#x134;" horiz-adv-x="736" 
d="M-12 -162q81 98 113.5 202.5t32.5 261.5v1178h472v-1162q0 -195 -74.5 -356.5t-251.5 -319.5zM894 1586h-364l-160 155l-160 -155h-364l332 316h384z" />
    <glyph glyph-name="jcircumflex" unicode="&#x135;" horiz-adv-x="696" 
d="M-30 -284q81 98 113.5 202.5t32.5 261.5v920h464v-904q0 -194 -73.5 -353.5t-248.5 -318.5zM802 1220h-334l-130 187l-130 -187h-334l286 396h356z" />
    <glyph glyph-name="Kcommaaccent" unicode="&#x136;" horiz-adv-x="1546" 
d="M1082 0l-382 554h-94v-554h-476v1480h476v-524h92l352 524h498l-479 -713l529 -767h-516zM1064 -282q0 -62 -26.5 -127.5t-69.5 -110.5h-280q49 84 64 148q-98 8 -141 41.5t-43 90.5q0 67 60 101.5t188 34.5q248 0 248 -178z" />
    <glyph glyph-name="kcommaaccent" unicode="&#x137;" horiz-adv-x="1456" 
d="M990 0l-271 380h-139v-380h-464v1616h464v-864h137l245 348h494l-356 -523l394 -577h-504zM996 -282q0 -62 -26.5 -127.5t-69.5 -110.5h-280q49 84 64 148q-98 8 -141 41.5t-43 90.5q0 67 60 101.5t188 34.5q248 0 248 -178z" />
    <glyph glyph-name="kgreenlandic" unicode="&#x138;" horiz-adv-x="1456" 
d="M990 0l-271 380h-139v-380h-464v1100h464v-348h137l245 348h494l-356 -523l394 -577h-504z" />
    <glyph glyph-name="Lacute" unicode="&#x139;" horiz-adv-x="1362" 
d="M130 0v1480h476v-1112h744v-368h-1220zM154 1586l204 316h488l-272 -316h-420z" />
    <glyph glyph-name="lacute" unicode="&#x13a;" horiz-adv-x="696" 
d="M116 0v1616h464v-1616h-464zM134 1682l204 316h488l-272 -316h-420z" />
    <glyph glyph-name="Lcommaaccent" unicode="&#x13b;" horiz-adv-x="1362" 
d="M130 0v1480h476v-1112h744v-368h-1220zM988 -282q0 -62 -26.5 -127.5t-69.5 -110.5h-280q49 84 64 148q-98 8 -141 41.5t-43 90.5q0 67 60 101.5t188 34.5q248 0 248 -178z" />
    <glyph glyph-name="lcommaaccent" unicode="&#x13c;" horiz-adv-x="696" 
d="M116 0v1616h464v-1616h-464zM594 -282q0 -62 -26.5 -127.5t-69.5 -110.5h-280q49 84 64 148q-98 8 -141 41.5t-43 90.5q0 67 60 101.5t188 34.5q248 0 248 -178z" />
    <glyph glyph-name="Lcaron" unicode="&#x13d;" horiz-adv-x="1362" 
d="M130 0v1480h476v-1112h744v-368h-1220zM909 1359.5q7 103.5 7 256.5h294q0 -279 -86 -476h-240q18 116 25 219.5z" />
    <glyph glyph-name="lcaron" unicode="&#x13e;" horiz-adv-x="696" 
d="M116 0v1616h464v-1616h-464zM672 1395q8 99 8 221h294q0 -124 -24 -237.5t-66 -198.5h-240q20 116 28 215z" />
    <glyph glyph-name="Ldot" unicode="&#x13f;" horiz-adv-x="1362" 
d="M130 0v1480h476v-1112h744v-368h-1220zM831 771.5q-67 53.5 -67 158.5t67 158.5t207 53.5t207 -53.5t67 -158.5t-67 -158.5t-207 -53.5t-207 53.5z" />
    <glyph glyph-name="ldot" unicode="&#x140;" horiz-adv-x="1144" 
d="M116 0v1616h464v-1616h-464zM711 635.5q-67 53.5 -67 158.5t67 158.5t207 53.5t207 -53.5t67 -158.5t-67 -158.5t-207 -53.5t-207 53.5z" />
    <glyph glyph-name="Lslash" unicode="&#x141;" horiz-adv-x="1362" 
d="M606 368h744v-368h-1220v586l-72 -34l-122 250l194 93v585h476v-358l294 140l122 -250l-416 -199v-445z" />
    <glyph glyph-name="lslash" unicode="&#x142;" horiz-adv-x="776" 
d="M818 770l-198 -94v-676h-464v454l-80 -38l-118 242l198 94v864h464v-642l80 38z" />
    <glyph glyph-name="Nacute" unicode="&#x143;" horiz-adv-x="1804" 
d="M1226 1480h448v-1480h-476l-620 834v-834h-448v1480h476l620 -834v834zM688 1586l204 316h488l-272 -316h-420z" />
    <glyph glyph-name="nacute" unicode="&#x144;" horiz-adv-x="1462" 
d="M116 1100h378l28 -96h20q65 54 156.5 84t195.5 30q212 0 336 -125.5t124 -384.5v-608h-464v582q0 84 -32.5 118t-101.5 34q-52 0 -98.5 -17.5t-77.5 -46.5v-670h-464v1100zM516 1220l258 396h508l-326 -396h-440z" />
    <glyph glyph-name="Ncommaaccent" unicode="&#x145;" horiz-adv-x="1804" 
d="M1226 1480h448v-1480h-476l-620 834v-834h-448v1480h476l620 -834v834zM1150 -282q0 -62 -26.5 -127.5t-69.5 -110.5h-280q49 84 64 148q-98 8 -141 41.5t-43 90.5q0 67 60 101.5t188 34.5q248 0 248 -178z" />
    <glyph glyph-name="ncommaaccent" unicode="&#x146;" horiz-adv-x="1462" 
d="M116 1100h378l28 -96h20q65 54 156.5 84t195.5 30q212 0 336 -125.5t124 -384.5v-608h-464v582q0 84 -32.5 118t-101.5 34q-52 0 -98.5 -17.5t-77.5 -46.5v-670h-464v1100zM984 -282q0 -62 -26.5 -127.5t-69.5 -110.5h-280q49 84 64 148q-98 8 -141 41.5t-43 90.5
q0 67 60 101.5t188 34.5q248 0 248 -178z" />
    <glyph glyph-name="Ncaron" unicode="&#x147;" horiz-adv-x="1804" 
d="M1226 1480h448v-1480h-476l-620 834v-834h-448v1480h476l620 -834v834zM1062 1902h364l-332 -316h-384l-332 316h364l160 -155z" />
    <glyph glyph-name="ncaron" unicode="&#x148;" horiz-adv-x="1462" 
d="M116 1100h378l28 -96h20q65 54 156.5 84t195.5 30q212 0 336 -125.5t124 -384.5v-608h-464v582q0 84 -32.5 118t-101.5 34q-52 0 -98.5 -17.5t-77.5 -46.5v-670h-464v1100zM866 1616h334l-286 -396h-356l-286 396h334l130 -187z" />
    <glyph glyph-name="napostrophe" unicode="&#x149;" horiz-adv-x="1462" 
d="M116 1100h378l28 -96h20q65 54 156.5 84t195.5 30q212 0 336 -125.5t124 -384.5v-608h-464v582q0 84 -32.5 118t-101.5 34q-52 0 -98.5 -17.5t-77.5 -46.5v-670h-464v1100zM508 1450q0 -62 -26.5 -127.5t-69.5 -110.5h-280q49 84 64 148q-98 8 -141 41.5t-43 90.5
q0 67 60 101.5t188 34.5q248 0 248 -178z" />
    <glyph glyph-name="Eng" unicode="&#x14a;" horiz-adv-x="1804" 
d="M1674 1480v-1244q0 -149 -31 -268t-101 -227t-190 -217l-288 192q56 67 90.5 132.5t52.5 142.5l-629 844v-835h-448v1480h476l620 -834v834h448z" />
    <glyph glyph-name="eng" unicode="&#x14b;" horiz-adv-x="1462" 
d="M744 -284q81 98 113.5 202.5t32.5 261.5v402q0 84 -32.5 118t-101.5 34q-52 0 -98.5 -17.5t-77.5 -46.5v-670h-464v1100h378l28 -96h20q65 54 156.5 84t195.5 30q212 0 336 -125.5t124 -384.5v-412q0 -194 -73.5 -353.5t-248.5 -318.5z" />
    <glyph glyph-name="Omacron" unicode="&#x14c;" horiz-adv-x="1892" 
d="M486.5 72q-194.5 92 -298.5 263.5t-104 404.5t103.5 404.5t298 263.5t460.5 92q265 0 459.5 -92.5t298.5 -264t104 -403.5t-104 -403.5t-298.5 -264t-459.5 -92.5t-459.5 92zM1227 447.5q97 99.5 97 284.5q0 195 -98.5 297.5t-279.5 102.5t-279.5 -98t-98.5 -286
q0 -200 96 -300t282 -100q184 0 281 99.5zM502 1620v250h888v-250h-888z" />
    <glyph glyph-name="omacron" unicode="&#x14d;" horiz-adv-x="1464" 
d="M381.5 47q-150.5 69 -233 198t-82.5 305q0 177 78 305t228 195.5t360 67.5t360 -67.5t228 -195.5t78 -305q0 -176 -82.5 -305t-233 -198t-350.5 -69t-350.5 69zM887.5 381q52.5 55 52.5 169t-52 167t-156 53t-156 -53t-52 -167t52.5 -169t155.5 -55t155.5 55zM316 1294
v250h832v-250h-832z" />
    <glyph glyph-name="Obreve" unicode="&#x14e;" horiz-adv-x="1892" 
d="M486.5 72q-194.5 92 -298.5 263.5t-104 404.5t103.5 404.5t298 263.5t460.5 92q265 0 459.5 -92.5t298.5 -264t104 -403.5t-104 -403.5t-298.5 -264t-459.5 -92.5t-459.5 92zM1227 447.5q97 99.5 97 284.5q0 195 -98.5 297.5t-279.5 102.5t-279.5 -98t-98.5 -286
q0 -200 96 -300t282 -100q184 0 281 99.5zM605.5 1673q-119.5 87 -143.5 229h274q16 -50 67.5 -79t142.5 -29t142.5 29t67.5 79h274q-24 -142 -143.5 -229t-340.5 -87t-340.5 87z" />
    <glyph glyph-name="obreve" unicode="&#x14f;" horiz-adv-x="1464" 
d="M381.5 47q-150.5 69 -233 198t-82.5 305q0 177 78 305t228 195.5t360 67.5t360 -67.5t228 -195.5t78 -305q0 -176 -82.5 -305t-233 -198t-350.5 -69t-350.5 69zM887.5 381q52.5 55 52.5 169t-52 167t-156 53t-156 -53t-52 -167t52.5 -169t155.5 -55t155.5 55zM400.5 1322
q-117.5 98 -128.5 274h270q9 -76 55 -115t135 -39t135 39t55 115h270q-11 -176 -128.5 -274t-331.5 -98t-331.5 98z" />
    <glyph glyph-name="Ohungarumlaut" unicode="&#x150;" horiz-adv-x="1892" 
d="M486.5 72q-194.5 92 -298.5 263.5t-104 404.5t103.5 404.5t298 263.5t460.5 92q265 0 459.5 -92.5t298.5 -264t104 -403.5t-104 -403.5t-298.5 -264t-459.5 -92.5t-459.5 92zM1227 447.5q97 99.5 97 284.5q0 195 -98.5 297.5t-279.5 102.5t-279.5 -98t-98.5 -286
q0 -200 96 -300t282 -100q184 0 281 99.5zM548 1586l164 316h348l-188 -316h-324zM1020 1586l164 316h348l-188 -316h-324z" />
    <glyph glyph-name="ohungarumlaut" unicode="&#x151;" horiz-adv-x="1464" 
d="M381.5 47q-150.5 69 -233 198t-82.5 305q0 177 78 305t228 195.5t360 67.5t360 -67.5t228 -195.5t78 -305q0 -176 -82.5 -305t-233 -198t-350.5 -69t-350.5 69zM887.5 381q52.5 55 52.5 169t-52 167t-156 53t-156 -53t-52 -167t52.5 -169t155.5 -55t155.5 55zM334 1220
l164 396h348l-188 -396h-324zM806 1220l164 396h348l-188 -396h-324z" />
    <glyph glyph-name="OE" unicode="&#x152;" horiz-adv-x="2506" 
d="M2420 350v-350h-912q-70 0 -198 -8q-114 -6 -158 -6q-373 0 -607.5 76t-347.5 241.5t-113 436.5q0 388 260 571t788 183q69 0 177 -7q19 -1 82.5 -4t116.5 -3h902v-350h-762v-200h656v-350h-656v-230h772zM1178 1118q-48 4 -156 4q-158 0 -258 -40t-149 -125t-49 -221
q0 -197 110.5 -287.5t345.5 -90.5q108 0 156 4v756z" />
    <glyph glyph-name="oe" unicode="&#x153;" horiz-adv-x="2194" 
d="M2138 428h-739q8 -48 41 -75t106.5 -39t205.5 -12q139 0 310 24v-318q-177 -30 -384 -30q-366 0 -533 140q-77 -68 -186 -104t-247 -36q-191 0 -337 69t-227.5 198.5t-81.5 304.5q0 177 77 304.5t222.5 195.5t346.5 68q301 0 457 -153q77 73 182 113t231 40
q178 0 302.5 -71t189 -203.5t64.5 -313.5v-102zM1437.5 803q-38.5 -43 -41.5 -135h316q-4 91 -42.5 134.5t-115.5 43.5q-78 0 -116.5 -43zM887.5 381q52.5 55 52.5 169t-52 167t-156 53t-156 -53t-52 -167t52.5 -169t155.5 -55t155.5 55z" />
    <glyph glyph-name="Racute" unicode="&#x154;" horiz-adv-x="1578" 
d="M1060 0l-356 492q-75 2 -108 4v-496h-466v1432q121 29 280.5 48.5t287.5 19.5q363 0 548.5 -122.5t185.5 -379.5q0 -149 -70 -256t-201 -169l421 -573h-522zM596 830q83 -10 158 -10q121 0 179.5 41.5t58.5 136.5q0 91 -61.5 134.5t-188.5 43.5q-69 0 -146 -14v-332z
M582 1586l204 316h488l-272 -316h-420z" />
    <glyph glyph-name="racute" unicode="&#x155;" horiz-adv-x="958" 
d="M116 1100h376l36 -124h20q46 71 122 106.5t176 35.5q48 0 100 -8v-406q-50 10 -128 10q-70 0 -136 -19t-102 -53v-642h-464v1100zM312 1220l258 396h508l-326 -396h-440z" />
    <glyph glyph-name="Rcommaaccent" unicode="&#x156;" horiz-adv-x="1578" 
d="M1060 0l-356 492q-75 2 -108 4v-496h-466v1432q121 29 280.5 48.5t287.5 19.5q363 0 548.5 -122.5t185.5 -379.5q0 -149 -70 -256t-201 -169l421 -573h-522zM596 830q83 -10 158 -10q121 0 179.5 41.5t58.5 136.5q0 91 -61.5 134.5t-188.5 43.5q-69 0 -146 -14v-332z
M1066 -282q0 -62 -26.5 -127.5t-69.5 -110.5h-280q49 84 64 148q-98 8 -141 41.5t-43 90.5q0 67 60 101.5t188 34.5q248 0 248 -178z" />
    <glyph glyph-name="rcommaaccent" unicode="&#x157;" horiz-adv-x="958" 
d="M116 1100h376l36 -124h20q46 71 122 106.5t176 35.5q48 0 100 -8v-406q-50 10 -128 10q-70 0 -136 -19t-102 -53v-642h-464v1100zM596 -282q0 -62 -26.5 -127.5t-69.5 -110.5h-280q49 84 64 148q-98 8 -141 41.5t-43 90.5q0 67 60 101.5t188 34.5q248 0 248 -178z" />
    <glyph glyph-name="Rcaron" unicode="&#x158;" horiz-adv-x="1578" 
d="M1060 0l-356 492q-75 2 -108 4v-496h-466v1432q121 29 280.5 48.5t287.5 19.5q363 0 548.5 -122.5t185.5 -379.5q0 -149 -70 -256t-201 -169l421 -573h-522zM596 830q83 -10 158 -10q121 0 179.5 41.5t58.5 136.5q0 91 -61.5 134.5t-188.5 43.5q-69 0 -146 -14v-332z
M956 1902h364l-332 -316h-384l-332 316h364l160 -155z" />
    <glyph glyph-name="rcaron" unicode="&#x159;" horiz-adv-x="958" 
d="M116 1100h376l36 -124h20q46 71 122 106.5t176 35.5q48 0 100 -8v-406q-50 10 -128 10q-70 0 -136 -19t-102 -53v-642h-464v1100zM662 1616h334l-286 -396h-356l-286 396h334l130 -187z" />
    <glyph glyph-name="Sacute" unicode="&#x15a;" horiz-adv-x="1378" 
d="M106 50v368q101 -34 248 -55t266 -21q90 0 140 12t69 33.5t19 54.5q0 27 -13 44.5t-48.5 31t-104.5 26.5l-144 28q-170 33 -274 92t-152 147t-48 209q0 234 187.5 357t558.5 123q230 0 418 -46v-368q-77 23 -187 37.5t-217 14.5q-165 0 -229.5 -27t-64.5 -75
q0 -24 11 -39.5t39.5 -27.5t83.5 -23l144 -28q184 -35 295.5 -97t161 -149t49.5 -206q0 -149 -84.5 -258.5t-242 -168.5t-371.5 -59q-273 0 -510 70zM490 1586l204 316h488l-272 -316h-420z" />
    <glyph glyph-name="sacute" unicode="&#x15b;" horiz-adv-x="1208" 
d="M307 -8q-120 14 -215 40v306q96 -26 215.5 -41t234.5 -15q97 0 136.5 13.5t39.5 40.5q0 17 -12 25.5t-48 12.5l-236 30q-193 25 -276.5 107t-83.5 225q0 181 162.5 281.5t493.5 100.5q98 0 201.5 -12t172.5 -32v-306q-71 20 -173.5 33t-196.5 13q-133 0 -178.5 -16
t-45.5 -42q0 -14 13 -22t49 -12l236 -30q118 -15 196.5 -51t120 -105t41.5 -180q0 -118 -70.5 -203t-206 -130t-327.5 -45q-123 0 -243 14zM398 1220l258 396h508l-326 -396h-440z" />
    <glyph glyph-name="Scircumflex" unicode="&#x15c;" horiz-adv-x="1378" 
d="M106 50v368q101 -34 248 -55t266 -21q90 0 140 12t69 33.5t19 54.5q0 27 -13 44.5t-48.5 31t-104.5 26.5l-144 28q-170 33 -274 92t-152 147t-48 209q0 234 187.5 357t558.5 123q230 0 418 -46v-368q-77 23 -187 37.5t-217 14.5q-165 0 -229.5 -27t-64.5 -75
q0 -24 11 -39.5t39.5 -27.5t83.5 -23l144 -28q184 -35 295.5 -97t161 -149t49.5 -206q0 -149 -84.5 -258.5t-242 -168.5t-371.5 -59q-273 0 -510 70zM1228 1586h-364l-160 155l-160 -155h-364l332 316h384z" />
    <glyph glyph-name="scircumflex" unicode="&#x15d;" horiz-adv-x="1208" 
d="M307 -8q-120 14 -215 40v306q96 -26 215.5 -41t234.5 -15q97 0 136.5 13.5t39.5 40.5q0 17 -12 25.5t-48 12.5l-236 30q-193 25 -276.5 107t-83.5 225q0 181 162.5 281.5t493.5 100.5q98 0 201.5 -12t172.5 -32v-306q-71 20 -173.5 33t-196.5 13q-133 0 -178.5 -16
t-45.5 -42q0 -14 13 -22t49 -12l236 -30q118 -15 196.5 -51t120 -105t41.5 -180q0 -118 -70.5 -203t-206 -130t-327.5 -45q-123 0 -243 14zM1082 1220h-334l-130 187l-130 -187h-334l286 396h356z" />
    <glyph glyph-name="Scedilla" unicode="&#x15e;" horiz-adv-x="1378" 
d="M1250 237q-64 -100 -184.5 -163.5t-287.5 -83.5v-62q101 -15 149.5 -63.5t48.5 -124.5q0 -94 -81 -147t-237 -53q-119 0 -228 32v154q47 -15 101.5 -22.5t104.5 -7.5q59 0 87.5 13.5t28.5 44.5q0 33 -28 47.5t-86 14.5h-62v164q-250 5 -470 70v368q101 -34 248 -55
t266 -21q90 0 140 12t69 33.5t19 54.5q0 27 -13 44.5t-48.5 31t-104.5 26.5l-144 28q-170 33 -274 92t-152 147t-48 209q0 234 187.5 357t558.5 123q230 0 418 -46v-368q-77 23 -187 37.5t-217 14.5q-165 0 -229.5 -27t-64.5 -75q0 -24 11 -39.5t39.5 -27.5t83.5 -23
l144 -28q184 -35 295.5 -97t161 -149t49.5 -206q0 -129 -64 -229z" />
    <glyph glyph-name="scedilla" unicode="&#x15f;" horiz-adv-x="1208" 
d="M1045 114q-109 -95 -313 -124v-64q90 -17 134 -66.5t44 -125.5q0 -91 -76.5 -142.5t-221.5 -51.5q-115 0 -208 32v154q37 -14 90 -22t96 -8q48 0 72 14t24 46t-23.5 46t-70.5 14h-62v162q-120 2 -234 15.5t-204 38.5v306q96 -26 215.5 -41t234.5 -15q97 0 136.5 13.5
t39.5 40.5q0 17 -12 25.5t-48 12.5l-236 30q-193 25 -276.5 107t-83.5 225q0 181 162.5 281.5t493.5 100.5q98 0 201.5 -12t172.5 -32v-306q-71 20 -173.5 33t-196.5 13q-133 0 -178.5 -16t-45.5 -42q0 -14 13 -22t49 -12l236 -30q118 -15 196.5 -51t120 -105t41.5 -180
q0 -147 -109 -242z" />
    <glyph glyph-name="Scaron" unicode="&#x160;" horiz-adv-x="1378" 
d="M106 50v368q101 -34 248 -55t266 -21q90 0 140 12t69 33.5t19 54.5q0 27 -13 44.5t-48.5 31t-104.5 26.5l-144 28q-170 33 -274 92t-152 147t-48 209q0 234 187.5 357t558.5 123q230 0 418 -46v-368q-77 23 -187 37.5t-217 14.5q-165 0 -229.5 -27t-64.5 -75
q0 -24 11 -39.5t39.5 -27.5t83.5 -23l144 -28q184 -35 295.5 -97t161 -149t49.5 -206q0 -149 -84.5 -258.5t-242 -168.5t-371.5 -59q-273 0 -510 70zM864 1902h364l-332 -316h-384l-332 316h364l160 -155z" />
    <glyph glyph-name="scaron" unicode="&#x161;" horiz-adv-x="1208" 
d="M307 -8q-120 14 -215 40v306q96 -26 215.5 -41t234.5 -15q97 0 136.5 13.5t39.5 40.5q0 17 -12 25.5t-48 12.5l-236 30q-193 25 -276.5 107t-83.5 225q0 181 162.5 281.5t493.5 100.5q98 0 201.5 -12t172.5 -32v-306q-71 20 -173.5 33t-196.5 13q-133 0 -178.5 -16
t-45.5 -42q0 -14 13 -22t49 -12l236 -30q118 -15 196.5 -51t120 -105t41.5 -180q0 -118 -70.5 -203t-206 -130t-327.5 -45q-123 0 -243 14zM748 1616h334l-286 -396h-356l-286 396h334l130 -187z" />
    <glyph glyph-name="uni0162" unicode="&#x162;" horiz-adv-x="1532" 
d="M840 0v-72q101 -15 149.5 -63.5t48.5 -124.5q0 -94 -81 -147t-237 -53q-119 0 -228 32v154q47 -15 101.5 -22.5t104.5 -7.5q59 0 87.5 13.5t28.5 44.5q0 33 -28 47.5t-86 14.5h-62v184h-110v1112h-506v368h1488v-368h-506v-1112h-164z" />
    <glyph glyph-name="uni0163" unicode="&#x163;" horiz-adv-x="1024" 
d="M686 740v-228q0 -66 16 -103t50.5 -52t95.5 -15q45 0 114 12v-348q-55 -12 -124 -20t-128 -8h-4v-52q90 -17 134 -66.5t44 -125.5q0 -91 -76.5 -142.5t-221.5 -51.5q-115 0 -208 32v154q37 -14 90 -22t96 -8q48 0 72 14t24 46t-23.5 46t-70.5 14h-62v188
q-282 83 -282 420v316h-180v360h180l86 380h378v-380h276v-360h-276z" />
    <glyph glyph-name="Tcaron" unicode="&#x164;" horiz-adv-x="1532" 
d="M528 0v1112h-506v368h1488v-368h-506v-1112h-476zM926 1902h364l-332 -316h-384l-332 316h364l160 -155z" />
    <glyph glyph-name="tcaron" unicode="&#x165;" horiz-adv-x="1024" 
d="M686 740v-228q0 -66 16 -103t50.5 -52t95.5 -15q45 0 114 12v-348q-55 -12 -124 -20t-128 -8q-241 0 -364.5 112t-123.5 334v316h-180v360h180l86 380h378v-380h276v-360h-276zM782 1395q8 99 8 221h294q0 -124 -24 -237.5t-66 -198.5h-240q20 116 28 215z" />
    <glyph glyph-name="Tbar" unicode="&#x166;" horiz-adv-x="1532" 
d="M1510 1112h-506v-272h326v-280h-326v-560h-476v560h-326v280h326v272h-506v368h1488v-368z" />
    <glyph glyph-name="tbar" unicode="&#x167;" horiz-adv-x="1024" 
d="M686 740v-70h210v-240h-201q13 -49 48.5 -68.5t104.5 -19.5q45 0 114 12v-348q-55 -12 -124 -20t-128 -8q-241 0 -364.5 112t-123.5 334v6h-114v240h114v70h-180v360h180l86 380h378v-380h276v-360h-276z" />
    <glyph glyph-name="Utilde" unicode="&#x168;" horiz-adv-x="1756" 
d="M306 163q-182 183 -182 531v786h476v-824q0 -153 70 -226.5t212 -73.5t212 73.5t70 226.5v824h468v-786q0 -347 -181 -530.5t-569 -183.5q-394 0 -576 183zM980 1595q-46 9 -115 28q-60 17 -103 26t-90 9q-69 0 -122 -15t-112 -49v232q50 40 108 58t138 18
q55 0 102.5 -9.5t112.5 -28.5q63 -18 104.5 -27t88.5 -9q69 0 122 15t112 49v-232q-50 -39 -107.5 -56.5t-138.5 -17.5q-54 0 -100 9z" />
    <glyph glyph-name="utilde" unicode="&#x169;" horiz-adv-x="1452" 
d="M236 107q-128 125 -128 385v608h464v-582q0 -84 31.5 -118t96.5 -34q49 0 95.5 17.5t76.5 46.5v670h464v-1100h-378l-28 96h-16q-68 -55 -152.5 -84.5t-175.5 -29.5q-222 0 -350 125zM808.5 1253.5q-43.5 13.5 -103.5 39.5q-56 24 -94.5 36.5t-78.5 12.5
q-65 0 -117 -21.5t-109 -70.5v262q49 45 106 65.5t132 20.5q48 0 91.5 -13.5t103.5 -39.5q56 -24 94.5 -36.5t78.5 -12.5q65 0 117 21.5t109 70.5v-262q-49 -45 -106 -65.5t-132 -20.5q-48 0 -91.5 13.5z" />
    <glyph glyph-name="Umacron" unicode="&#x16a;" horiz-adv-x="1756" 
d="M306 163q-182 183 -182 531v786h476v-824q0 -153 70 -226.5t212 -73.5t212 73.5t70 226.5v824h468v-786q0 -347 -181 -530.5t-569 -183.5q-394 0 -576 183zM438 1620v250h888v-250h-888z" />
    <glyph glyph-name="umacron" unicode="&#x16b;" horiz-adv-x="1452" 
d="M236 107q-128 125 -128 385v608h464v-582q0 -84 31.5 -118t96.5 -34q49 0 95.5 17.5t76.5 46.5v670h464v-1100h-378l-28 96h-16q-68 -55 -152.5 -84.5t-175.5 -29.5q-222 0 -350 125zM306 1294v250h832v-250h-832z" />
    <glyph glyph-name="Ubreve" unicode="&#x16c;" horiz-adv-x="1756" 
d="M306 163q-182 183 -182 531v786h476v-824q0 -153 70 -226.5t212 -73.5t212 73.5t70 226.5v824h468v-786q0 -347 -181 -530.5t-569 -183.5q-394 0 -576 183zM541.5 1673q-119.5 87 -143.5 229h274q16 -50 67.5 -79t142.5 -29t142.5 29t67.5 79h274q-24 -142 -143.5 -229
t-340.5 -87t-340.5 87z" />
    <glyph glyph-name="ubreve" unicode="&#x16d;" horiz-adv-x="1452" 
d="M236 107q-128 125 -128 385v608h464v-582q0 -84 31.5 -118t96.5 -34q49 0 95.5 17.5t76.5 46.5v670h464v-1100h-378l-28 96h-16q-68 -55 -152.5 -84.5t-175.5 -29.5q-222 0 -350 125zM390.5 1322q-117.5 98 -128.5 274h270q9 -76 55 -115t135 -39t135 39t55 115h270
q-11 -176 -128.5 -274t-331.5 -98t-331.5 98z" />
    <glyph glyph-name="Uring" unicode="&#x16e;" horiz-adv-x="1756" 
d="M306 163q-182 183 -182 531v786h476v-824q0 -153 70 -226.5t212 -73.5t212 73.5t70 226.5v824h468v-786q0 -347 -181 -530.5t-569 -183.5q-394 0 -576 183zM765 1598.5q-52 28.5 -81.5 78.5t-29.5 113t29.5 113t81.5 78.5t117 28.5t117 -28.5t81.5 -78.5t29.5 -113
t-29.5 -113t-81.5 -78.5t-117 -28.5t-117 28.5zM938.5 1730.5q21.5 22.5 21.5 59.5t-21.5 59.5t-56.5 22.5t-56.5 -22.5t-21.5 -59.5t21.5 -59.5t56.5 -22.5t56.5 22.5z" />
    <glyph glyph-name="uring" unicode="&#x16f;" horiz-adv-x="1452" 
d="M236 107q-128 125 -128 385v608h464v-582q0 -84 31.5 -118t96.5 -34q49 0 95.5 17.5t76.5 46.5v670h464v-1100h-378l-28 96h-16q-68 -55 -152.5 -84.5t-175.5 -29.5q-222 0 -350 125zM605 1242.5q-52 28.5 -81.5 78.5t-29.5 113t29.5 113t81.5 78.5t117 28.5t117 -28.5
t81.5 -78.5t29.5 -113t-29.5 -113t-81.5 -78.5t-117 -28.5t-117 28.5zM778.5 1374.5q21.5 22.5 21.5 59.5t-21.5 59.5t-56.5 22.5t-56.5 -22.5t-21.5 -59.5t21.5 -59.5t56.5 -22.5t56.5 22.5z" />
    <glyph glyph-name="Uhungarumlaut" unicode="&#x170;" horiz-adv-x="1756" 
d="M306 163q-182 183 -182 531v786h476v-824q0 -153 70 -226.5t212 -73.5t212 73.5t70 226.5v824h468v-786q0 -347 -181 -530.5t-569 -183.5q-394 0 -576 183zM484 1586l164 316h348l-188 -316h-324zM956 1586l164 316h348l-188 -316h-324z" />
    <glyph glyph-name="uhungarumlaut" unicode="&#x171;" horiz-adv-x="1452" 
d="M236 107q-128 125 -128 385v608h464v-582q0 -84 31.5 -118t96.5 -34q49 0 95.5 17.5t76.5 46.5v670h464v-1100h-378l-28 96h-16q-68 -55 -152.5 -84.5t-175.5 -29.5q-222 0 -350 125zM324 1220l164 396h348l-188 -396h-324zM796 1220l164 396h348l-188 -396h-324z" />
    <glyph glyph-name="Uogonek" unicode="&#x172;" horiz-adv-x="1756" 
d="M1632 1480v-786q0 -265 -104 -435t-324 -237q-121 -37 -188.5 -72t-94.5 -70t-27 -76q0 -47 36 -72.5t112 -25.5q57 0 132 24v-160q-97 -30 -204 -30q-165 0 -248.5 60.5t-83.5 165.5q0 134 133 218q-336 26 -491.5 206.5t-155.5 503.5v786h476v-824q0 -153 70 -226.5
t212 -73.5t212 73.5t70 226.5v824h468z" />
    <glyph glyph-name="uogonek" unicode="&#x173;" horiz-adv-x="1452" 
d="M1356 -270v-160q-45 -15 -88 -22.5t-102 -7.5q-154 0 -233 60.5t-79 165.5q0 71 35 129.5t116 104.5h-47l-28 96h-16q-68 -55 -152.5 -84.5t-175.5 -29.5q-222 0 -350 125t-128 385v608h464v-582q0 -84 31.5 -118t96.5 -34q49 0 95.5 17.5t76.5 46.5v670h464v-1100
q-125 -43 -175.5 -90.5t-50.5 -109.5q0 -43 32.5 -68.5t95.5 -25.5q59 0 118 24z" />
    <glyph glyph-name="Wcircumflex" unicode="&#x174;" horiz-adv-x="2748" 
d="M2272 1480h452l-442 -1480h-600l-302 1021l-314 -1021h-600l-442 1480h480l297 -1063l325 1063h520l316 -1085zM1898 1586h-364l-160 155l-160 -155h-364l332 316h384z" />
    <glyph glyph-name="wcircumflex" unicode="&#x175;" horiz-adv-x="2150" 
d="M1666 1100h424l-308 -1100h-514l-188 699l-196 -699h-514l-310 1100h444l152 -637l172 637h514l163 -620zM1540 1220h-334l-130 187l-130 -187h-334l286 396h356z" />
    <glyph glyph-name="Ycircumflex" unicode="&#x176;" horiz-adv-x="1532" 
d="M1572 1480l-564 -872v-608h-476v602l-592 878h502l335 -507l327 507h468zM1288 1586h-364l-160 155l-160 -155h-364l332 316h384z" />
    <glyph glyph-name="ycircumflex" unicode="&#x177;" horiz-adv-x="1424" 
d="M986 1100h452l-628 -1540h-452l182 440h-108l-446 1100h488l256 -697zM1176 1220h-334l-130 187l-130 -187h-334l286 396h356z" />
    <glyph glyph-name="Ydieresis" unicode="&#x178;" horiz-adv-x="1532" 
d="M1572 1480l-564 -872v-608h-476v602l-592 878h502l335 -507l327 507h468zM295.5 1616.5q-55.5 46.5 -55.5 133.5t55.5 133.5t172.5 46.5t172.5 -46.5t55.5 -133.5t-55.5 -133.5t-172.5 -46.5t-172.5 46.5zM887.5 1616.5q-55.5 46.5 -55.5 133.5t55.5 133.5t172.5 46.5
t172.5 -46.5t55.5 -133.5t-55.5 -133.5t-172.5 -46.5t-172.5 46.5z" />
    <glyph glyph-name="Zacute" unicode="&#x179;" horiz-adv-x="1482" 
d="M699 368h699v-368h-1314v254l689 858h-679v368h1294v-254zM528 1586l204 316h488l-272 -316h-420z" />
    <glyph glyph-name="zacute" unicode="&#x17a;" horiz-adv-x="1274" 
d="M716 360h490v-360h-1114v300l480 440h-470v360h1094v-300zM430 1220l258 396h508l-326 -396h-440z" />
    <glyph glyph-name="Zdotaccent" unicode="&#x17b;" horiz-adv-x="1482" 
d="M699 368h699v-368h-1314v254l689 858h-679v368h1294v-254zM539 1618q-65 48 -65 132t65 132t203 48t203 -48t65 -132t-65 -132t-203 -48t-203 48z" />
    <glyph glyph-name="zdotaccent" unicode="&#x17c;" horiz-adv-x="1274" 
d="M716 360h490v-360h-1114v300l480 440h-470v360h1094v-300zM443 1259.5q-67 53.5 -67 158.5t67 158.5t207 53.5t207 -53.5t67 -158.5t-67 -158.5t-207 -53.5t-207 53.5z" />
    <glyph glyph-name="Zcaron" unicode="&#x17d;" horiz-adv-x="1482" 
d="M699 368h699v-368h-1314v254l689 858h-679v368h1294v-254zM902 1902h364l-332 -316h-384l-332 316h364l160 -155z" />
    <glyph glyph-name="zcaron" unicode="&#x17e;" horiz-adv-x="1274" 
d="M716 360h490v-360h-1114v300l480 440h-470v360h1094v-300zM780 1616h334l-286 -396h-356l-286 396h334l130 -187z" />
    <glyph glyph-name="uni018F" unicode="&#x18f;" horiz-adv-x="1858" 
d="M1510 1308q264 -192 264 -588q0 -223 -99 -390t-287.5 -258.5t-449.5 -91.5q-267 0 -461.5 92t-298.5 263t-104 405v132h1213q-51 140 -203 201t-412 61q-115 0 -241 -11.5t-235 -32.5v368q120 21 251.5 31.5t258.5 10.5q540 0 804 -192zM1179 376.5q86 52.5 116 173.5
h-723q31 -119 121 -172.5t251 -53.5q149 0 235 52.5z" />
    <glyph glyph-name="florin" unicode="&#x192;" horiz-adv-x="980" 
d="M747.5 1239.5q-53.5 -42.5 -53.5 -125.5v-14h276v-360h-276v-664q0 -161 -73 -282.5t-209.5 -187.5t-323.5 -66q-55 0 -95.5 2.5t-94.5 9.5v348q60 -6 110 -6q115 0 168.5 42.5t53.5 125.5v678h-180v360h180q0 161 73 282.5t209.5 187.5t323.5 66q55 0 95.5 -2.5
t94.5 -9.5v-348q-60 6 -110 6q-115 0 -168.5 -42.5z" />
    <glyph glyph-name="Ohorn" unicode="&#x1a0;" horiz-adv-x="1892" 
d="M1749.5 1054.5q58.5 -140.5 58.5 -314.5q0 -232 -104 -403.5t-298.5 -264t-459.5 -92.5t-459.5 92t-298.5 263.5t-104 404.5t103.5 404.5t298 263.5t460.5 92q74 0 199 -11q20 -1 74.5 -5t90.5 -4q114 0 166 35t52 121q0 61 -12 140h290q11 -44 14.5 -79t3.5 -73
q0 -139 -64 -222.5t-181 -108.5q112 -98 170.5 -238.5zM1227 447.5q97 99.5 97 284.5q0 195 -98.5 297.5t-279.5 102.5t-279.5 -98t-98.5 -286q0 -200 96 -300t282 -100q184 0 281 99.5z" />
    <glyph glyph-name="ohorn" unicode="&#x1a1;" horiz-adv-x="1464" 
d="M1412.5 1041.5q-53.5 -79.5 -151.5 -111.5q68 -71 102.5 -167t34.5 -213q0 -176 -82.5 -305t-233 -198t-350.5 -69t-350.5 69t-233 198t-82.5 305q0 178 79 305.5t233 195t374 67.5q58 0 154 -7q52 -5 84 -5q100 0 149 34.5t49 115.5q0 61 -12 140h274q16 -73 16 -152
q0 -123 -53.5 -202.5zM887.5 381q52.5 55 52.5 169t-52 167t-156 53t-156 -53t-52 -167t52.5 -169t155.5 -55t155.5 55z" />
    <glyph glyph-name="Uhorn" unicode="&#x1af;" horiz-adv-x="1756" 
d="M306 163q-182 183 -182 531v786h476v-824q0 -153 70 -226.5t212 -73.5t212 73.5t70 226.5v824h136q114 0 166 35t52 121q0 61 -12 140h290q11 -44 14.5 -79t3.5 -73q0 -118 -47.5 -196.5t-134.5 -115.5v-618q0 -347 -181 -530.5t-569 -183.5q-394 0 -576 183z" />
    <glyph glyph-name="uhorn" unicode="&#x1b0;" horiz-adv-x="1492" 
d="M1481 1039.5q-51 -78.5 -145 -112.5v-927h-378l-28 96h-16q-68 -55 -152.5 -84.5t-175.5 -29.5q-222 0 -350 125t-128 385v608h464v-582q0 -84 31.5 -118t96.5 -34q49 0 95.5 17.5t76.5 46.5v670h184q100 0 149 34.5t49 115.5q0 61 -12 140h272q11 -44 14.5 -79t3.5 -73
q0 -120 -51 -198.5z" />
    <glyph glyph-name="uni01C4" unicode="&#x1c4;" horiz-adv-x="3224" 
d="M379.5 -7q-137.5 7 -249.5 21v1418q120 28 289 45t321 17q486 0 731 -185t245 -569q0 -269 -118 -435t-356.5 -242.5t-609.5 -76.5q-115 0 -252.5 7zM1031 396q103 40 152 125t49 223q0 198 -114.5 290t-355.5 92q-34 0 -78.5 -4t-77.5 -10v-752q48 -4 156 -4
q166 0 269 40zM2441 368h699v-368h-1314v254l689 858h-679v368h1294v-254zM2644 1902h364l-332 -316h-384l-332 316h364l160 -155z" />
    <glyph glyph-name="uni01C5" unicode="&#x1c5;" horiz-adv-x="3074" 
d="M379.5 -7q-137.5 7 -249.5 21v1418q120 28 289 45t321 17q486 0 731 -185t245 -569q0 -269 -118 -435t-356.5 -242.5t-609.5 -76.5q-115 0 -252.5 7zM1031 396q103 40 152 125t49 223q0 198 -114.5 290t-355.5 92q-34 0 -78.5 -4t-77.5 -10v-752q48 -4 156 -4
q166 0 269 40zM2516 360h490v-360h-1114v300l480 440h-470v360h1094v-300zM2610 1582h364l-332 -316h-384l-332 316h364l160 -155z" />
    <glyph glyph-name="uni01C6" unicode="&#x1c6;" horiz-adv-x="2764" 
d="M330 40q-121 58 -192.5 180t-71.5 306q0 185 82 319.5t234 205.5t358 71q70 0 170 -8v502h464v-1616h-386l-24 106h-20q-65 -58 -151 -91t-191 -33q-151 0 -272 58zM829 358q47 12 81 36v374q-72 12 -136 12q-127 0 -188.5 -56t-61.5 -168q0 -210 208 -210q50 0 97 12z
M2206 360h490v-360h-1114v300l480 440h-470v360h1094v-300zM2270 1616h334l-286 -396h-356l-286 396h334l130 -187z" />
    <glyph glyph-name="uni01C7" unicode="&#x1c7;" horiz-adv-x="2098" 
d="M130 0v1480h476v-1112h744v-368h-1220zM1350 -162q81 98 113.5 202.5t32.5 261.5v1178h472v-1162q0 -195 -74.5 -356.5t-251.5 -319.5z" />
    <glyph glyph-name="uni01C8" unicode="&#x1c8;" horiz-adv-x="2058" 
d="M130 0v1480h476v-1112h744v-368h-1220zM1332 -284q81 98 113.5 202.5t32.5 261.5v920h464v-904q0 -194 -73.5 -353.5t-248.5 -318.5zM1493 1259.5q-67 53.5 -67 158.5t67 158.5t207 53.5t207 -53.5t67 -158.5t-67 -158.5t-207 -53.5t-207 53.5z" />
    <glyph glyph-name="uni01C9" unicode="&#x1c9;" horiz-adv-x="1392" 
d="M116 0v1616h464v-1616h-464zM666 -284q81 98 113.5 202.5t32.5 261.5v920h464v-904q0 -194 -73.5 -353.5t-248.5 -318.5zM827 1259.5q-67 53.5 -67 158.5t67 158.5t207 53.5t207 -53.5t67 -158.5t-67 -158.5t-207 -53.5t-207 53.5z" />
    <glyph glyph-name="uni01CA" unicode="&#x1ca;" horiz-adv-x="2540" 
d="M1226 1480h448v-1480h-476l-620 834v-834h-448v1480h476l620 -834v834zM1792 -162q81 98 113.5 202.5t32.5 261.5v1178h472v-1162q0 -195 -74.5 -356.5t-251.5 -319.5z" />
    <glyph glyph-name="uni01CB" unicode="&#x1cb;" horiz-adv-x="2500" 
d="M1226 1480h448v-1480h-476l-620 834v-834h-448v1480h476l620 -834v834zM1774 -284q81 98 113.5 202.5t32.5 261.5v920h464v-904q0 -194 -73.5 -353.5t-248.5 -318.5zM1935 1259.5q-67 53.5 -67 158.5t67 158.5t207 53.5t207 -53.5t67 -158.5t-67 -158.5t-207 -53.5
t-207 53.5z" />
    <glyph glyph-name="uni01CC" unicode="&#x1cc;" horiz-adv-x="2158" 
d="M116 1100h378l28 -96h20q65 54 156.5 84t195.5 30q212 0 336 -125.5t124 -384.5v-608h-464v582q0 84 -32.5 118t-101.5 34q-52 0 -98.5 -17.5t-77.5 -46.5v-670h-464v1100zM1432 -284q81 98 113.5 202.5t32.5 261.5v920h464v-904q0 -194 -73.5 -353.5t-248.5 -318.5z
M1593 1259.5q-67 53.5 -67 158.5t67 158.5t207 53.5t207 -53.5t67 -158.5t-67 -158.5t-207 -53.5t-207 53.5z" />
    <glyph glyph-name="Gcaron" unicode="&#x1e6;" horiz-adv-x="1678" 
d="M1540 720v-700q-243 -40 -444 -40q-511 0 -761.5 190t-250.5 562q0 238 114 410t345.5 265t576.5 93q87 0 182.5 -8t179.5 -24v-376q-152 28 -326 28q-210 -1 -337.5 -45.5t-184 -131t-56.5 -219.5q0 -177 119.5 -272.5t370.5 -95.5h30v364h442zM1100 1902h364l-332 -316
h-384l-332 316h364l160 -155z" />
    <glyph glyph-name="gcaron" unicode="&#x1e7;" horiz-adv-x="1490" 
d="M380.5 -448.5q-115.5 11.5 -232.5 38.5v348q118 -29 234 -43.5t206 -14.5q175 0 248.5 47.5t73.5 144.5v46h-20q-124 -112 -326 -112q-136 0 -249.5 62t-181 179.5t-67.5 278.5q0 183 85 316t253 204.5t412 71.5q142 0 294.5 -19t263.5 -53v-882q0 -216 -79.5 -353.5
t-245 -204t-425.5 -66.5q-128 0 -243.5 11.5zM826.5 379.5q45.5 9.5 83.5 28.5v356q-63 14 -134 14q-123 0 -187.5 -55.5t-64.5 -160.5q0 -192 210 -192q47 0 92.5 9.5zM910 1616h334l-286 -396h-356l-286 396h334l130 -187z" />
    <glyph glyph-name="uni01EA" unicode="&#x1ea;" horiz-adv-x="1892" 
d="M1405.5 1407.5q194.5 -92.5 298.5 -264t104 -403.5q0 -207 -80 -360t-215 -245t-305 -129q-288 -63 -288 -202q0 -47 36 -72.5t112 -25.5q57 0 132 24v-160q-97 -30 -204 -30q-165 0 -248.5 60.5t-83.5 165.5q0 137 135 221q-222 24 -383 121.5t-246.5 259t-85.5 372.5
q0 233 103.5 404.5t298 263.5t460.5 92q265 0 459.5 -92.5zM1227 447.5q97 99.5 97 284.5q0 195 -98.5 297.5t-279.5 102.5t-279.5 -98t-98.5 -286q0 -200 96 -300t282 -100q184 0 281 99.5z" />
    <glyph glyph-name="uni01EB" unicode="&#x1eb;" horiz-adv-x="1464" 
d="M1092 1050.5q150 -67.5 228 -195.5t78 -305q0 -196 -103 -334t-285 -198q-108 -36 -167.5 -70.5t-82 -68.5t-22.5 -73q0 -47 32.5 -73.5t95.5 -26.5q59 0 118 24v-160q-45 -15 -88 -22.5t-102 -7.5q-154 0 -233 60.5t-79 165.5q0 68 31 122.5t96 96.5
q-166 21 -288.5 94.5t-188.5 193.5t-66 277q0 177 78 305t228 195.5t360 67.5t360 -67.5zM887.5 381q52.5 55 52.5 169t-52 167t-156 53t-156 -53t-52 -167t52.5 -169t155.5 -55t155.5 55z" />
    <glyph glyph-name="uni01F1" unicode="&#x1f1;" horiz-adv-x="3224" 
d="M379.5 -7q-137.5 7 -249.5 21v1418q120 28 289 45t321 17q486 0 731 -185t245 -569q0 -269 -118 -435t-356.5 -242.5t-609.5 -76.5q-115 0 -252.5 7zM1031 396q103 40 152 125t49 223q0 198 -114.5 290t-355.5 92q-34 0 -78.5 -4t-77.5 -10v-752q48 -4 156 -4
q166 0 269 40zM2441 368h699v-368h-1314v254l689 858h-679v368h1294v-254z" />
    <glyph glyph-name="uni01F2" unicode="&#x1f2;" horiz-adv-x="3074" 
d="M379.5 -7q-137.5 7 -249.5 21v1418q120 28 289 45t321 17q486 0 731 -185t245 -569q0 -269 -118 -435t-356.5 -242.5t-609.5 -76.5q-115 0 -252.5 7zM1031 396q103 40 152 125t49 223q0 198 -114.5 290t-355.5 92q-34 0 -78.5 -4t-77.5 -10v-752q48 -4 156 -4
q166 0 269 40zM2516 360h490v-360h-1114v300l480 440h-470v360h1094v-300z" />
    <glyph glyph-name="uni01F3" unicode="&#x1f3;" horiz-adv-x="2764" 
d="M330 40q-121 58 -192.5 180t-71.5 306q0 185 82 319.5t234 205.5t358 71q70 0 170 -8v502h464v-1616h-386l-24 106h-20q-65 -58 -151 -91t-191 -33q-151 0 -272 58zM829 358q47 12 81 36v374q-72 12 -136 12q-127 0 -188.5 -56t-61.5 -168q0 -210 208 -210q50 0 97 12z
M2206 360h490v-360h-1114v300l480 440h-470v360h1094v-300z" />
    <glyph glyph-name="uni01F4" unicode="&#x1f4;" horiz-adv-x="1678" 
d="M1540 720v-700q-243 -40 -444 -40q-511 0 -761.5 190t-250.5 562q0 238 114 410t345.5 265t576.5 93q87 0 182.5 -8t179.5 -24v-376q-152 28 -326 28q-210 -1 -337.5 -45.5t-184 -131t-56.5 -219.5q0 -177 119.5 -272.5t370.5 -95.5h30v364h442zM726 1586l204 316h488
l-272 -316h-420z" />
    <glyph glyph-name="uni01F5" unicode="&#x1f5;" horiz-adv-x="1490" 
d="M380.5 -448.5q-115.5 11.5 -232.5 38.5v348q118 -29 234 -43.5t206 -14.5q175 0 248.5 47.5t73.5 144.5v46h-20q-124 -112 -326 -112q-136 0 -249.5 62t-181 179.5t-67.5 278.5q0 183 85 316t253 204.5t412 71.5q142 0 294.5 -19t263.5 -53v-882q0 -216 -79.5 -353.5
t-245 -204t-425.5 -66.5q-128 0 -243.5 11.5zM826.5 379.5q45.5 9.5 83.5 28.5v356q-63 14 -134 14q-123 0 -187.5 -55.5t-64.5 -160.5q0 -192 210 -192q47 0 92.5 9.5zM560 1220l258 396h508l-326 -396h-440z" />
    <glyph glyph-name="Aringacute" unicode="&#x1fa;" horiz-adv-x="1760" 
d="M1280 0l-110 334h-584l-110 -334h-460l520 1480h688l520 -1480h-464zM701 684h354l-177 539zM1082 1893q24 -45 24 -103q0 -63 -29.5 -113t-81.5 -78.5t-117 -28.5t-117 28.5t-81.5 78.5t-29.5 113t29.5 113t81.5 78.5t117 28.5q14 0 21 -1l97 127h296zM934.5 1730.5
q21.5 22.5 21.5 59.5t-21.5 59.5t-56.5 22.5t-56.5 -22.5t-21.5 -59.5t21.5 -59.5t56.5 -22.5t56.5 22.5z" />
    <glyph glyph-name="aringacute" unicode="&#x1fb;" horiz-adv-x="1344" 
d="M968 1067q139 -51 203.5 -169.5t64.5 -323.5v-574h-384l-30 90h-20q-109 -112 -314 -112q-140 0 -236.5 43.5t-145 119t-48.5 171.5q0 164 135 254.5t419 103.5l163 8q-16 60 -76.5 86t-186.5 26q-74 0 -168 -12t-172 -34v322q97 26 211 39t213 13q233 0 372 -51z
M782 300v144l-124 -6q-76 -4 -109 -26.5t-33 -61.5q0 -36 31.5 -57t92.5 -21q86 0 142 28zM872 1537q24 -45 24 -103q0 -63 -29.5 -113t-81.5 -78.5t-117 -28.5t-117 28.5t-81.5 78.5t-29.5 113t29.5 113t81.5 78.5t117 28.5q14 0 21 -1l97 127h296zM724.5 1374.5
q21.5 22.5 21.5 59.5t-21.5 59.5t-56.5 22.5t-56.5 -22.5t-21.5 -59.5t21.5 -59.5t56.5 -22.5t56.5 22.5z" />
    <glyph glyph-name="AEacute" unicode="&#x1fc;" horiz-adv-x="2382" 
d="M1562 350h734v-350h-1180l-29 334h-502l-109 -334h-460l520 1480h1750v-350h-802l20 -200h676v-350h-641zM700 684h357l-39 446h-172zM1022 1586l204 316h488l-272 -316h-420z" />
    <glyph glyph-name="aeacute" unicode="&#x1fd;" horiz-adv-x="2034" 
d="M1978 428h-739q8 -48 41 -75t106.5 -39t205.5 -12q139 0 310 24v-318q-177 -30 -384 -30q-196 0 -337 36t-231 109q-89 -72 -197.5 -108.5t-224.5 -36.5q-159 0 -264 43.5t-155.5 119t-50.5 173.5q0 169 136.5 261.5t417.5 92.5h165q-9 45 -38 71.5t-83.5 38.5t-143.5 12
q-74 0 -168 -12t-172 -34v322q99 26 203 39t201 13q163 0 275.5 -29t184.5 -93q74 59 172 90.5t214 31.5q178 0 302.5 -71t189 -203.5t64.5 -313.5v-102zM1277.5 803q-38.5 -43 -41.5 -135h316q-4 91 -42.5 134.5t-115.5 43.5q-78 0 -116.5 -43zM547.5 291.5
q31.5 -19.5 94.5 -19.5q50 0 90 11t83 38q-16 46 -26 111h-133q-75 0 -107.5 -22t-32.5 -62q0 -37 31.5 -56.5zM802 1220l258 396h508l-326 -396h-440z" />
    <glyph glyph-name="Oslashacute" unicode="&#x1fe;" horiz-adv-x="1892" 
d="M1755.5 1039q52.5 -135 52.5 -299q0 -232 -104 -403.5t-298.5 -264t-459.5 -92.5q-270 0 -467 96l-129 -138l-168 154l108 115q-101 98 -153.5 233t-52.5 300q0 233 103.5 404.5t298 263.5t460.5 92q267 0 467 -96l129 138l168 -154l-108 -115q101 -99 153.5 -234z
M604 542l522 556q-75 34 -180 34q-181 0 -279.5 -98t-98.5 -286q0 -122 36 -206zM1227 447.5q97 99.5 97 284.5q0 117 -37 205l-522 -557q78 -32 181 -32q184 0 281 99.5zM728 1586l204 316h488l-272 -316h-420z" />
    <glyph glyph-name="oslashacute" unicode="&#x1ff;" horiz-adv-x="1464" 
d="M1349.5 798.5q48.5 -109.5 48.5 -248.5q0 -176 -82.5 -305t-233 -198t-350.5 -69q-158 0 -287 44l-89 -112l-158 130l64 80q-95 74 -145.5 183.5t-50.5 246.5q0 177 78 305t228 195.5t360 67.5q162 0 290 -41l90 113l158 -130l-63 -79q94 -73 142.5 -182.5zM572.5 720.5
q-52.5 -53.5 -52.5 -170.5q0 -62 15 -109l260 328q-32 5 -63 5q-107 0 -159.5 -53.5zM891 377.5q53 55.5 53 172.5q0 60 -14 105l-260 -328q32 -5 62 -5q106 0 159 55.5zM508 1220l258 396h508l-326 -396h-440z" />
    <glyph glyph-name="uni0200" unicode="&#x200;" horiz-adv-x="1760" 
d="M1280 0l-110 334h-584l-110 -334h-460l520 1480h688l520 -1480h-464zM701 684h354l-177 539zM480 1586l-188 316h348l164 -316h-324zM952 1586l-188 316h348l164 -316h-324z" />
    <glyph glyph-name="uni0201" unicode="&#x201;" horiz-adv-x="1344" 
d="M968 1067q139 -51 203.5 -169.5t64.5 -323.5v-574h-384l-30 90h-20q-109 -112 -314 -112q-140 0 -236.5 43.5t-145 119t-48.5 171.5q0 164 135 254.5t419 103.5l163 8q-16 60 -76.5 86t-186.5 26q-74 0 -168 -12t-172 -34v322q97 26 211 39t213 13q233 0 372 -51z
M782 300v144l-124 -6q-76 -4 -109 -26.5t-33 -61.5q0 -36 31.5 -57t92.5 -21q86 0 142 28zM270 1220l-188 396h348l164 -396h-324zM742 1220l-188 396h348l164 -396h-324z" />
    <glyph glyph-name="uni0202" unicode="&#x202;" horiz-adv-x="1760" 
d="M1280 0l-110 334h-584l-110 -334h-460l520 1480h688l520 -1480h-464zM701 684h354l-177 539zM537.5 1815q119.5 87 340.5 87t340.5 -87t143.5 -229h-274q-16 50 -67.5 79t-142.5 29t-142.5 -29t-67.5 -79h-274q24 142 143.5 229z" />
    <glyph glyph-name="uni0203" unicode="&#x203;" horiz-adv-x="1344" 
d="M968 1067q139 -51 203.5 -169.5t64.5 -323.5v-574h-384l-30 90h-20q-109 -112 -314 -112q-140 0 -236.5 43.5t-145 119t-48.5 171.5q0 164 135 254.5t419 103.5l163 8q-16 60 -76.5 86t-186.5 26q-74 0 -168 -12t-172 -34v322q97 26 211 39t213 13q233 0 372 -51z
M782 300v144l-124 -6q-76 -4 -109 -26.5t-33 -61.5q0 -36 31.5 -57t92.5 -21q86 0 142 28zM336.5 1522q117.5 98 331.5 98t331.5 -98t128.5 -274h-270q-9 76 -55 115t-135 39t-135 -39t-55 -115h-270q11 176 128.5 274z" />
    <glyph glyph-name="uni0204" unicode="&#x204;" horiz-adv-x="1498" 
d="M600 350h812v-350h-1282v1480h1272v-350h-802v-200h696v-350h-696v-230zM390 1586l-188 316h348l164 -316h-324zM862 1586l-188 316h348l164 -316h-324z" />
    <glyph glyph-name="uni0205" unicode="&#x205;" horiz-adv-x="1326" 
d="M1270 428h-747q8 -48 41.5 -75t108.5 -39t211 -12q139 0 310 24v-318q-177 -30 -384 -30q-259 0 -423 60.5t-242.5 186t-78.5 321.5q0 174 72 303t212 199t340 70q189 0 319 -71t195.5 -203t65.5 -314v-102zM562.5 803q-39.5 -43 -42.5 -135h324q-4 92 -43 135t-119 43
t-119.5 -43zM284 1220l-188 396h348l164 -396h-324zM756 1220l-188 396h348l164 -396h-324z" />
    <glyph glyph-name="uni0206" unicode="&#x206;" horiz-adv-x="1498" 
d="M600 350h812v-350h-1282v1480h1272v-350h-802v-200h696v-350h-696v-230zM447.5 1815q119.5 87 340.5 87t340.5 -87t143.5 -229h-274q-16 50 -67.5 79t-142.5 29t-142.5 -29t-67.5 -79h-274q24 142 143.5 229z" />
    <glyph glyph-name="uni0207" unicode="&#x207;" horiz-adv-x="1326" 
d="M1270 428h-747q8 -48 41.5 -75t108.5 -39t211 -12q139 0 310 24v-318q-177 -30 -384 -30q-259 0 -423 60.5t-242.5 186t-78.5 321.5q0 174 72 303t212 199t340 70q189 0 319 -71t195.5 -203t65.5 -314v-102zM562.5 803q-39.5 -43 -42.5 -135h324q-4 92 -43 135t-119 43
t-119.5 -43zM350.5 1522q117.5 98 331.5 98t331.5 -98t128.5 -274h-270q-9 76 -55 115t-135 39t-135 -39t-55 -115h-270q11 176 128.5 274z" />
    <glyph glyph-name="uni0208" unicode="&#x208;" horiz-adv-x="736" 
d="M130 0v1480h476v-1480h-476zM-30 1586l-188 316h348l164 -316h-324zM442 1586l-188 316h348l164 -316h-324z" />
    <glyph glyph-name="uni0209" unicode="&#x209;" horiz-adv-x="696" 
d="M116 0v1100h464v-1100h-464zM-50 1220l-188 396h348l164 -396h-324zM422 1220l-188 396h348l164 -396h-324z" />
    <glyph glyph-name="uni020A" unicode="&#x20a;" horiz-adv-x="736" 
d="M130 0v1480h476v-1480h-476zM27.5 1815q119.5 87 340.5 87t340.5 -87t143.5 -229h-274q-16 50 -67.5 79t-142.5 29t-142.5 -29t-67.5 -79h-274q24 142 143.5 229z" />
    <glyph glyph-name="uni020B" unicode="&#x20b;" horiz-adv-x="696" 
d="M116 0v1100h464v-1100h-464zM16.5 1522q117.5 98 331.5 98t331.5 -98t128.5 -274h-270q-9 76 -55 115t-135 39t-135 -39t-55 -115h-270q11 176 128.5 274z" />
    <glyph glyph-name="uni020C" unicode="&#x20c;" horiz-adv-x="1892" 
d="M486.5 72q-194.5 92 -298.5 263.5t-104 404.5t103.5 404.5t298 263.5t460.5 92q265 0 459.5 -92.5t298.5 -264t104 -403.5t-104 -403.5t-298.5 -264t-459.5 -92.5t-459.5 92zM1227 447.5q97 99.5 97 284.5q0 195 -98.5 297.5t-279.5 102.5t-279.5 -98t-98.5 -286
q0 -200 96 -300t282 -100q184 0 281 99.5zM548 1586l-188 316h348l164 -316h-324zM1020 1586l-188 316h348l164 -316h-324z" />
    <glyph glyph-name="uni020D" unicode="&#x20d;" horiz-adv-x="1464" 
d="M381.5 47q-150.5 69 -233 198t-82.5 305q0 177 78 305t228 195.5t360 67.5t360 -67.5t228 -195.5t78 -305q0 -176 -82.5 -305t-233 -198t-350.5 -69t-350.5 69zM887.5 381q52.5 55 52.5 169t-52 167t-156 53t-156 -53t-52 -167t52.5 -169t155.5 -55t155.5 55zM334 1220
l-188 396h348l164 -396h-324zM806 1220l-188 396h348l164 -396h-324z" />
    <glyph glyph-name="uni020E" unicode="&#x20e;" horiz-adv-x="1892" 
d="M486.5 72q-194.5 92 -298.5 263.5t-104 404.5t103.5 404.5t298 263.5t460.5 92q265 0 459.5 -92.5t298.5 -264t104 -403.5t-104 -403.5t-298.5 -264t-459.5 -92.5t-459.5 92zM1227 447.5q97 99.5 97 284.5q0 195 -98.5 297.5t-279.5 102.5t-279.5 -98t-98.5 -286
q0 -200 96 -300t282 -100q184 0 281 99.5zM605.5 1815q119.5 87 340.5 87t340.5 -87t143.5 -229h-274q-16 50 -67.5 79t-142.5 29t-142.5 -29t-67.5 -79h-274q24 142 143.5 229z" />
    <glyph glyph-name="uni020F" unicode="&#x20f;" horiz-adv-x="1464" 
d="M381.5 47q-150.5 69 -233 198t-82.5 305q0 177 78 305t228 195.5t360 67.5t360 -67.5t228 -195.5t78 -305q0 -176 -82.5 -305t-233 -198t-350.5 -69t-350.5 69zM887.5 381q52.5 55 52.5 169t-52 167t-156 53t-156 -53t-52 -167t52.5 -169t155.5 -55t155.5 55zM400.5 1522
q117.5 98 331.5 98t331.5 -98t128.5 -274h-270q-9 76 -55 115t-135 39t-135 -39t-55 -115h-270q11 176 128.5 274z" />
    <glyph glyph-name="uni0210" unicode="&#x210;" horiz-adv-x="1578" 
d="M1060 0l-356 492q-75 2 -108 4v-496h-466v1432q121 29 280.5 48.5t287.5 19.5q363 0 548.5 -122.5t185.5 -379.5q0 -149 -70 -256t-201 -169l421 -573h-522zM596 830q83 -10 158 -10q121 0 179.5 41.5t58.5 136.5q0 91 -61.5 134.5t-188.5 43.5q-69 0 -146 -14v-332z
M398 1586l-188 316h348l164 -316h-324zM870 1586l-188 316h348l164 -316h-324z" />
    <glyph glyph-name="uni0211" unicode="&#x211;" horiz-adv-x="958" 
d="M116 1100h376l36 -124h20q46 71 122 106.5t176 35.5q48 0 100 -8v-406q-50 10 -128 10q-70 0 -136 -19t-102 -53v-642h-464v1100zM134 1220l-188 396h348l164 -396h-324zM606 1220l-188 396h348l164 -396h-324z" />
    <glyph glyph-name="uni0212" unicode="&#x212;" horiz-adv-x="1578" 
d="M1060 0l-356 492q-75 2 -108 4v-496h-466v1432q121 29 280.5 48.5t287.5 19.5q363 0 548.5 -122.5t185.5 -379.5q0 -149 -70 -256t-201 -169l421 -573h-522zM596 830q83 -10 158 -10q121 0 179.5 41.5t58.5 136.5q0 91 -61.5 134.5t-188.5 43.5q-69 0 -146 -14v-332z
M455.5 1815q119.5 87 340.5 87t340.5 -87t143.5 -229h-274q-16 50 -67.5 79t-142.5 29t-142.5 -29t-67.5 -79h-274q24 142 143.5 229z" />
    <glyph glyph-name="uni0213" unicode="&#x213;" horiz-adv-x="958" 
d="M116 1100h376l36 -124h20q46 71 122 106.5t176 35.5q48 0 100 -8v-406q-50 10 -128 10q-70 0 -136 -19t-102 -53v-642h-464v1100zM200.5 1522q117.5 98 331.5 98t331.5 -98t128.5 -274h-270q-9 76 -55 115t-135 39t-135 -39t-55 -115h-270q11 176 128.5 274z" />
    <glyph glyph-name="uni0214" unicode="&#x214;" horiz-adv-x="1756" 
d="M306 163q-182 183 -182 531v786h476v-824q0 -153 70 -226.5t212 -73.5t212 73.5t70 226.5v824h468v-786q0 -347 -181 -530.5t-569 -183.5q-394 0 -576 183zM484 1586l-188 316h348l164 -316h-324zM956 1586l-188 316h348l164 -316h-324z" />
    <glyph glyph-name="uni0215" unicode="&#x215;" horiz-adv-x="1452" 
d="M236 107q-128 125 -128 385v608h464v-582q0 -84 31.5 -118t96.5 -34q49 0 95.5 17.5t76.5 46.5v670h464v-1100h-378l-28 96h-16q-68 -55 -152.5 -84.5t-175.5 -29.5q-222 0 -350 125zM324 1220l-188 396h348l164 -396h-324zM796 1220l-188 396h348l164 -396h-324z" />
    <glyph glyph-name="uni0216" unicode="&#x216;" horiz-adv-x="1756" 
d="M306 163q-182 183 -182 531v786h476v-824q0 -153 70 -226.5t212 -73.5t212 73.5t70 226.5v824h468v-786q0 -347 -181 -530.5t-569 -183.5q-394 0 -576 183zM541.5 1815q119.5 87 340.5 87t340.5 -87t143.5 -229h-274q-16 50 -67.5 79t-142.5 29t-142.5 -29t-67.5 -79
h-274q24 142 143.5 229z" />
    <glyph glyph-name="uni0217" unicode="&#x217;" horiz-adv-x="1452" 
d="M236 107q-128 125 -128 385v608h464v-582q0 -84 31.5 -118t96.5 -34q49 0 95.5 17.5t76.5 46.5v670h464v-1100h-378l-28 96h-16q-68 -55 -152.5 -84.5t-175.5 -29.5q-222 0 -350 125zM390.5 1522q117.5 98 331.5 98t331.5 -98t128.5 -274h-270q-9 76 -55 115t-135 39
t-135 -39t-55 -115h-270q11 176 128.5 274z" />
    <glyph glyph-name="Scommaaccent" unicode="&#x218;" horiz-adv-x="1378" 
d="M106 50v368q101 -34 248 -55t266 -21q90 0 140 12t69 33.5t19 54.5q0 27 -13 44.5t-48.5 31t-104.5 26.5l-144 28q-170 33 -274 92t-152 147t-48 209q0 234 187.5 357t558.5 123q230 0 418 -46v-368q-77 23 -187 37.5t-217 14.5q-165 0 -229.5 -27t-64.5 -75
q0 -24 11 -39.5t39.5 -27.5t83.5 -23l144 -28q184 -35 295.5 -97t161 -149t49.5 -206q0 -149 -84.5 -258.5t-242 -168.5t-371.5 -59q-273 0 -510 70zM952 -282q0 -62 -26.5 -127.5t-69.5 -110.5h-280q49 84 64 148q-98 8 -141 41.5t-43 90.5q0 67 60 101.5t188 34.5
q248 0 248 -178z" />
    <glyph glyph-name="scommaaccent" unicode="&#x219;" horiz-adv-x="1208" 
d="M307 -8q-120 14 -215 40v306q96 -26 215.5 -41t234.5 -15q97 0 136.5 13.5t39.5 40.5q0 17 -12 25.5t-48 12.5l-236 30q-193 25 -276.5 107t-83.5 225q0 181 162.5 281.5t493.5 100.5q98 0 201.5 -12t172.5 -32v-306q-71 20 -173.5 33t-196.5 13q-133 0 -178.5 -16
t-45.5 -42q0 -14 13 -22t49 -12l236 -30q118 -15 196.5 -51t120 -105t41.5 -180q0 -118 -70.5 -203t-206 -130t-327.5 -45q-123 0 -243 14zM866 -282q0 -62 -26.5 -127.5t-69.5 -110.5h-280q49 84 64 148q-98 8 -141 41.5t-43 90.5q0 67 60 101.5t188 34.5q248 0 248 -178z
" />
    <glyph glyph-name="uni021A" unicode="&#x21a;" horiz-adv-x="1532" 
d="M528 0v1112h-506v368h1488v-368h-506v-1112h-476zM1014 -282q0 -62 -26.5 -127.5t-69.5 -110.5h-280q49 84 64 148q-98 8 -141 41.5t-43 90.5q0 67 60 101.5t188 34.5q248 0 248 -178z" />
    <glyph glyph-name="uni021B" unicode="&#x21b;" horiz-adv-x="1024" 
d="M686 740v-228q0 -66 16 -103t50.5 -52t95.5 -15q45 0 114 12v-348q-55 -12 -124 -20t-128 -8q-241 0 -364.5 112t-123.5 334v316h-180v360h180l86 380h378v-380h276v-360h-276zM840 -282q0 -62 -26.5 -127.5t-69.5 -110.5h-280q49 84 64 148q-98 8 -141 41.5t-43 90.5
q0 67 60 101.5t188 34.5q248 0 248 -178z" />
    <glyph glyph-name="uni022A" unicode="&#x22a;" horiz-adv-x="1892" 
d="M486.5 72q-194.5 92 -298.5 263.5t-104 404.5t103.5 404.5t298 263.5t460.5 92q265 0 459.5 -92.5t298.5 -264t104 -403.5t-104 -403.5t-298.5 -264t-459.5 -92.5t-459.5 92zM1227 447.5q97 99.5 97 284.5q0 195 -98.5 297.5t-279.5 102.5t-279.5 -98t-98.5 -286
q0 -200 96 -300t282 -100q184 0 281 99.5zM477.5 1616.5q-55.5 46.5 -55.5 133.5t55.5 133.5t172.5 46.5t172.5 -46.5t55.5 -133.5t-55.5 -133.5t-172.5 -46.5t-172.5 46.5zM1069.5 1616.5q-55.5 46.5 -55.5 133.5t55.5 133.5t172.5 46.5t172.5 -46.5t55.5 -133.5
t-55.5 -133.5t-172.5 -46.5t-172.5 46.5zM502 2020v250h888v-250h-888z" />
    <glyph glyph-name="uni022B" unicode="&#x22b;" horiz-adv-x="1464" 
d="M381.5 47q-150.5 69 -233 198t-82.5 305q0 177 78 305t228 195.5t360 67.5t360 -67.5t228 -195.5t78 -305q0 -176 -82.5 -305t-233 -198t-350.5 -69t-350.5 69zM887.5 381q52.5 55 52.5 169t-52 167t-156 53t-156 -53t-52 -167t52.5 -169t155.5 -55t155.5 55zM269.5 1264
q-57.5 54 -57.5 154t57.5 154t176.5 54t176.5 -54t57.5 -154t-57.5 -154t-176.5 -54t-176.5 54zM841.5 1264q-57.5 54 -57.5 154t57.5 154t176.5 54t176.5 -54t57.5 -154t-57.5 -154t-176.5 -54t-176.5 54zM316 1710v250h832v-250h-832z" />
    <glyph glyph-name="uni022C" unicode="&#x22c;" horiz-adv-x="1892" 
d="M486.5 72q-194.5 92 -298.5 263.5t-104 404.5t103.5 404.5t298 263.5t460.5 92q265 0 459.5 -92.5t298.5 -264t104 -403.5t-104 -403.5t-298.5 -264t-459.5 -92.5t-459.5 92zM1227 447.5q97 99.5 97 284.5q0 195 -98.5 297.5t-279.5 102.5t-279.5 -98t-98.5 -286
q0 -200 96 -300t282 -100q184 0 281 99.5zM1044 1595q-46 9 -115 28q-60 17 -103 26t-90 9q-69 0 -122 -15t-112 -49v232q50 40 108 58t138 18q55 0 102.5 -9.5t112.5 -28.5q63 -18 104.5 -27t88.5 -9q69 0 122 15t112 49v-232q-50 -39 -107.5 -56.5t-138.5 -17.5
q-54 0 -100 9zM502 2020v250h888v-250h-888z" />
    <glyph glyph-name="uni022D" unicode="&#x22d;" horiz-adv-x="1464" 
d="M381.5 47q-150.5 69 -233 198t-82.5 305q0 177 78 305t228 195.5t360 67.5t360 -67.5t228 -195.5t78 -305q0 -176 -82.5 -305t-233 -198t-350.5 -69t-350.5 69zM887.5 381q52.5 55 52.5 169t-52 167t-156 53t-156 -53t-52 -167t52.5 -169t155.5 -55t155.5 55z
M818.5 1253.5q-43.5 13.5 -103.5 39.5q-56 24 -94.5 36.5t-78.5 12.5q-65 0 -117 -21.5t-109 -70.5v262q49 45 106 65.5t132 20.5q48 0 91.5 -13.5t103.5 -39.5q56 -24 94.5 -36.5t78.5 -12.5q65 0 117 21.5t109 70.5v-262q-49 -45 -106 -65.5t-132 -20.5q-48 0 -91.5 13.5z
M316 1710v250h832v-250h-832z" />
    <glyph glyph-name="uni0230" unicode="&#x230;" horiz-adv-x="1892" 
d="M486.5 72q-194.5 92 -298.5 263.5t-104 404.5t103.5 404.5t298 263.5t460.5 92q265 0 459.5 -92.5t298.5 -264t104 -403.5t-104 -403.5t-298.5 -264t-459.5 -92.5t-459.5 92zM1227 447.5q97 99.5 97 284.5q0 195 -98.5 297.5t-279.5 102.5t-279.5 -98t-98.5 -286
q0 -200 96 -300t282 -100q184 0 281 99.5zM743 1618q-65 48 -65 132t65 132t203 48t203 -48t65 -132t-65 -132t-203 -48t-203 48zM502 2020v250h888v-250h-888z" />
    <glyph glyph-name="uni0231" unicode="&#x231;" horiz-adv-x="1464" 
d="M381.5 47q-150.5 69 -233 198t-82.5 305q0 177 78 305t228 195.5t360 67.5t360 -67.5t228 -195.5t78 -305q0 -176 -82.5 -305t-233 -198t-350.5 -69t-350.5 69zM887.5 381q52.5 55 52.5 169t-52 167t-156 53t-156 -53t-52 -167t52.5 -169t155.5 -55t155.5 55zM525 1259.5
q-67 53.5 -67 158.5t67 158.5t207 53.5t207 -53.5t67 -158.5t-67 -158.5t-207 -53.5t-207 53.5zM316 1714v250h832v-250h-832z" />
    <glyph glyph-name="uni0232" unicode="&#x232;" horiz-adv-x="1532" 
d="M1572 1480l-564 -872v-608h-476v602l-592 878h502l335 -507l327 507h468zM320 1620v250h888v-250h-888z" />
    <glyph glyph-name="uni0233" unicode="&#x233;" horiz-adv-x="1424" 
d="M986 1100h452l-628 -1540h-452l182 440h-108l-446 1100h488l256 -697zM296 1294v250h832v-250h-832z" />
    <glyph glyph-name="uni0237" unicode="&#x237;" horiz-adv-x="696" 
d="M-30 -284q81 98 113.5 202.5t32.5 261.5v920h464v-904q0 -194 -73.5 -353.5t-248.5 -318.5z" />
    <glyph glyph-name="uni0259" unicode="&#x259;" horiz-adv-x="1326" 
d="M939 1061.5q164 -60.5 242.5 -186t78.5 -321.5q0 -174 -72 -303t-212 -199t-340 -70q-189 0 -319 71t-195.5 203t-65.5 314v102h747q-8 48 -41.5 75t-108.5 39t-211 12q-139 0 -310 -24v318q178 30 384 30q259 0 423 -60.5zM763.5 297q39.5 43 42.5 135h-324
q4 -92 43 -135t119 -43t119.5 43z" />
    <glyph glyph-name="uni02BB" unicode="&#x2bb;" horiz-adv-x="1200" 
d="M805 1438.5q43 -33.5 43 -90.5q0 -67 -60 -101.5t-188 -34.5q-248 0 -248 178q0 62 26.5 127.5t69.5 110.5h280q-49 -84 -64 -148q98 -8 141 -41.5z" />
    <glyph glyph-name="uni02BC" unicode="&#x2bc;" horiz-adv-x="1200" 
d="M1096 1450q0 -62 -26.5 -127.5t-69.5 -110.5h-280q49 84 64 148q-98 8 -141 41.5t-43 90.5q0 67 60 101.5t188 34.5q248 0 248 -178z" />
    <glyph glyph-name="uni02BE" unicode="&#x2be;" horiz-adv-x="1200" 
d="M600 1352q35 0 56.5 22.5t21.5 59.5t-21.5 59.5t-56.5 22.5v138q65 0 117 -28.5t81.5 -78.5t29.5 -113t-29.5 -113t-81.5 -78.5t-117 -28.5v138z" />
    <glyph glyph-name="uni02BF" unicode="&#x2bf;" horiz-adv-x="1200" 
d="M483 1242.5q-52 28.5 -81.5 78.5t-29.5 113t29.5 113t81.5 78.5t117 28.5v-138q-35 0 -56.5 -22.5t-21.5 -59.5t21.5 -59.5t56.5 -22.5v-138q-65 0 -117 28.5z" />
    <glyph glyph-name="circumflex" unicode="&#x2c6;" horiz-adv-x="1200" 
d="M1064 1220h-334l-130 187l-130 -187h-334l286 396h356z" />
    <glyph glyph-name="caron" unicode="&#x2c7;" horiz-adv-x="1200" 
d="M730 1616h334l-286 -396h-356l-286 396h334l130 -187z" />
    <glyph glyph-name="uni02C8" unicode="&#x2c8;" horiz-adv-x="1200" 
d="M510 1218v400h180v-400h-180z" />
    <glyph glyph-name="uni02C9" unicode="&#x2c9;" horiz-adv-x="1200" 
d="M184 1294v250h832v-250h-832z" />
    <glyph glyph-name="uni02CA" unicode="&#x2ca;" horiz-adv-x="1200" 
d="M370 1220l258 396h528l-326 -396h-460z" />
    <glyph glyph-name="uni02CB" unicode="&#x2cb;" horiz-adv-x="1200" 
d="M370 1220l-326 396h528l258 -396h-460z" />
    <glyph glyph-name="uni02CC" unicode="&#x2cc;" horiz-adv-x="1200" 
d="M510 -440v400h180v-400h-180z" />
    <glyph glyph-name="breve" unicode="&#x2d8;" horiz-adv-x="1200" 
d="M268.5 1322q-117.5 98 -128.5 274h270q9 -76 55 -115t135 -39t135 39t55 115h270q-11 -176 -128.5 -274t-331.5 -98t-331.5 98z" />
    <glyph glyph-name="dotaccent" unicode="&#x2d9;" horiz-adv-x="1200" 
d="M393 1259.5q-67 53.5 -67 158.5t67 158.5t207 53.5t207 -53.5t67 -158.5t-67 -158.5t-207 -53.5t-207 53.5z" />
    <glyph glyph-name="ring" unicode="&#x2da;" horiz-adv-x="1200" 
d="M483 1242.5q-52 28.5 -81.5 78.5t-29.5 113t29.5 113t81.5 78.5t117 28.5t117 -28.5t81.5 -78.5t29.5 -113t-29.5 -113t-81.5 -78.5t-117 -28.5t-117 28.5zM656.5 1374.5q21.5 22.5 21.5 59.5t-21.5 59.5t-56.5 22.5t-56.5 -22.5t-21.5 -59.5t21.5 -59.5t56.5 -22.5
t56.5 22.5z" />
    <glyph glyph-name="ogonek" unicode="&#x2db;" horiz-adv-x="1200" 
d="M113 -399.5q-79 60.5 -79 165.5q0 107 84.5 187t285.5 125l112 -78q-125 -43 -175.5 -90.5t-50.5 -109.5q0 -43 32.5 -68.5t95.5 -25.5q59 0 118 24v-160q-45 -15 -88 -22.5t-102 -7.5q-154 0 -233 60.5z" />
    <glyph glyph-name="tilde" unicode="&#x2dc;" horiz-adv-x="1200" 
d="M686.5 1253.5q-43.5 13.5 -103.5 39.5q-56 24 -94.5 36.5t-78.5 12.5q-65 0 -117 -21.5t-109 -70.5v262q49 45 106 65.5t132 20.5q48 0 91.5 -13.5t103.5 -39.5q56 -24 94.5 -36.5t78.5 -12.5q65 0 117 21.5t109 70.5v-262q-49 -45 -106 -65.5t-132 -20.5
q-48 0 -91.5 13.5z" />
    <glyph glyph-name="hungarumlaut" unicode="&#x2dd;" horiz-adv-x="1200" 
d="M202 1220l164 396h348l-188 -396h-324zM674 1220l164 396h348l-188 -396h-324z" />
    <glyph glyph-name="gravecomb" unicode="&#x300;" horiz-adv-x="0" 
d="M-820 1220l-326 396h508l258 -396h-440z" />
    <glyph glyph-name="acutecomb" unicode="&#x301;" horiz-adv-x="0" 
d="M-820 1220l258 396h508l-326 -396h-440z" />
    <glyph glyph-name="uni0302" unicode="&#x302;" horiz-adv-x="0" 
d="M-136 1220h-334l-130 187l-130 -187h-334l286 396h356z" />
    <glyph glyph-name="tildecomb" unicode="&#x303;" horiz-adv-x="0" 
d="M-513.5 1253.5q-43.5 13.5 -103.5 39.5q-56 24 -94.5 36.5t-78.5 12.5q-65 0 -117 -21.5t-109 -70.5v262q49 45 106 65.5t132 20.5q48 0 91.5 -13.5t103.5 -39.5q56 -24 94.5 -36.5t78.5 -12.5q65 0 117 21.5t109 70.5v-262q-49 -45 -106 -65.5t-132 -20.5
q-48 0 -91.5 13.5z" />
    <glyph glyph-name="uni0304" unicode="&#x304;" horiz-adv-x="0" 
d="M-1016 1294v250h832v-250h-832z" />
    <glyph glyph-name="uni0306" unicode="&#x306;" horiz-adv-x="0" 
d="M-931.5 1322q-117.5 98 -128.5 274h270q9 -76 55 -115t135 -39t135 39t55 115h270q-11 -176 -128.5 -274t-331.5 -98t-331.5 98z" />
    <glyph glyph-name="uni0307" unicode="&#x307;" horiz-adv-x="0" 
d="M-807 1259.5q-67 53.5 -67 158.5t67 158.5t207 53.5t207 -53.5t67 -158.5t-67 -158.5t-207 -53.5t-207 53.5z" />
    <glyph glyph-name="uni0308" unicode="&#x308;" horiz-adv-x="0" 
d="M-1062.5 1264q-57.5 54 -57.5 154t57.5 154t176.5 54t176.5 -54t57.5 -154t-57.5 -154t-176.5 -54t-176.5 54zM-490.5 1264q-57.5 54 -57.5 154t57.5 154t176.5 54t176.5 -54t57.5 -154t-57.5 -154t-176.5 -54t-176.5 54z" />
    <glyph glyph-name="hookabovecomb" unicode="&#x309;" horiz-adv-x="0" 
d="M-689 1292q17 30 38.5 48.5t53.5 39.5q29 20 41 31.5t12 26.5q0 19 -20.5 26.5t-75.5 7.5q-87 0 -186 -24v154q42 13 105 19.5t115 6.5q148 0 217 -39t69 -123q0 -37 -12.5 -63.5t-31.5 -43.5t-49 -38q-38 -27 -56.5 -47.5t-22.5 -53.5h-216q2 42 19 72z" />
    <glyph glyph-name="uni030A" unicode="&#x30a;" horiz-adv-x="0" 
d="M-717 1242.5q-52 28.5 -81.5 78.5t-29.5 113t29.5 113t81.5 78.5t117 28.5t117 -28.5t81.5 -78.5t29.5 -113t-29.5 -113t-81.5 -78.5t-117 -28.5t-117 28.5zM-543.5 1374.5q21.5 22.5 21.5 59.5t-21.5 59.5t-56.5 22.5t-56.5 -22.5t-21.5 -59.5t21.5 -59.5t56.5 -22.5
t56.5 22.5z" />
    <glyph glyph-name="uni030B" unicode="&#x30b;" horiz-adv-x="0" 
d="M-998 1220l164 396h348l-188 -396h-324zM-526 1220l164 396h348l-188 -396h-324z" />
    <glyph glyph-name="uni030C" unicode="&#x30c;" horiz-adv-x="0" 
d="M-470 1616h334l-286 -396h-356l-286 396h334l130 -187z" />
    <glyph glyph-name="uni030F" unicode="&#x30f;" horiz-adv-x="0" 
d="M-998 1220l-188 396h348l164 -396h-324zM-526 1220l-188 396h348l164 -396h-324z" />
    <glyph glyph-name="uni0311" unicode="&#x311;" horiz-adv-x="0" 
d="M-931.5 1522q117.5 98 331.5 98t331.5 -98t128.5 -274h-270q-9 76 -55 115t-135 39t-135 -39t-55 -115h-270q11 176 128.5 274z" />
    <glyph glyph-name="uni0312" unicode="&#x312;" horiz-adv-x="0" 
d="M-395 1438.5q43 -33.5 43 -90.5q0 -67 -60 -101.5t-188 -34.5q-248 0 -248 178q0 62 26.5 127.5t69.5 110.5h280q-49 -84 -64 -148q98 -8 141 -41.5z" />
    <glyph glyph-name="uni031B" unicode="&#x31b;" horiz-adv-x="0" 
d="M-800 1480h174q100 0 149 34.5t49 115.5q0 61 -12 140h272q11 -44 14.5 -79t3.5 -73q0 -165 -94 -250.5t-260 -85.5h-296v198z" />
    <glyph glyph-name="dotbelowcomb" unicode="&#x323;" horiz-adv-x="0" 
d="M-776 -447.5q-58 52.5 -58 145.5t58 145.5t176 52.5t176 -52.5t58 -145.5t-58 -145.5t-176 -52.5t-176 52.5z" />
    <glyph glyph-name="uni0324" unicode="&#x324;" horiz-adv-x="0" 
d="M-1062.5 -466q-57.5 54 -57.5 154t57.5 154t176.5 54t176.5 -54t57.5 -154t-57.5 -154t-176.5 -54t-176.5 54zM-490.5 -466q-57.5 54 -57.5 154t57.5 154t176.5 54t176.5 -54t57.5 -154t-57.5 -154t-176.5 -54t-176.5 54z" />
    <glyph glyph-name="uni0326" unicode="&#x326;" horiz-adv-x="0" 
d="M-352 -282q0 -62 -26.5 -127.5t-69.5 -110.5h-280q49 84 64 148q-98 8 -141 41.5t-43 90.5q0 67 60 101.5t188 34.5q248 0 248 -178z" />
    <glyph glyph-name="uni0327" unicode="&#x327;" horiz-adv-x="0" 
d="M-352 -140.5q44 -49.5 44 -125.5q0 -91 -76.5 -142.5t-221.5 -51.5q-115 0 -208 32v154q37 -14 90 -22t96 -8q48 0 72 14t24 46t-23.5 46t-70.5 14h-62v204h202v-94q90 -17 134 -66.5z" />
    <glyph glyph-name="uni0328" unicode="&#x328;" horiz-adv-x="0" 
d="M-1087 -399.5q-79 60.5 -79 165.5q0 107 84.5 187t285.5 125l112 -78q-125 -43 -175.5 -90.5t-50.5 -109.5q0 -43 32.5 -68.5t95.5 -25.5q59 0 118 24v-160q-45 -15 -88 -22.5t-102 -7.5q-154 0 -233 60.5z" />
    <glyph glyph-name="uni032E" unicode="&#x32e;" horiz-adv-x="0" 
d="M-844 -441q-102 41 -157 118.5t-59 184.5h270q9 -126 190 -126t190 126h270q-4 -107 -59 -184.5t-157 -118.5t-244 -41t-244 41z" />
    <glyph glyph-name="uni0331" unicode="&#x331;" horiz-adv-x="0" 
d="M-1016 -422v248h832v-248h-832z" />
    <glyph glyph-name="uni0394" unicode="&#x394;" horiz-adv-x="1760" 
d="M1224 1480l520 -1480h-1728l520 1480h688zM1164 350l-286 873l-286 -873h572z" />
    <glyph glyph-name="uni03A9" unicode="&#x3a9;" horiz-adv-x="1892" 
d="M1617 342h191v-342h-744v264q129 106 194.5 224.5t65.5 259.5q0 186 -97.5 285t-280.5 99t-280.5 -99t-97.5 -285q0 -141 65.5 -259.5t194.5 -224.5v-264h-744v342h191q-191 173 -191 458q0 206 104.5 364.5t299.5 247t458 88.5t458 -88.5t299.5 -247t104.5 -364.5
q0 -285 -191 -458z" />
    <glyph glyph-name="uni03BC" unicode="&#x3bc;" horiz-adv-x="1452" 
d="M1336 1100v-1100h-378l-28 96h-16q-50 -54 -112.5 -84t-129.5 -30q-55 0 -100 13v-435h-464v1538h464v-580q0 -84 31.5 -118t96.5 -34q49 0 95.5 17.5t76.5 46.5v670h464z" />
    <glyph glyph-name="pi" unicode="&#x3c0;" horiz-adv-x="1718" 
d="M1656 354v-348q-55 -12 -124 -20t-128 -8q-241 0 -364.5 112t-123.5 334v316h-230v-740h-464v740h-180v360h1518v-360h-180v-228q0 -66 16 -103t50.5 -52t95.5 -15q45 0 114 12z" />
    <glyph glyph-name="uni1E08" unicode="&#x1e08;" horiz-adv-x="1488" 
d="M1358 1902l-272 -316h-420l204 316h488zM705 1024.5q-123 -95.5 -123 -284.5q0 -188 119.5 -284t376.5 -96q162 0 338 36v-376q-84 -19 -179.5 -29.5t-188.5 -10.5q-32 0 -94 2v-54q101 -15 149.5 -63.5t48.5 -124.5q0 -94 -81 -147t-237 -53q-119 0 -228 32v154
q47 -15 101.5 -22.5t104.5 -7.5q59 0 87.5 13.5t28.5 44.5q0 33 -28 47.5t-86 14.5h-62v186q-332 55 -500 240t-168 494q0 235 110.5 406.5t328.5 264.5t535 93q192 0 358 -32v-376q-152 28 -318 28q-270 0 -393 -95.5z" />
    <glyph glyph-name="uni1E09" unicode="&#x1e09;" horiz-adv-x="1194" 
d="M1194 1616l-326 -396h-440l258 396h508zM151 854.5q85 128.5 252 196t409 67.5q176 0 314 -30v-348q-80 11 -140.5 16.5t-125.5 5.5q-168 0 -245 -54.5t-77 -161.5q0 -103 76.5 -157.5t225.5 -54.5q65 0 127 7.5t159 26.5v-348q-65 -19 -151.5 -30.5t-182.5 -11.5h-2v-52
q90 -17 134 -66.5t44 -125.5q0 -91 -76.5 -142.5t-221.5 -51.5q-115 0 -208 32v154q37 -14 90 -22t96 -8q48 0 72 14t24 46t-23.5 46t-70.5 14h-62v177q-255 40 -388.5 182t-133.5 371q0 180 85 308.5z" />
    <glyph glyph-name="uni1E0C" unicode="&#x1e0c;" horiz-adv-x="1800" 
d="M379.5 -7q-137.5 7 -249.5 21v1418q120 28 289 45t321 17q486 0 731 -185t245 -569q0 -269 -118 -435t-356.5 -242.5t-609.5 -76.5q-115 0 -252.5 7zM1031 396q103 40 152 125t49 223q0 198 -114.5 290t-355.5 92q-34 0 -78.5 -4t-77.5 -10v-752q48 -4 156 -4
q166 0 269 40zM591 -416q-65 48 -65 132t65 132t203 48t203 -48t65 -132t-65 -132t-203 -48t-203 48z" />
    <glyph glyph-name="uni1E0D" unicode="&#x1e0d;" horiz-adv-x="1490" 
d="M330 40q-121 58 -192.5 180t-71.5 306q0 185 82 319.5t234 205.5t358 71q70 0 170 -8v502h464v-1616h-386l-24 106h-20q-65 -58 -151 -91t-191 -33q-151 0 -272 58zM829 358q47 12 81 36v374q-72 12 -136 12q-127 0 -188.5 -56t-61.5 -168q0 -210 208 -210q50 0 97 12z
M584 -447.5q-58 52.5 -58 145.5t58 145.5t176 52.5t176 -52.5t58 -145.5t-58 -145.5t-176 -52.5t-176 52.5z" />
    <glyph glyph-name="uni1E0E" unicode="&#x1e0e;" horiz-adv-x="1800" 
d="M379.5 -7q-137.5 7 -249.5 21v1418q120 28 289 45t321 17q486 0 731 -185t245 -569q0 -269 -118 -435t-356.5 -242.5t-609.5 -76.5q-115 0 -252.5 7zM1031 396q103 40 152 125t49 223q0 198 -114.5 290t-355.5 92q-34 0 -78.5 -4t-77.5 -10v-752q48 -4 156 -4
q166 0 269 40zM350 -398v250h888v-250h-888z" />
    <glyph glyph-name="uni1E0F" unicode="&#x1e0f;" horiz-adv-x="1490" 
d="M330 40q-121 58 -192.5 180t-71.5 306q0 185 82 319.5t234 205.5t358 71q70 0 170 -8v502h464v-1616h-386l-24 106h-20q-65 -58 -151 -91t-191 -33q-151 0 -272 58zM829 358q47 12 81 36v374q-72 12 -136 12q-127 0 -188.5 -56t-61.5 -168q0 -210 208 -210q50 0 97 12z
M344 -422v248h832v-248h-832z" />
    <glyph glyph-name="uni1E14" unicode="&#x1e14;" horiz-adv-x="1498" 
d="M600 350h812v-350h-1282v1480h1272v-350h-802v-200h696v-350h-696v-230zM548 1986l-272 232h548l204 -232h-480zM344 1620v250h888v-250h-888z" />
    <glyph glyph-name="uni1E15" unicode="&#x1e15;" horiz-adv-x="1326" 
d="M1270 428h-747q8 -48 41.5 -75t108.5 -39t211 -12q139 0 310 24v-318q-177 -30 -384 -30q-259 0 -423 60.5t-242.5 186t-78.5 321.5q0 174 72 303t212 199t340 70q189 0 319 -71t195.5 -203t65.5 -314v-102zM562.5 803q-39.5 -43 -42.5 -135h324q-4 92 -43 135t-119 43
t-119.5 -43zM266 1294v250h832v-250h-832zM472 1682l-272 316h488l204 -316h-420z" />
    <glyph glyph-name="uni1E16" unicode="&#x1e16;" horiz-adv-x="1498" 
d="M600 350h812v-350h-1282v1480h1272v-350h-802v-200h696v-350h-696v-230zM548 1986l204 232h548l-272 -232h-480zM344 1620v250h888v-250h-888z" />
    <glyph glyph-name="uni1E17" unicode="&#x1e17;" horiz-adv-x="1326" 
d="M1270 428h-747q8 -48 41.5 -75t108.5 -39t211 -12q139 0 310 24v-318q-177 -30 -384 -30q-259 0 -423 60.5t-242.5 186t-78.5 321.5q0 174 72 303t212 199t340 70q189 0 319 -71t195.5 -203t65.5 -314v-102zM562.5 803q-39.5 -43 -42.5 -135h324q-4 92 -43 135t-119 43
t-119.5 -43zM266 1294v250h832v-250h-832zM468 1682l204 316h488l-272 -316h-420z" />
    <glyph glyph-name="uni1E1C" unicode="&#x1e1c;" horiz-adv-x="1498" 
d="M447.5 1673q-119.5 87 -143.5 229h274q16 -50 67.5 -79t142.5 -29t142.5 29t67.5 79h274q-24 -142 -143.5 -229t-340.5 -87t-340.5 87zM862 0v-72q101 -15 149.5 -63.5t48.5 -124.5q0 -94 -81 -147t-237 -53q-119 0 -228 32v154q47 -15 101.5 -22.5t104.5 -7.5
q59 0 87.5 13.5t28.5 44.5q0 33 -28 47.5t-86 14.5h-62v184h-530v1480h1272v-350h-802v-200h696v-350h-696v-230h812v-350h-550z" />
    <glyph glyph-name="uni1E1D" unicode="&#x1e1d;" horiz-adv-x="1326" 
d="M350.5 1322q-117.5 98 -128.5 274h270q9 -76 55 -115t135 -39t135 39t55 115h270q-11 -176 -128.5 -274t-331.5 -98t-331.5 98zM1270 428h-747q8 -48 41.5 -75t108.5 -39t211 -12q139 0 310 24v-318q-177 -30 -384 -30h-14v-52q90 -17 134 -66.5t44 -125.5
q0 -91 -76.5 -142.5t-221.5 -51.5q-115 0 -208 32v154q37 -14 90 -22t96 -8q48 0 72 14t24 46t-23.5 46t-70.5 14h-62v174q-272 35 -400 171t-128 385q0 174 72 303t212 199t340 70q189 0 319 -71t195.5 -203t65.5 -314v-102zM562.5 803q-39.5 -43 -42.5 -135h324
q-4 92 -43 135t-119 43t-119.5 -43z" />
    <glyph glyph-name="uni1E20" unicode="&#x1e20;" horiz-adv-x="1678" 
d="M1540 720v-700q-243 -40 -444 -40q-511 0 -761.5 190t-250.5 562q0 238 114 410t345.5 265t576.5 93q87 0 182.5 -8t179.5 -24v-376q-152 28 -326 28q-210 -1 -337.5 -45.5t-184 -131t-56.5 -219.5q0 -177 119.5 -272.5t370.5 -95.5h30v364h442zM496 1620v250h888v-250
h-888z" />
    <glyph glyph-name="uni1E21" unicode="&#x1e21;" horiz-adv-x="1490" 
d="M380.5 -448.5q-115.5 11.5 -232.5 38.5v348q118 -29 234 -43.5t206 -14.5q175 0 248.5 47.5t73.5 144.5v46h-20q-124 -112 -326 -112q-136 0 -249.5 62t-181 179.5t-67.5 278.5q0 183 85 316t253 204.5t412 71.5q142 0 294.5 -19t263.5 -53v-882q0 -216 -79.5 -353.5
t-245 -204t-425.5 -66.5q-128 0 -243.5 11.5zM826.5 379.5q45.5 9.5 83.5 28.5v356q-63 14 -134 14q-123 0 -187.5 -55.5t-64.5 -160.5q0 -192 210 -192q47 0 92.5 9.5zM364 1294v250h832v-250h-832z" />
    <glyph glyph-name="uni1E24" unicode="&#x1e24;" horiz-adv-x="1794" 
d="M130 0v1480h476v-524h582v524h476v-1480h-476v554h-582v-554h-476zM695 -416q-65 48 -65 132t65 132t203 48t203 -48t65 -132t-65 -132t-203 -48t-203 48z" />
    <glyph glyph-name="uni1E25" unicode="&#x1e25;" horiz-adv-x="1462" 
d="M116 1616h464v-610h20q62 55 144 83.5t172 28.5q128 0 226 -54t155 -168t57 -288v-608h-464v582q0 84 -32.5 118t-101.5 34q-52 0 -98.5 -17.5t-77.5 -46.5v-670h-464v1616zM560 -447.5q-58 52.5 -58 145.5t58 145.5t176 52.5t176 -52.5t58 -145.5t-58 -145.5t-176 -52.5
t-176 52.5z" />
    <glyph glyph-name="uni1E2A" unicode="&#x1e2a;" horiz-adv-x="1794" 
d="M130 0v1480h476v-524h582v524h476v-1480h-476v554h-582v-554h-476zM557.5 -365q-119.5 87 -143.5 229h274q16 -50 67.5 -79t142.5 -29t142.5 29t67.5 79h274q-24 -142 -143.5 -229t-340.5 -87t-340.5 87z" />
    <glyph glyph-name="uni1E2B" unicode="&#x1e2b;" horiz-adv-x="1462" 
d="M116 1616h464v-610h20q62 55 144 83.5t172 28.5q128 0 226 -54t155 -168t57 -288v-608h-464v582q0 84 -32.5 118t-101.5 34q-52 0 -98.5 -17.5t-77.5 -46.5v-670h-464v1616zM492 -441q-102 41 -157 118.5t-59 184.5h270q9 -126 190 -126t190 126h270q-4 -107 -59 -184.5
t-157 -118.5t-244 -41t-244 41z" />
    <glyph glyph-name="uni1E2E" unicode="&#x1e2e;" horiz-adv-x="736" 
d="M130 0v1480h476v-1480h-476zM128 1986l204 232h548l-272 -232h-480zM-100.5 1616.5q-55.5 46.5 -55.5 133.5t55.5 133.5t172.5 46.5t172.5 -46.5t55.5 -133.5t-55.5 -133.5t-172.5 -46.5t-172.5 46.5zM491.5 1616.5q-55.5 46.5 -55.5 133.5t55.5 133.5t172.5 46.5
t172.5 -46.5t55.5 -133.5t-55.5 -133.5t-172.5 -46.5t-172.5 46.5z" />
    <glyph glyph-name="uni1E2F" unicode="&#x1e2f;" horiz-adv-x="696" 
d="M116 0v1100h464v-1100h-464zM-114.5 1264q-57.5 54 -57.5 154t57.5 154t176.5 54t176.5 -54t57.5 -154t-57.5 -154t-176.5 -54t-176.5 54zM457.5 1264q-57.5 54 -57.5 154t57.5 154t176.5 54t176.5 -54t57.5 -154t-57.5 -154t-176.5 -54t-176.5 54zM134 1682l204 316h488
l-272 -316h-420z" />
    <glyph glyph-name="uni1E36" unicode="&#x1e36;" horiz-adv-x="1362" 
d="M130 0v1480h476v-1112h744v-368h-1220zM537 -416q-65 48 -65 132t65 132t203 48t203 -48t65 -132t-65 -132t-203 -48t-203 48z" />
    <glyph glyph-name="uni1E37" unicode="&#x1e37;" horiz-adv-x="696" 
d="M116 0v1616h464v-1616h-464zM170 -447.5q-58 52.5 -58 145.5t58 145.5t176 52.5t176 -52.5t58 -145.5t-58 -145.5t-176 -52.5t-176 52.5z" />
    <glyph glyph-name="uni1E3A" unicode="&#x1e3a;" horiz-adv-x="1362" 
d="M130 0v1480h476v-1112h744v-368h-1220zM296 -398v250h888v-250h-888z" />
    <glyph glyph-name="uni1E3B" unicode="&#x1e3b;" horiz-adv-x="696" 
d="M116 0v1616h464v-1616h-464zM-70 -422v248h832v-248h-832z" />
    <glyph glyph-name="uni1E42" unicode="&#x1e42;" horiz-adv-x="2176" 
d="M1464 1480h578v-1480h-444v902l-314 -682h-392l-314 644v-864h-444v1480h578l383 -808zM917 -416q-65 48 -65 132t65 132t203 48t203 -48t65 -132t-65 -132t-203 -48t-203 48z" />
    <glyph glyph-name="uni1E43" unicode="&#x1e43;" horiz-adv-x="2126" 
d="M1898 992.5q120 -125.5 120 -384.5v-608h-462v582q0 83 -31.5 117.5t-90.5 34.5q-85 0 -135 -43q3 -36 3 -77v-614h-454v582q0 84 -27.5 118t-86.5 34q-49 0 -89 -17t-65 -47v-670h-464v1100h378l28 -96h20q61 55 146.5 84.5t189.5 29.5q101 0 182 -33.5t136 -102.5
q158 136 374 136q208 0 328 -125.5zM900 -447.5q-58 52.5 -58 145.5t58 145.5t176 52.5t176 -52.5t58 -145.5t-58 -145.5t-176 -52.5t-176 52.5z" />
    <glyph glyph-name="uni1E44" unicode="&#x1e44;" horiz-adv-x="1804" 
d="M1226 1480h448v-1480h-476l-620 834v-834h-448v1480h476l620 -834v834zM699 1618q-65 48 -65 132t65 132t203 48t203 -48t65 -132t-65 -132t-203 -48t-203 48z" />
    <glyph glyph-name="uni1E45" unicode="&#x1e45;" horiz-adv-x="1462" 
d="M116 1100h378l28 -96h20q65 54 156.5 84t195.5 30q212 0 336 -125.5t124 -384.5v-608h-464v582q0 84 -32.5 118t-101.5 34q-52 0 -98.5 -17.5t-77.5 -46.5v-670h-464v1100zM529 1259.5q-67 53.5 -67 158.5t67 158.5t207 53.5t207 -53.5t67 -158.5t-67 -158.5t-207 -53.5
t-207 53.5z" />
    <glyph glyph-name="uni1E46" unicode="&#x1e46;" horiz-adv-x="1804" 
d="M1226 1480h448v-1480h-476l-620 834v-834h-448v1480h476l620 -834v834zM699 -416q-65 48 -65 132t65 132t203 48t203 -48t65 -132t-65 -132t-203 -48t-203 48z" />
    <glyph glyph-name="uni1E47" unicode="&#x1e47;" horiz-adv-x="1462" 
d="M116 1100h378l28 -96h20q65 54 156.5 84t195.5 30q212 0 336 -125.5t124 -384.5v-608h-464v582q0 84 -32.5 118t-101.5 34q-52 0 -98.5 -17.5t-77.5 -46.5v-670h-464v1100zM560 -447.5q-58 52.5 -58 145.5t58 145.5t176 52.5t176 -52.5t58 -145.5t-58 -145.5t-176 -52.5
t-176 52.5z" />
    <glyph glyph-name="uni1E48" unicode="&#x1e48;" horiz-adv-x="1804" 
d="M1226 1480h448v-1480h-476l-620 834v-834h-448v1480h476l620 -834v834zM458 -398v250h888v-250h-888z" />
    <glyph glyph-name="uni1E49" unicode="&#x1e49;" horiz-adv-x="1462" 
d="M116 1100h378l28 -96h20q65 54 156.5 84t195.5 30q212 0 336 -125.5t124 -384.5v-608h-464v582q0 84 -32.5 118t-101.5 34q-52 0 -98.5 -17.5t-77.5 -46.5v-670h-464v1100zM320 -422v248h832v-248h-832z" />
    <glyph glyph-name="uni1E4C" unicode="&#x1e4c;" horiz-adv-x="1892" 
d="M486.5 72q-194.5 92 -298.5 263.5t-104 404.5t103.5 404.5t298 263.5t460.5 92q265 0 459.5 -92.5t298.5 -264t104 -403.5t-104 -403.5t-298.5 -264t-459.5 -92.5t-459.5 92zM1227 447.5q97 99.5 97 284.5q0 195 -98.5 297.5t-279.5 102.5t-279.5 -98t-98.5 -286
q0 -200 96 -300t282 -100q184 0 281 99.5zM706 1986l204 232h548l-272 -232h-480zM1044 1595q-46 9 -115 28q-60 17 -103 26t-90 9q-69 0 -122 -15t-112 -49v232q50 40 108 58t138 18q55 0 102.5 -9.5t112.5 -28.5q63 -18 104.5 -27t88.5 -9q69 0 122 15t112 49v-232
q-50 -39 -107.5 -56.5t-138.5 -17.5q-54 0 -100 9z" />
    <glyph glyph-name="uni1E4D" unicode="&#x1e4d;" horiz-adv-x="1464" 
d="M381.5 47q-150.5 69 -233 198t-82.5 305q0 177 78 305t228 195.5t360 67.5t360 -67.5t228 -195.5t78 -305q0 -176 -82.5 -305t-233 -198t-350.5 -69t-350.5 69zM887.5 381q52.5 55 52.5 169t-52 167t-156 53t-156 -53t-52 -167t52.5 -169t155.5 -55t155.5 55z
M818.5 1253.5q-43.5 13.5 -103.5 39.5q-56 24 -94.5 36.5t-78.5 12.5q-65 0 -117 -21.5t-109 -70.5v262q49 45 106 65.5t132 20.5q48 0 91.5 -13.5t103.5 -39.5q56 -24 94.5 -36.5t78.5 -12.5q65 0 117 21.5t109 70.5v-262q-49 -45 -106 -65.5t-132 -20.5q-48 0 -91.5 13.5z
M518 1682l204 316h488l-272 -316h-420z" />
    <glyph glyph-name="uni1E4E" unicode="&#x1e4e;" horiz-adv-x="1892" 
d="M486.5 72q-194.5 92 -298.5 263.5t-104 404.5t103.5 404.5t298 263.5t460.5 92q265 0 459.5 -92.5t298.5 -264t104 -403.5t-104 -403.5t-298.5 -264t-459.5 -92.5t-459.5 92zM1227 447.5q97 99.5 97 284.5q0 195 -98.5 297.5t-279.5 102.5t-279.5 -98t-98.5 -286
q0 -200 96 -300t282 -100q184 0 281 99.5zM1044 1595q-46 9 -115 28q-60 17 -103 26t-90 9q-69 0 -122 -15t-112 -49v232q50 40 108 58t138 18q55 0 102.5 -9.5t112.5 -28.5q63 -18 104.5 -27t88.5 -9q69 0 122 15t112 49v-232q-50 -39 -107.5 -56.5t-138.5 -17.5
q-54 0 -100 9zM477.5 2016.5q-55.5 46.5 -55.5 133.5t55.5 133.5t172.5 46.5t172.5 -46.5t55.5 -133.5t-55.5 -133.5t-172.5 -46.5t-172.5 46.5zM1069.5 2016.5q-55.5 46.5 -55.5 133.5t55.5 133.5t172.5 46.5t172.5 -46.5t55.5 -133.5t-55.5 -133.5t-172.5 -46.5
t-172.5 46.5z" />
    <glyph glyph-name="uni1E4F" unicode="&#x1e4f;" horiz-adv-x="1464" 
d="M381.5 47q-150.5 69 -233 198t-82.5 305q0 177 78 305t228 195.5t360 67.5t360 -67.5t228 -195.5t78 -305q0 -176 -82.5 -305t-233 -198t-350.5 -69t-350.5 69zM887.5 381q52.5 55 52.5 169t-52 167t-156 53t-156 -53t-52 -167t52.5 -169t155.5 -55t155.5 55z
M818.5 1253.5q-43.5 13.5 -103.5 39.5q-56 24 -94.5 36.5t-78.5 12.5q-65 0 -117 -21.5t-109 -70.5v262q49 45 106 65.5t132 20.5q48 0 91.5 -13.5t103.5 -39.5q56 -24 94.5 -36.5t78.5 -12.5q65 0 117 21.5t109 70.5v-262q-49 -45 -106 -65.5t-132 -20.5q-48 0 -91.5 13.5z
M269.5 1680q-57.5 54 -57.5 154t57.5 154t176.5 54t176.5 -54t57.5 -154t-57.5 -154t-176.5 -54t-176.5 54zM841.5 1680q-57.5 54 -57.5 154t57.5 154t176.5 54t176.5 -54t57.5 -154t-57.5 -154t-176.5 -54t-176.5 54z" />
    <glyph glyph-name="uni1E50" unicode="&#x1e50;" horiz-adv-x="1892" 
d="M486.5 72q-194.5 92 -298.5 263.5t-104 404.5t103.5 404.5t298 263.5t460.5 92q265 0 459.5 -92.5t298.5 -264t104 -403.5t-104 -403.5t-298.5 -264t-459.5 -92.5t-459.5 92zM1227 447.5q97 99.5 97 284.5q0 195 -98.5 297.5t-279.5 102.5t-279.5 -98t-98.5 -286
q0 -200 96 -300t282 -100q184 0 281 99.5zM706 1986l-272 232h548l204 -232h-480zM502 1620v250h888v-250h-888z" />
    <glyph glyph-name="uni1E51" unicode="&#x1e51;" horiz-adv-x="1464" 
d="M381.5 47q-150.5 69 -233 198t-82.5 305q0 177 78 305t228 195.5t360 67.5t360 -67.5t228 -195.5t78 -305q0 -176 -82.5 -305t-233 -198t-350.5 -69t-350.5 69zM887.5 381q52.5 55 52.5 169t-52 167t-156 53t-156 -53t-52 -167t52.5 -169t155.5 -55t155.5 55zM316 1294
v250h832v-250h-832zM522 1682l-272 316h488l204 -316h-420z" />
    <glyph glyph-name="uni1E52" unicode="&#x1e52;" horiz-adv-x="1892" 
d="M486.5 72q-194.5 92 -298.5 263.5t-104 404.5t103.5 404.5t298 263.5t460.5 92q265 0 459.5 -92.5t298.5 -264t104 -403.5t-104 -403.5t-298.5 -264t-459.5 -92.5t-459.5 92zM1227 447.5q97 99.5 97 284.5q0 195 -98.5 297.5t-279.5 102.5t-279.5 -98t-98.5 -286
q0 -200 96 -300t282 -100q184 0 281 99.5zM706 1986l204 232h548l-272 -232h-480zM502 1620v250h888v-250h-888z" />
    <glyph glyph-name="uni1E53" unicode="&#x1e53;" horiz-adv-x="1464" 
d="M381.5 47q-150.5 69 -233 198t-82.5 305q0 177 78 305t228 195.5t360 67.5t360 -67.5t228 -195.5t78 -305q0 -176 -82.5 -305t-233 -198t-350.5 -69t-350.5 69zM887.5 381q52.5 55 52.5 169t-52 167t-156 53t-156 -53t-52 -167t52.5 -169t155.5 -55t155.5 55zM316 1294
v250h832v-250h-832zM518 1682l204 316h488l-272 -316h-420z" />
    <glyph glyph-name="uni1E5A" unicode="&#x1e5a;" horiz-adv-x="1578" 
d="M1060 0l-356 492q-75 2 -108 4v-496h-466v1432q121 29 280.5 48.5t287.5 19.5q363 0 548.5 -122.5t185.5 -379.5q0 -149 -70 -256t-201 -169l421 -573h-522zM596 830q83 -10 158 -10q121 0 179.5 41.5t58.5 136.5q0 91 -61.5 134.5t-188.5 43.5q-69 0 -146 -14v-332z
M615 -416q-65 48 -65 132t65 132t203 48t203 -48t65 -132t-65 -132t-203 -48t-203 48z" />
    <glyph glyph-name="uni1E5B" unicode="&#x1e5b;" horiz-adv-x="958" 
d="M116 1100h376l36 -124h20q46 71 122 106.5t176 35.5q48 0 100 -8v-406q-50 10 -128 10q-70 0 -136 -19t-102 -53v-642h-464v1100zM172 -447.5q-58 52.5 -58 145.5t58 145.5t176 52.5t176 -52.5t58 -145.5t-58 -145.5t-176 -52.5t-176 52.5z" />
    <glyph glyph-name="uni1E5E" unicode="&#x1e5e;" horiz-adv-x="1578" 
d="M1060 0l-356 492q-75 2 -108 4v-496h-466v1432q121 29 280.5 48.5t287.5 19.5q363 0 548.5 -122.5t185.5 -379.5q0 -149 -70 -256t-201 -169l421 -573h-522zM596 830q83 -10 158 -10q121 0 179.5 41.5t58.5 136.5q0 91 -61.5 134.5t-188.5 43.5q-69 0 -146 -14v-332z
M374 -398v250h888v-250h-888z" />
    <glyph glyph-name="uni1E5F" unicode="&#x1e5f;" horiz-adv-x="958" 
d="M116 1100h376l36 -124h20q46 71 122 106.5t176 35.5q48 0 100 -8v-406q-50 10 -128 10q-70 0 -136 -19t-102 -53v-642h-464v1100zM-68 -422v248h832v-248h-832z" />
    <glyph glyph-name="uni1E60" unicode="&#x1e60;" horiz-adv-x="1378" 
d="M106 50v368q101 -34 248 -55t266 -21q90 0 140 12t69 33.5t19 54.5q0 27 -13 44.5t-48.5 31t-104.5 26.5l-144 28q-170 33 -274 92t-152 147t-48 209q0 234 187.5 357t558.5 123q230 0 418 -46v-368q-77 23 -187 37.5t-217 14.5q-165 0 -229.5 -27t-64.5 -75
q0 -24 11 -39.5t39.5 -27.5t83.5 -23l144 -28q184 -35 295.5 -97t161 -149t49.5 -206q0 -149 -84.5 -258.5t-242 -168.5t-371.5 -59q-273 0 -510 70zM501 1618q-65 48 -65 132t65 132t203 48t203 -48t65 -132t-65 -132t-203 -48t-203 48z" />
    <glyph glyph-name="uni1E61" unicode="&#x1e61;" horiz-adv-x="1208" 
d="M307 -8q-120 14 -215 40v306q96 -26 215.5 -41t234.5 -15q97 0 136.5 13.5t39.5 40.5q0 17 -12 25.5t-48 12.5l-236 30q-193 25 -276.5 107t-83.5 225q0 181 162.5 281.5t493.5 100.5q98 0 201.5 -12t172.5 -32v-306q-71 20 -173.5 33t-196.5 13q-133 0 -178.5 -16
t-45.5 -42q0 -14 13 -22t49 -12l236 -30q118 -15 196.5 -51t120 -105t41.5 -180q0 -118 -70.5 -203t-206 -130t-327.5 -45q-123 0 -243 14zM411 1259.5q-67 53.5 -67 158.5t67 158.5t207 53.5t207 -53.5t67 -158.5t-67 -158.5t-207 -53.5t-207 53.5z" />
    <glyph glyph-name="uni1E62" unicode="&#x1e62;" horiz-adv-x="1378" 
d="M106 50v368q101 -34 248 -55t266 -21q90 0 140 12t69 33.5t19 54.5q0 27 -13 44.5t-48.5 31t-104.5 26.5l-144 28q-170 33 -274 92t-152 147t-48 209q0 234 187.5 357t558.5 123q230 0 418 -46v-368q-77 23 -187 37.5t-217 14.5q-165 0 -229.5 -27t-64.5 -75
q0 -24 11 -39.5t39.5 -27.5t83.5 -23l144 -28q184 -35 295.5 -97t161 -149t49.5 -206q0 -149 -84.5 -258.5t-242 -168.5t-371.5 -59q-273 0 -510 70zM501 -416q-65 48 -65 132t65 132t203 48t203 -48t65 -132t-65 -132t-203 -48t-203 48z" />
    <glyph glyph-name="uni1E63" unicode="&#x1e63;" horiz-adv-x="1208" 
d="M307 -8q-120 14 -215 40v306q96 -26 215.5 -41t234.5 -15q97 0 136.5 13.5t39.5 40.5q0 17 -12 25.5t-48 12.5l-236 30q-193 25 -276.5 107t-83.5 225q0 181 162.5 281.5t493.5 100.5q98 0 201.5 -12t172.5 -32v-306q-71 20 -173.5 33t-196.5 13q-133 0 -178.5 -16
t-45.5 -42q0 -14 13 -22t49 -12l236 -30q118 -15 196.5 -51t120 -105t41.5 -180q0 -118 -70.5 -203t-206 -130t-327.5 -45q-123 0 -243 14zM442 -447.5q-58 52.5 -58 145.5t58 145.5t176 52.5t176 -52.5t58 -145.5t-58 -145.5t-176 -52.5t-176 52.5z" />
    <glyph glyph-name="uni1E64" unicode="&#x1e64;" horiz-adv-x="1378" 
d="M106 50v368q101 -34 248 -55t266 -21q90 0 140 12t69 33.5t19 54.5q0 27 -13 44.5t-48.5 31t-104.5 26.5l-144 28q-170 33 -274 92t-152 147t-48 209q0 234 187.5 357t558.5 123q230 0 418 -46v-368q-77 23 -187 37.5t-217 14.5q-165 0 -229.5 -27t-64.5 -75
q0 -24 11 -39.5t39.5 -27.5t83.5 -23l144 -28q184 -35 295.5 -97t161 -149t49.5 -206q0 -149 -84.5 -258.5t-242 -168.5t-371.5 -59q-273 0 -510 70zM242 1900.5q-52 38.5 -52 105.5t52 105.5t162 38.5t162 -38.5t52 -105.5t-52 -105.5t-162 -38.5t-162 38.5zM490 1586
l204 316h488l-272 -316h-420z" />
    <glyph glyph-name="uni1E65" unicode="&#x1e65;" horiz-adv-x="1208" 
d="M307 -8q-120 14 -215 40v306q96 -26 215.5 -41t234.5 -15q97 0 136.5 13.5t39.5 40.5q0 17 -12 25.5t-48 12.5l-236 30q-193 25 -276.5 107t-83.5 225q0 181 162.5 281.5t493.5 100.5q98 0 201.5 -12t172.5 -32v-306q-71 20 -173.5 33t-196.5 13q-133 0 -178.5 -16
t-45.5 -42q0 -14 13 -22t49 -12l236 -30q118 -15 196.5 -51t120 -105t41.5 -180q0 -118 -70.5 -203t-206 -130t-327.5 -45q-123 0 -243 14zM216 1614.5q-52 38.5 -52 105.5t52 105.5t162 38.5t162 -38.5t52 -105.5t-52 -105.5t-162 -38.5t-162 38.5zM398 1220l258 396h508
l-326 -396h-440z" />
    <glyph glyph-name="uni1E66" unicode="&#x1e66;" horiz-adv-x="1378" 
d="M106 50v368q101 -34 248 -55t266 -21q90 0 140 12t69 33.5t19 54.5q0 27 -13 44.5t-48.5 31t-104.5 26.5l-144 28q-170 33 -274 92t-152 147t-48 209q0 234 187.5 357t558.5 123q230 0 418 -46v-368q-77 23 -187 37.5t-217 14.5q-165 0 -229.5 -27t-64.5 -75
q0 -24 11 -39.5t39.5 -27.5t83.5 -23l144 -28q184 -35 295.5 -97t161 -149t49.5 -206q0 -149 -84.5 -258.5t-242 -168.5t-371.5 -59q-273 0 -510 70zM542 1980.5q-52 38.5 -52 105.5t52 105.5t162 38.5t162 -38.5t52 -105.5t-52 -105.5t-162 -38.5t-162 38.5zM864 1902h364
l-332 -316h-384l-332 316h364l160 -155z" />
    <glyph glyph-name="uni1E67" unicode="&#x1e67;" horiz-adv-x="1208" 
d="M307 -8q-120 14 -215 40v306q96 -26 215.5 -41t234.5 -15q97 0 136.5 13.5t39.5 40.5q0 17 -12 25.5t-48 12.5l-236 30q-193 25 -276.5 107t-83.5 225q0 181 162.5 281.5t493.5 100.5q98 0 201.5 -12t172.5 -32v-306q-71 20 -173.5 33t-196.5 13q-133 0 -178.5 -16
t-45.5 -42q0 -14 13 -22t49 -12l236 -30q118 -15 196.5 -51t120 -105t41.5 -180q0 -118 -70.5 -203t-206 -130t-327.5 -45q-123 0 -243 14zM456 1694.5q-52 38.5 -52 105.5t52 105.5t162 38.5t162 -38.5t52 -105.5t-52 -105.5t-162 -38.5t-162 38.5zM748 1616h334l-286 -396
h-356l-286 396h334l130 -187z" />
    <glyph glyph-name="uni1E68" unicode="&#x1e68;" horiz-adv-x="1378" 
d="M106 50v368q101 -34 248 -55t266 -21q90 0 140 12t69 33.5t19 54.5q0 27 -13 44.5t-48.5 31t-104.5 26.5l-144 28q-170 33 -274 92t-152 147t-48 209q0 234 187.5 357t558.5 123q230 0 418 -46v-368q-77 23 -187 37.5t-217 14.5q-165 0 -229.5 -27t-64.5 -75
q0 -24 11 -39.5t39.5 -27.5t83.5 -23l144 -28q184 -35 295.5 -97t161 -149t49.5 -206q0 -149 -84.5 -258.5t-242 -168.5t-371.5 -59q-273 0 -510 70zM501 -416q-65 48 -65 132t65 132t203 48t203 -48t65 -132t-65 -132t-203 -48t-203 48zM501 1618q-65 48 -65 132t65 132
t203 48t203 -48t65 -132t-65 -132t-203 -48t-203 48z" />
    <glyph glyph-name="uni1E69" unicode="&#x1e69;" horiz-adv-x="1208" 
d="M307 -8q-120 14 -215 40v306q96 -26 215.5 -41t234.5 -15q97 0 136.5 13.5t39.5 40.5q0 17 -12 25.5t-48 12.5l-236 30q-193 25 -276.5 107t-83.5 225q0 181 162.5 281.5t493.5 100.5q98 0 201.5 -12t172.5 -32v-306q-71 20 -173.5 33t-196.5 13q-133 0 -178.5 -16
t-45.5 -42q0 -14 13 -22t49 -12l236 -30q118 -15 196.5 -51t120 -105t41.5 -180q0 -118 -70.5 -203t-206 -130t-327.5 -45q-123 0 -243 14zM442 -447.5q-58 52.5 -58 145.5t58 145.5t176 52.5t176 -52.5t58 -145.5t-58 -145.5t-176 -52.5t-176 52.5zM411 1259.5
q-67 53.5 -67 158.5t67 158.5t207 53.5t207 -53.5t67 -158.5t-67 -158.5t-207 -53.5t-207 53.5z" />
    <glyph glyph-name="uni1E6C" unicode="&#x1e6c;" horiz-adv-x="1532" 
d="M528 0v1112h-506v368h1488v-368h-506v-1112h-476zM563 -416q-65 48 -65 132t65 132t203 48t203 -48t65 -132t-65 -132t-203 -48t-203 48z" />
    <glyph glyph-name="uni1E6D" unicode="&#x1e6d;" horiz-adv-x="1024" 
d="M686 740v-228q0 -66 16 -103t50.5 -52t95.5 -15q45 0 114 12v-348q-55 -12 -124 -20t-128 -8q-241 0 -364.5 112t-123.5 334v316h-180v360h180l86 380h378v-380h276v-360h-276zM416 -447.5q-58 52.5 -58 145.5t58 145.5t176 52.5t176 -52.5t58 -145.5t-58 -145.5
t-176 -52.5t-176 52.5z" />
    <glyph glyph-name="uni1E6E" unicode="&#x1e6e;" horiz-adv-x="1532" 
d="M528 0v1112h-506v368h1488v-368h-506v-1112h-476zM322 -398v250h888v-250h-888z" />
    <glyph glyph-name="uni1E6F" unicode="&#x1e6f;" horiz-adv-x="1024" 
d="M686 740v-228q0 -66 16 -103t50.5 -52t95.5 -15q45 0 114 12v-348q-55 -12 -124 -20t-128 -8q-241 0 -364.5 112t-123.5 334v316h-180v360h180l86 380h378v-380h276v-360h-276zM176 -422v248h832v-248h-832z" />
    <glyph glyph-name="uni1E78" unicode="&#x1e78;" horiz-adv-x="1756" 
d="M306 163q-182 183 -182 531v786h476v-824q0 -153 70 -226.5t212 -73.5t212 73.5t70 226.5v824h468v-786q0 -347 -181 -530.5t-569 -183.5q-394 0 -576 183zM642 1986l204 232h548l-272 -232h-480zM980 1595q-46 9 -115 28q-60 17 -103 26t-90 9q-69 0 -122 -15t-112 -49
v232q50 40 108 58t138 18q55 0 102.5 -9.5t112.5 -28.5q63 -18 104.5 -27t88.5 -9q69 0 122 15t112 49v-232q-50 -39 -107.5 -56.5t-138.5 -17.5q-54 0 -100 9z" />
    <glyph glyph-name="uni1E79" unicode="&#x1e79;" horiz-adv-x="1452" 
d="M236 107q-128 125 -128 385v608h464v-582q0 -84 31.5 -118t96.5 -34q49 0 95.5 17.5t76.5 46.5v670h464v-1100h-378l-28 96h-16q-68 -55 -152.5 -84.5t-175.5 -29.5q-222 0 -350 125zM808.5 1253.5q-43.5 13.5 -103.5 39.5q-56 24 -94.5 36.5t-78.5 12.5
q-65 0 -117 -21.5t-109 -70.5v262q49 45 106 65.5t132 20.5q48 0 91.5 -13.5t103.5 -39.5q56 -24 94.5 -36.5t78.5 -12.5q65 0 117 21.5t109 70.5v-262q-49 -45 -106 -65.5t-132 -20.5q-48 0 -91.5 13.5zM508 1682l204 316h488l-272 -316h-420z" />
    <glyph glyph-name="uni1E7A" unicode="&#x1e7a;" horiz-adv-x="1756" 
d="M306 163q-182 183 -182 531v786h476v-824q0 -153 70 -226.5t212 -73.5t212 73.5t70 226.5v824h468v-786q0 -347 -181 -530.5t-569 -183.5q-394 0 -576 183zM438 1620v250h888v-250h-888zM413.5 2016.5q-55.5 46.5 -55.5 133.5t55.5 133.5t172.5 46.5t172.5 -46.5
t55.5 -133.5t-55.5 -133.5t-172.5 -46.5t-172.5 46.5zM1005.5 2016.5q-55.5 46.5 -55.5 133.5t55.5 133.5t172.5 46.5t172.5 -46.5t55.5 -133.5t-55.5 -133.5t-172.5 -46.5t-172.5 46.5z" />
    <glyph glyph-name="uni1E7B" unicode="&#x1e7b;" horiz-adv-x="1452" 
d="M236 107q-128 125 -128 385v608h464v-582q0 -84 31.5 -118t96.5 -34q49 0 95.5 17.5t76.5 46.5v670h464v-1100h-378l-28 96h-16q-68 -55 -152.5 -84.5t-175.5 -29.5q-222 0 -350 125zM306 1294v250h832v-250h-832zM259.5 1680q-57.5 54 -57.5 154t57.5 154t176.5 54
t176.5 -54t57.5 -154t-57.5 -154t-176.5 -54t-176.5 54zM831.5 1680q-57.5 54 -57.5 154t57.5 154t176.5 54t176.5 -54t57.5 -154t-57.5 -154t-176.5 -54t-176.5 54z" />
    <glyph glyph-name="Wgrave" unicode="&#x1e80;" horiz-adv-x="2748" 
d="M2272 1480h452l-442 -1480h-600l-302 1021l-314 -1021h-600l-442 1480h480l297 -1063l325 1063h520l316 -1085zM1164 1586l-272 316h488l204 -316h-420z" />
    <glyph glyph-name="wgrave" unicode="&#x1e81;" horiz-adv-x="2150" 
d="M1666 1100h424l-308 -1100h-514l-188 699l-196 -699h-514l-310 1100h444l152 -637l172 637h514l163 -620zM856 1220l-326 396h508l258 -396h-440z" />
    <glyph glyph-name="Wacute" unicode="&#x1e82;" horiz-adv-x="2748" 
d="M2272 1480h452l-442 -1480h-600l-302 1021l-314 -1021h-600l-442 1480h480l297 -1063l325 1063h520l316 -1085zM1160 1586l204 316h488l-272 -316h-420z" />
    <glyph glyph-name="wacute" unicode="&#x1e83;" horiz-adv-x="2150" 
d="M1666 1100h424l-308 -1100h-514l-188 699l-196 -699h-514l-310 1100h444l152 -637l172 637h514l163 -620zM856 1220l258 396h508l-326 -396h-440z" />
    <glyph glyph-name="Wdieresis" unicode="&#x1e84;" horiz-adv-x="2748" 
d="M2272 1480h452l-442 -1480h-600l-302 1021l-314 -1021h-600l-442 1480h480l297 -1063l325 1063h520l316 -1085zM905.5 1616.5q-55.5 46.5 -55.5 133.5t55.5 133.5t172.5 46.5t172.5 -46.5t55.5 -133.5t-55.5 -133.5t-172.5 -46.5t-172.5 46.5zM1497.5 1616.5
q-55.5 46.5 -55.5 133.5t55.5 133.5t172.5 46.5t172.5 -46.5t55.5 -133.5t-55.5 -133.5t-172.5 -46.5t-172.5 46.5z" />
    <glyph glyph-name="wdieresis" unicode="&#x1e85;" horiz-adv-x="2150" 
d="M1666 1100h424l-308 -1100h-514l-188 699l-196 -699h-514l-310 1100h444l152 -637l172 637h514l163 -620zM613.5 1264q-57.5 54 -57.5 154t57.5 154t176.5 54t176.5 -54t57.5 -154t-57.5 -154t-176.5 -54t-176.5 54zM1185.5 1264q-57.5 54 -57.5 154t57.5 154t176.5 54
t176.5 -54t57.5 -154t-57.5 -154t-176.5 -54t-176.5 54z" />
    <glyph glyph-name="uni1E8E" unicode="&#x1e8e;" horiz-adv-x="1532" 
d="M1572 1480l-564 -872v-608h-476v602l-592 878h502l335 -507l327 507h468zM561 1618q-65 48 -65 132t65 132t203 48t203 -48t65 -132t-65 -132t-203 -48t-203 48z" />
    <glyph glyph-name="uni1E8F" unicode="&#x1e8f;" horiz-adv-x="1424" 
d="M986 1100h452l-628 -1540h-452l182 440h-108l-446 1100h488l256 -697zM505 1259.5q-67 53.5 -67 158.5t67 158.5t207 53.5t207 -53.5t67 -158.5t-67 -158.5t-207 -53.5t-207 53.5z" />
    <glyph glyph-name="uni1E92" unicode="&#x1e92;" horiz-adv-x="1482" 
d="M699 368h699v-368h-1314v254l689 858h-679v368h1294v-254zM539 -416q-65 48 -65 132t65 132t203 48t203 -48t65 -132t-65 -132t-203 -48t-203 48z" />
    <glyph glyph-name="uni1E93" unicode="&#x1e93;" horiz-adv-x="1274" 
d="M716 360h490v-360h-1114v300l480 440h-470v360h1094v-300zM474 -447.5q-58 52.5 -58 145.5t58 145.5t176 52.5t176 -52.5t58 -145.5t-58 -145.5t-176 -52.5t-176 52.5z" />
    <glyph glyph-name="uni1E97" unicode="&#x1e97;" horiz-adv-x="1024" 
d="M686 740v-228q0 -66 16 -103t50.5 -52t95.5 -15q45 0 114 12v-348q-55 -12 -124 -20t-128 -8q-241 0 -364.5 112t-123.5 334v316h-180v360h180l86 380h378v-380h276v-360h-276zM-8.5 1584q-57.5 54 -57.5 154t57.5 154t176.5 54t176.5 -54t57.5 -154t-57.5 -154
t-176.5 -54t-176.5 54zM563.5 1584q-57.5 54 -57.5 154t57.5 154t176.5 54t176.5 -54t57.5 -154t-57.5 -154t-176.5 -54t-176.5 54z" />
    <glyph glyph-name="uni1E9E" unicode="&#x1e9e;" horiz-adv-x="2146" 
d="M1881.5 820q106.5 -62 153.5 -149t47 -205q0 -149 -81 -258.5t-233.5 -168.5t-361.5 -59q-245 0 -474 64v368q95 -31 233.5 -50.5t236.5 -19.5q88 0 136.5 12t67 33.5t18.5 54.5q0 27 -12 45t-42.5 31.5t-89.5 25.5l-136 28q-162 34 -261.5 93t-145 146.5t-45.5 208.5
q0 55 11 107q-36 9 -75 9q-109 0 -165.5 -61.5t-56.5 -172.5v-902h-476v846q0 309 174 481.5t524 172.5q192 0 350 -67q171 67 434 67q108 0 208.5 -11.5t179.5 -30.5v-368q-72 21 -174 34.5t-192 13.5q-161 0 -222.5 -26.5t-61.5 -75.5q0 -36 24 -56.5t90 -33.5l136 -28
q175 -36 281.5 -98z" />
    <glyph glyph-name="uni1EA0" unicode="&#x1ea0;" horiz-adv-x="1760" 
d="M1280 0l-110 334h-584l-110 -334h-460l520 1480h688l520 -1480h-464zM701 684h354l-177 539zM677 -416q-65 48 -65 132t65 132t203 48t203 -48t65 -132t-65 -132t-203 -48t-203 48z" />
    <glyph glyph-name="uni1EA1" unicode="&#x1ea1;" horiz-adv-x="1344" 
d="M968 1067q139 -51 203.5 -169.5t64.5 -323.5v-574h-384l-30 90h-20q-109 -112 -314 -112q-140 0 -236.5 43.5t-145 119t-48.5 171.5q0 164 135 254.5t419 103.5l163 8q-16 60 -76.5 86t-186.5 26q-74 0 -168 -12t-172 -34v322q97 26 211 39t213 13q233 0 372 -51z
M782 300v144l-124 -6q-76 -4 -109 -26.5t-33 -61.5q0 -36 31.5 -57t92.5 -21q86 0 142 28zM492 -447.5q-58 52.5 -58 145.5t58 145.5t176 52.5t176 -52.5t58 -145.5t-58 -145.5t-176 -52.5t-176 52.5z" />
    <glyph glyph-name="uni1EA2" unicode="&#x1ea2;" horiz-adv-x="1760" 
d="M1280 0l-110 334h-584l-110 -334h-460l520 1480h688l520 -1480h-464zM701 684h354l-177 539zM804 1651q31 24 84 48q36 17 51 27t15 24q0 15 -29 21.5t-87 6.5q-103 0 -206 -20v150q50 10 116.5 16t123.5 6q306 0 306 -148q0 -35 -18.5 -61t-43 -43t-63.5 -38
q-32 -17 -48.5 -28.5t-18.5 -25.5h-216q3 41 34 65z" />
    <glyph glyph-name="uni1EA3" unicode="&#x1ea3;" horiz-adv-x="1344" 
d="M968 1067q139 -51 203.5 -169.5t64.5 -323.5v-574h-384l-30 90h-20q-109 -112 -314 -112q-140 0 -236.5 43.5t-145 119t-48.5 171.5q0 164 135 254.5t419 103.5l163 8q-16 60 -76.5 86t-186.5 26q-74 0 -168 -12t-172 -34v322q97 26 211 39t213 13q233 0 372 -51z
M782 300v144l-124 -6q-76 -4 -109 -26.5t-33 -61.5q0 -36 31.5 -57t92.5 -21q86 0 142 28zM579 1292q17 30 38.5 48.5t53.5 39.5q29 20 41 31.5t12 26.5q0 19 -20.5 26.5t-75.5 7.5q-87 0 -186 -24v154q42 13 105 19.5t115 6.5q148 0 217 -39t69 -123q0 -37 -12.5 -63.5
t-31.5 -43.5t-49 -38q-38 -27 -56.5 -47.5t-22.5 -53.5h-216q2 42 19 72z" />
    <glyph glyph-name="uni1EA4" unicode="&#x1ea4;" horiz-adv-x="1760" 
d="M1280 0l-110 334h-584l-110 -334h-460l520 1480h688l520 -1480h-464zM701 684h354l-177 539zM1272 2064h316l-162 -236h-260zM686 1858h384l332 -272h-364l-160 134l-160 -134h-364z" />
    <glyph glyph-name="uni1EA5" unicode="&#x1ea5;" horiz-adv-x="1344" 
d="M968 1067q139 -51 203.5 -169.5t64.5 -323.5v-574h-384l-30 90h-20q-109 -112 -314 -112q-140 0 -236.5 43.5t-145 119t-48.5 171.5q0 164 135 254.5t419 103.5l163 8q-16 60 -76.5 86t-186.5 26q-74 0 -168 -12t-172 -34v322q97 26 211 39t213 13q233 0 372 -51z
M782 300v144l-124 -6q-76 -4 -109 -26.5t-33 -61.5q0 -36 31.5 -57t92.5 -21q86 0 142 28zM1122 1868h388l-272 -270h-320zM490 1616h356l286 -396h-334l-130 187l-130 -187h-334z" />
    <glyph glyph-name="uni1EA6" unicode="&#x1ea6;" horiz-adv-x="1760" 
d="M1280 0l-110 334h-584l-110 -334h-460l520 1480h688l520 -1480h-464zM701 684h354l-177 539zM1466 1828h-260l-162 236h316zM686 1858h384l332 -272h-364l-160 134l-160 -134h-364z" />
    <glyph glyph-name="uni1EA7" unicode="&#x1ea7;" horiz-adv-x="1344" 
d="M968 1067q139 -51 203.5 -169.5t64.5 -323.5v-574h-384l-30 90h-20q-109 -112 -314 -112q-140 0 -236.5 43.5t-145 119t-48.5 171.5q0 164 135 254.5t419 103.5l163 8q-16 60 -76.5 86t-186.5 26q-74 0 -168 -12t-172 -34v322q97 26 211 39t213 13q233 0 372 -51z
M782 300v144l-124 -6q-76 -4 -109 -26.5t-33 -61.5q0 -36 31.5 -57t92.5 -21q86 0 142 28zM1278 1598h-320l-272 270h388zM490 1616h356l286 -396h-334l-130 187l-130 -187h-334z" />
    <glyph glyph-name="uni1EA8" unicode="&#x1ea8;" horiz-adv-x="1760" 
d="M1280 0l-110 334h-584l-110 -334h-460l520 1480h688l520 -1480h-464zM701 684h354l-177 539zM1572 1996q0 -30 -18.5 -52t-43 -36.5t-63.5 -33.5q-34 -16 -49.5 -25.5t-17.5 -20.5h-216q3 35 33 55.5t84 41.5q36 15 51.5 24t15.5 21q0 24 -116 24q-101 0 -206 -18v128
q51 9 117.5 14.5t122.5 5.5q306 0 306 -128zM686 1858h384l332 -272h-364l-160 134l-160 -134h-364z" />
    <glyph glyph-name="uni1EA9" unicode="&#x1ea9;" horiz-adv-x="1344" 
d="M968 1067q139 -51 203.5 -169.5t64.5 -323.5v-574h-384l-30 90h-20q-109 -112 -314 -112q-140 0 -236.5 43.5t-145 119t-48.5 171.5q0 164 135 254.5t419 103.5l163 8q-16 60 -76.5 86t-186.5 26q-74 0 -168 -12t-172 -34v322q97 26 211 39t213 13q233 0 372 -51z
M782 300v144l-124 -6q-76 -4 -109 -26.5t-33 -61.5q0 -36 31.5 -57t92.5 -21q86 0 142 28zM1208.5 1864.5q63.5 -29.5 63.5 -96.5q0 -31 -21.5 -50.5t-62.5 -41.5q-37 -20 -57 -36.5t-25 -41.5h-188q2 32 19 53.5t37.5 34t51.5 26.5q22 10 31 15.5t9 12.5q0 15 -22.5 21.5
t-71.5 6.5q-93 0 -176 -16v122q38 9 99.5 14.5t110.5 5.5q139 0 202.5 -29.5zM490 1616h356l286 -396h-334l-130 187l-130 -187h-334z" />
    <glyph glyph-name="uni1EAA" unicode="&#x1eaa;" horiz-adv-x="1760" 
d="M1280 0l-110 334h-584l-110 -334h-460l520 1480h688l520 -1480h-464zM701 684h354l-177 539zM1247 2080.5q64 14.5 155 51.5v-170q-77 -38 -142.5 -50t-151.5 -12q-64 0 -118.5 7.5t-139.5 22.5q-73 14 -116.5 20t-89.5 6q-71 0 -135 -14.5t-155 -51.5v170
q77 38 143.5 51t150.5 13q64 0 121.5 -8t136.5 -23q68 -14 113.5 -20.5t92.5 -6.5q71 0 135 14.5zM686 1858h384l332 -272h-364l-160 134l-160 -134h-364z" />
    <glyph glyph-name="uni1EAB" unicode="&#x1eab;" horiz-adv-x="1344" 
d="M968 1067q139 -51 203.5 -169.5t64.5 -323.5v-574h-384l-30 90h-20q-109 -112 -314 -112q-140 0 -236.5 43.5t-145 119t-48.5 171.5q0 164 135 254.5t419 103.5l163 8q-16 60 -76.5 86t-186.5 26q-74 0 -168 -12t-172 -34v322q97 26 211 39t213 13q233 0 372 -51z
M782 300v144l-124 -6q-76 -4 -109 -26.5t-33 -61.5q0 -36 31.5 -57t92.5 -21q86 0 142 28zM763.5 1604q-47.5 8 -112.5 24q-63 15 -104.5 22.5t-88.5 7.5q-69 0 -122.5 -13t-111.5 -42v199q50 34 108 50t138 16q54 0 100 -8t115 -25q59 -15 102.5 -23t90.5 -8q69 0 122.5 13
t111.5 42v-199q-50 -34 -107.5 -49t-138.5 -15q-55 0 -102.5 8zM1192 1222h-364l-160 155l-160 -155h-364l332 316h384z" />
    <glyph glyph-name="uni1EAC" unicode="&#x1eac;" horiz-adv-x="1760" 
d="M1280 0l-110 334h-584l-110 -334h-460l520 1480h688l520 -1480h-464zM701 684h354l-177 539zM677 -416q-65 48 -65 132t65 132t203 48t203 -48t65 -132t-65 -132t-203 -48t-203 48zM1402 1586h-364l-160 155l-160 -155h-364l332 316h384z" />
    <glyph glyph-name="uni1EAD" unicode="&#x1ead;" horiz-adv-x="1344" 
d="M968 1067q139 -51 203.5 -169.5t64.5 -323.5v-574h-384l-30 90h-20q-109 -112 -314 -112q-140 0 -236.5 43.5t-145 119t-48.5 171.5q0 164 135 254.5t419 103.5l163 8q-16 60 -76.5 86t-186.5 26q-74 0 -168 -12t-172 -34v322q97 26 211 39t213 13q233 0 372 -51z
M782 300v144l-124 -6q-76 -4 -109 -26.5t-33 -61.5q0 -36 31.5 -57t92.5 -21q86 0 142 28zM492 -447.5q-58 52.5 -58 145.5t58 145.5t176 52.5t176 -52.5t58 -145.5t-58 -145.5t-176 -52.5t-176 52.5zM1132 1220h-334l-130 187l-130 -187h-334l286 396h356z" />
    <glyph glyph-name="uni1EAE" unicode="&#x1eae;" horiz-adv-x="1760" 
d="M1280 0l-110 334h-584l-110 -334h-460l520 1480h688l520 -1480h-464zM701 684h354l-177 539zM748 1828l106 236h316l-162 -236h-260zM578 1658.5q-105 72.5 -130 199.5h226q11 -34 31 -56t61.5 -34t111.5 -12t111.5 12t63.5 33.5t39 56.5h216q-25 -127 -130 -199.5
t-300 -72.5t-300 72.5z" />
    <glyph glyph-name="uni1EAF" unicode="&#x1eaf;" horiz-adv-x="1344" 
d="M968 1067q139 -51 203.5 -169.5t64.5 -323.5v-574h-384l-30 90h-20q-109 -112 -314 -112q-140 0 -236.5 43.5t-145 119t-48.5 171.5q0 164 135 254.5t419 103.5l163 8q-16 60 -76.5 86t-186.5 26q-74 0 -168 -12t-172 -34v322q97 26 211 39t213 13q233 0 372 -51z
M782 300v144l-124 -6q-76 -4 -109 -26.5t-33 -61.5q0 -36 31.5 -57t92.5 -21q86 0 142 28zM504 1598l204 270h388l-272 -270h-320zM327.5 1319q-119.5 87 -143.5 229h274q16 -50 67.5 -79t142.5 -29t142.5 29t67.5 79h274q-24 -142 -143.5 -229t-340.5 -87t-340.5 87z" />
    <glyph glyph-name="uni1EB0" unicode="&#x1eb0;" horiz-adv-x="1760" 
d="M1280 0l-110 334h-584l-110 -334h-460l520 1480h688l520 -1480h-464zM701 684h354l-177 539zM748 1828l-162 236h316l106 -236h-260zM578 1658.5q-105 72.5 -130 199.5h216q17 -35 39 -56.5t63.5 -33.5t111.5 -12t111.5 12t61.5 34t31 56h226q-25 -127 -130 -199.5
t-300 -72.5t-300 72.5z" />
    <glyph glyph-name="uni1EB1" unicode="&#x1eb1;" horiz-adv-x="1344" 
d="M968 1067q139 -51 203.5 -169.5t64.5 -323.5v-574h-384l-30 90h-20q-109 -112 -314 -112q-140 0 -236.5 43.5t-145 119t-48.5 171.5q0 164 135 254.5t419 103.5l163 8q-16 60 -76.5 86t-186.5 26q-74 0 -168 -12t-172 -34v322q97 26 211 39t213 13q233 0 372 -51z
M782 300v144l-124 -6q-76 -4 -109 -26.5t-33 -61.5q0 -36 31.5 -57t92.5 -21q86 0 142 28zM512 1598l-272 270h388l204 -270h-320zM327.5 1319q-119.5 87 -143.5 229h274q16 -50 67.5 -79t142.5 -29t142.5 29t67.5 79h274q-24 -142 -143.5 -229t-340.5 -87t-340.5 87z" />
    <glyph glyph-name="uni1EB2" unicode="&#x1eb2;" horiz-adv-x="1760" 
d="M1280 0l-110 334h-584l-110 -334h-460l520 1480h688l520 -1480h-464zM701 684h354l-177 539zM803 1883.5q30 20.5 84 41.5q36 15 51.5 24t15.5 21q0 24 -116 24q-101 0 -206 -18v128q51 9 117.5 14.5t122.5 5.5q306 0 306 -128q0 -30 -18.5 -52t-43 -36.5t-63.5 -33.5
q-34 -16 -49.5 -25.5t-17.5 -20.5h-216q3 35 33 55.5zM578 1658.5q-105 72.5 -130 199.5h226q11 -34 31 -56t61.5 -34t111.5 -12t111.5 12t63.5 33.5t39 56.5h216q-25 -127 -130 -199.5t-300 -72.5t-300 72.5z" />
    <glyph glyph-name="uni1EB3" unicode="&#x1eb3;" horiz-adv-x="1344" 
d="M968 1067q139 -51 203.5 -169.5t64.5 -323.5v-574h-384l-30 90h-20q-109 -112 -314 -112q-140 0 -236.5 43.5t-145 119t-48.5 171.5q0 164 135 254.5t419 103.5l163 8q-16 60 -76.5 86t-186.5 26q-74 0 -168 -12t-172 -34v322q97 26 211 39t213 13q233 0 372 -51z
M782 300v144l-124 -6q-76 -4 -109 -26.5t-33 -61.5q0 -36 31.5 -57t92.5 -21q86 0 142 28zM593 1653.5q30 20.5 84 41.5q36 15 51.5 24t15.5 21q0 24 -116 24q-101 0 -206 -18v128q51 9 117.5 14.5t122.5 5.5q306 0 306 -128q0 -30 -18.5 -52t-43 -36.5t-63.5 -33.5
q-34 -16 -49.5 -25.5t-17.5 -20.5h-216q3 35 33 55.5zM327.5 1319q-119.5 87 -143.5 229h274q16 -50 67.5 -79t142.5 -29t142.5 29t67.5 79h274q-24 -142 -143.5 -229t-340.5 -87t-340.5 87z" />
    <glyph glyph-name="uni1EB4" unicode="&#x1eb4;" horiz-adv-x="1760" 
d="M1280 0l-110 334h-584l-110 -334h-460l520 1480h688l520 -1480h-464zM701 684h354l-177 539zM961.5 1907.5q-41.5 7.5 -105.5 22.5q-50 13 -85 19.5t-69 6.5q-57 0 -112 -14.5t-142 -51.5v170q75 38 132 51t126 13q48 0 93 -8.5t101 -23.5q58 -14 89.5 -20t64.5 -6
q57 0 112 14.5t142 51.5v-170q-74 -38 -130.5 -50t-127.5 -12q-47 0 -88.5 7.5zM578 1658.5q-105 72.5 -130 199.5h226q11 -34 31 -56t61.5 -34t111.5 -12t111.5 12t61.5 34t31 56h226q-25 -127 -130 -199.5t-300 -72.5t-300 72.5z" />
    <glyph glyph-name="uni1EB5" unicode="&#x1eb5;" horiz-adv-x="1344" 
d="M968 1067q139 -51 203.5 -169.5t64.5 -323.5v-574h-384l-30 90h-20q-109 -112 -314 -112q-140 0 -236.5 43.5t-145 119t-48.5 171.5q0 164 135 254.5t419 103.5l163 8q-16 60 -76.5 86t-186.5 26q-74 0 -168 -12t-172 -34v322q97 26 211 39t213 13q233 0 372 -51z
M782 300v144l-124 -6q-76 -4 -109 -26.5t-33 -61.5q0 -36 31.5 -57t92.5 -21q86 0 142 28zM771.5 1604q-52.5 8 -121.5 24q-69 15 -114 22.5t-96 7.5q-76 0 -134 -13t-122 -43v200q54 35 117 50.5t151 15.5q59 0 110 -8.5t124 -24.5q66 -15 112.5 -23t97.5 -8q76 0 134 13
t122 43v-200q-54 -34 -116.5 -49t-151.5 -15q-60 0 -112.5 8zM327.5 1319q-119.5 87 -143.5 229h274q16 -50 67.5 -79t142.5 -29t142.5 29t67.5 79h274q-24 -142 -143.5 -229t-340.5 -87t-340.5 87z" />
    <glyph glyph-name="uni1EB6" unicode="&#x1eb6;" horiz-adv-x="1760" 
d="M1280 0l-110 334h-584l-110 -334h-460l520 1480h688l520 -1480h-464zM701 684h354l-177 539zM677 -416q-65 48 -65 132t65 132t203 48t203 -48t65 -132t-65 -132t-203 -48t-203 48zM537.5 1673q-119.5 87 -143.5 229h274q16 -50 67.5 -79t142.5 -29t142.5 29t67.5 79h274
q-24 -142 -143.5 -229t-340.5 -87t-340.5 87z" />
    <glyph glyph-name="uni1EB7" unicode="&#x1eb7;" horiz-adv-x="1344" 
d="M968 1067q139 -51 203.5 -169.5t64.5 -323.5v-574h-384l-30 90h-20q-109 -112 -314 -112q-140 0 -236.5 43.5t-145 119t-48.5 171.5q0 164 135 254.5t419 103.5l163 8q-16 60 -76.5 86t-186.5 26q-74 0 -168 -12t-172 -34v322q97 26 211 39t213 13q233 0 372 -51z
M782 300v144l-124 -6q-76 -4 -109 -26.5t-33 -61.5q0 -36 31.5 -57t92.5 -21q86 0 142 28zM492 -447.5q-58 52.5 -58 145.5t58 145.5t176 52.5t176 -52.5t58 -145.5t-58 -145.5t-176 -52.5t-176 52.5zM336.5 1322q-117.5 98 -128.5 274h270q9 -76 55 -115t135 -39t135 39
t55 115h270q-11 -176 -128.5 -274t-331.5 -98t-331.5 98z" />
    <glyph glyph-name="uni1EB8" unicode="&#x1eb8;" horiz-adv-x="1498" 
d="M600 350h812v-350h-1282v1480h1272v-350h-802v-200h696v-350h-696v-230zM585 -416q-65 48 -65 132t65 132t203 48t203 -48t65 -132t-65 -132t-203 -48t-203 48z" />
    <glyph glyph-name="uni1EB9" unicode="&#x1eb9;" horiz-adv-x="1326" 
d="M1270 428h-747q8 -48 41.5 -75t108.5 -39t211 -12q139 0 310 24v-318q-177 -30 -384 -30q-259 0 -423 60.5t-242.5 186t-78.5 321.5q0 174 72 303t212 199t340 70q189 0 319 -71t195.5 -203t65.5 -314v-102zM562.5 803q-39.5 -43 -42.5 -135h324q-4 92 -43 135t-119 43
t-119.5 -43zM506 -447.5q-58 52.5 -58 145.5t58 145.5t176 52.5t176 -52.5t58 -145.5t-58 -145.5t-176 -52.5t-176 52.5z" />
    <glyph glyph-name="uni1EBA" unicode="&#x1eba;" horiz-adv-x="1498" 
d="M600 350h812v-350h-1282v1480h1272v-350h-802v-200h696v-350h-696v-230zM714 1651q31 24 84 48q36 17 51 27t15 24q0 15 -29 21.5t-87 6.5q-103 0 -206 -20v150q50 10 116.5 16t123.5 6q306 0 306 -148q0 -35 -18.5 -61t-43 -43t-63.5 -38q-32 -17 -48.5 -28.5
t-18.5 -25.5h-216q3 41 34 65z" />
    <glyph glyph-name="uni1EBB" unicode="&#x1ebb;" horiz-adv-x="1326" 
d="M1270 428h-747q8 -48 41.5 -75t108.5 -39t211 -12q139 0 310 24v-318q-177 -30 -384 -30q-259 0 -423 60.5t-242.5 186t-78.5 321.5q0 174 72 303t212 199t340 70q189 0 319 -71t195.5 -203t65.5 -314v-102zM562.5 803q-39.5 -43 -42.5 -135h324q-4 92 -43 135t-119 43
t-119.5 -43zM593 1292q17 30 38.5 48.5t53.5 39.5q29 20 41 31.5t12 26.5q0 19 -20.5 26.5t-75.5 7.5q-87 0 -186 -24v154q42 13 105 19.5t115 6.5q148 0 217 -39t69 -123q0 -37 -12.5 -63.5t-31.5 -43.5t-49 -38q-38 -27 -56.5 -47.5t-22.5 -53.5h-216q2 42 19 72z" />
    <glyph glyph-name="uni1EBC" unicode="&#x1ebc;" horiz-adv-x="1498" 
d="M600 350h812v-350h-1282v1480h1272v-350h-802v-200h696v-350h-696v-230zM886 1595q-46 9 -115 28q-60 17 -103 26t-90 9q-69 0 -122 -15t-112 -49v232q50 40 108 58t138 18q55 0 102.5 -9.5t112.5 -28.5q63 -18 104.5 -27t88.5 -9q69 0 122 15t112 49v-232
q-50 -39 -107.5 -56.5t-138.5 -17.5q-54 0 -100 9z" />
    <glyph glyph-name="uni1EBD" unicode="&#x1ebd;" horiz-adv-x="1326" 
d="M1270 428h-747q8 -48 41.5 -75t108.5 -39t211 -12q139 0 310 24v-318q-177 -30 -384 -30q-259 0 -423 60.5t-242.5 186t-78.5 321.5q0 174 72 303t212 199t340 70q189 0 319 -71t195.5 -203t65.5 -314v-102zM562.5 803q-39.5 -43 -42.5 -135h324q-4 92 -43 135t-119 43
t-119.5 -43zM768.5 1253.5q-43.5 13.5 -103.5 39.5q-56 24 -94.5 36.5t-78.5 12.5q-65 0 -117 -21.5t-109 -70.5v262q49 45 106 65.5t132 20.5q48 0 91.5 -13.5t103.5 -39.5q56 -24 94.5 -36.5t78.5 -12.5q65 0 117 21.5t109 70.5v-262q-49 -45 -106 -65.5t-132 -20.5
q-48 0 -91.5 13.5z" />
    <glyph glyph-name="uni1EBE" unicode="&#x1ebe;" horiz-adv-x="1498" 
d="M600 350h812v-350h-1282v1480h1272v-350h-802v-200h696v-350h-696v-230zM1182 2064h316l-162 -236h-260zM596 1858h384l332 -272h-364l-160 134l-160 -134h-364z" />
    <glyph glyph-name="uni1EBF" unicode="&#x1ebf;" horiz-adv-x="1326" 
d="M1270 428h-747q8 -48 41.5 -75t108.5 -39t211 -12q139 0 310 24v-318q-177 -30 -384 -30q-259 0 -423 60.5t-242.5 186t-78.5 321.5q0 174 72 303t212 199t340 70q189 0 319 -71t195.5 -203t65.5 -314v-102zM562.5 803q-39.5 -43 -42.5 -135h324q-4 92 -43 135t-119 43
t-119.5 -43zM1136 1868h388l-272 -270h-320zM504 1616h356l286 -396h-334l-130 187l-130 -187h-334z" />
    <glyph glyph-name="uni1EC0" unicode="&#x1ec0;" horiz-adv-x="1498" 
d="M600 350h812v-350h-1282v1480h1272v-350h-802v-200h696v-350h-696v-230zM1376 1828h-260l-162 236h316zM596 1858h384l332 -272h-364l-160 134l-160 -134h-364z" />
    <glyph glyph-name="uni1EC1" unicode="&#x1ec1;" horiz-adv-x="1326" 
d="M1270 428h-747q8 -48 41.5 -75t108.5 -39t211 -12q139 0 310 24v-318q-177 -30 -384 -30q-259 0 -423 60.5t-242.5 186t-78.5 321.5q0 174 72 303t212 199t340 70q189 0 319 -71t195.5 -203t65.5 -314v-102zM562.5 803q-39.5 -43 -42.5 -135h324q-4 92 -43 135t-119 43
t-119.5 -43zM1292 1598h-320l-272 270h388zM504 1616h356l286 -396h-334l-130 187l-130 -187h-334z" />
    <glyph glyph-name="uni1EC2" unicode="&#x1ec2;" horiz-adv-x="1498" 
d="M600 350h812v-350h-1282v1480h1272v-350h-802v-200h696v-350h-696v-230zM1482 1996q0 -30 -18.5 -52t-43 -36.5t-63.5 -33.5q-34 -16 -49.5 -25.5t-17.5 -20.5h-216q3 35 33 55.5t84 41.5q36 15 51.5 24t15.5 21q0 24 -116 24q-101 0 -206 -18v128q51 9 117.5 14.5
t122.5 5.5q306 0 306 -128zM596 1858h384l332 -272h-364l-160 134l-160 -134h-364z" />
    <glyph glyph-name="uni1EC3" unicode="&#x1ec3;" horiz-adv-x="1326" 
d="M1270 428h-747q8 -48 41.5 -75t108.5 -39t211 -12q139 0 310 24v-318q-177 -30 -384 -30q-259 0 -423 60.5t-242.5 186t-78.5 321.5q0 174 72 303t212 199t340 70q189 0 319 -71t195.5 -203t65.5 -314v-102zM562.5 803q-39.5 -43 -42.5 -135h324q-4 92 -43 135t-119 43
t-119.5 -43zM1222.5 1864.5q63.5 -29.5 63.5 -96.5q0 -31 -21.5 -50.5t-62.5 -41.5q-37 -20 -57 -36.5t-25 -41.5h-188q2 32 19 53.5t37.5 34t51.5 26.5q22 10 31 15.5t9 12.5q0 15 -22.5 21.5t-71.5 6.5q-93 0 -176 -16v122q38 9 99.5 14.5t110.5 5.5q139 0 202.5 -29.5z
M504 1616h356l286 -396h-334l-130 187l-130 -187h-334z" />
    <glyph glyph-name="uni1EC4" unicode="&#x1ec4;" horiz-adv-x="1498" 
d="M600 350h812v-350h-1282v1480h1272v-350h-802v-200h696v-350h-696v-230zM1157 2080.5q64 14.5 155 51.5v-170q-77 -38 -142.5 -50t-151.5 -12q-64 0 -118.5 7.5t-139.5 22.5q-73 14 -116.5 20t-89.5 6q-71 0 -135 -14.5t-155 -51.5v170q77 38 143.5 51t150.5 13
q64 0 121.5 -8t136.5 -23q68 -14 113.5 -20.5t92.5 -6.5q71 0 135 14.5zM596 1858h384l332 -272h-364l-160 134l-160 -134h-364z" />
    <glyph glyph-name="uni1EC5" unicode="&#x1ec5;" horiz-adv-x="1326" 
d="M1270 428h-747q8 -48 41.5 -75t108.5 -39t211 -12q139 0 310 24v-318q-177 -30 -384 -30q-259 0 -423 60.5t-242.5 186t-78.5 321.5q0 174 72 303t212 199t340 70q189 0 319 -71t195.5 -203t65.5 -314v-102zM562.5 803q-39.5 -43 -42.5 -135h324q-4 92 -43 135t-119 43
t-119.5 -43zM777.5 1604q-47.5 8 -112.5 24q-63 15 -104.5 22.5t-88.5 7.5q-69 0 -122.5 -13t-111.5 -42v199q50 34 108 50t138 16q54 0 100 -8t115 -25q59 -15 102.5 -23t90.5 -8q69 0 122.5 13t111.5 42v-199q-50 -34 -107.5 -49t-138.5 -15q-55 0 -102.5 8zM1206 1222
h-364l-160 155l-160 -155h-364l332 316h384z" />
    <glyph glyph-name="uni1EC6" unicode="&#x1ec6;" horiz-adv-x="1498" 
d="M600 350h812v-350h-1282v1480h1272v-350h-802v-200h696v-350h-696v-230zM585 -416q-65 48 -65 132t65 132t203 48t203 -48t65 -132t-65 -132t-203 -48t-203 48zM1312 1586h-364l-160 155l-160 -155h-364l332 316h384z" />
    <glyph glyph-name="uni1EC7" unicode="&#x1ec7;" horiz-adv-x="1326" 
d="M1270 428h-747q8 -48 41.5 -75t108.5 -39t211 -12q139 0 310 24v-318q-177 -30 -384 -30q-259 0 -423 60.5t-242.5 186t-78.5 321.5q0 174 72 303t212 199t340 70q189 0 319 -71t195.5 -203t65.5 -314v-102zM562.5 803q-39.5 -43 -42.5 -135h324q-4 92 -43 135t-119 43
t-119.5 -43zM506 -447.5q-58 52.5 -58 145.5t58 145.5t176 52.5t176 -52.5t58 -145.5t-58 -145.5t-176 -52.5t-176 52.5zM1146 1220h-334l-130 187l-130 -187h-334l286 396h356z" />
    <glyph glyph-name="uni1EC8" unicode="&#x1ec8;" horiz-adv-x="736" 
d="M130 0v1480h476v-1480h-476zM294 1651q31 24 84 48q36 17 51 27t15 24q0 15 -29 21.5t-87 6.5q-103 0 -206 -20v150q50 10 116.5 16t123.5 6q306 0 306 -148q0 -35 -18.5 -61t-43 -43t-63.5 -38q-32 -17 -48.5 -28.5t-18.5 -25.5h-216q3 41 34 65z" />
    <glyph glyph-name="uni1EC9" unicode="&#x1ec9;" horiz-adv-x="696" 
d="M116 0v1100h464v-1100h-464zM259 1292q17 30 38.5 48.5t53.5 39.5q29 20 41 31.5t12 26.5q0 19 -20.5 26.5t-75.5 7.5q-87 0 -186 -24v154q42 13 105 19.5t115 6.5q148 0 217 -39t69 -123q0 -37 -12.5 -63.5t-31.5 -43.5t-49 -38q-38 -27 -56.5 -47.5t-22.5 -53.5h-216
q2 42 19 72z" />
    <glyph glyph-name="uni1ECA" unicode="&#x1eca;" horiz-adv-x="736" 
d="M130 0v1480h476v-1480h-476zM163 -416q-65 48 -65 132t65 132t203 48t203 -48t65 -132t-65 -132t-203 -48t-203 48z" />
    <glyph glyph-name="uni1ECB" unicode="&#x1ecb;" horiz-adv-x="696" 
d="M116 0v1100h464v-1100h-464zM141 1259.5q-67 53.5 -67 158.5t67 158.5t207 53.5t207 -53.5t67 -158.5t-67 -158.5t-207 -53.5t-207 53.5zM172 -447.5q-58 52.5 -58 145.5t58 145.5t176 52.5t176 -52.5t58 -145.5t-58 -145.5t-176 -52.5t-176 52.5z" />
    <glyph glyph-name="uni1ECC" unicode="&#x1ecc;" horiz-adv-x="1892" 
d="M486.5 72q-194.5 92 -298.5 263.5t-104 404.5t103.5 404.5t298 263.5t460.5 92q265 0 459.5 -92.5t298.5 -264t104 -403.5t-104 -403.5t-298.5 -264t-459.5 -92.5t-459.5 92zM1227 447.5q97 99.5 97 284.5q0 195 -98.5 297.5t-279.5 102.5t-279.5 -98t-98.5 -286
q0 -200 96 -300t282 -100q184 0 281 99.5zM743 -416q-65 48 -65 132t65 132t203 48t203 -48t65 -132t-65 -132t-203 -48t-203 48z" />
    <glyph glyph-name="uni1ECD" unicode="&#x1ecd;" horiz-adv-x="1464" 
d="M381.5 47q-150.5 69 -233 198t-82.5 305q0 177 78 305t228 195.5t360 67.5t360 -67.5t228 -195.5t78 -305q0 -176 -82.5 -305t-233 -198t-350.5 -69t-350.5 69zM887.5 381q52.5 55 52.5 169t-52 167t-156 53t-156 -53t-52 -167t52.5 -169t155.5 -55t155.5 55zM556 -447.5
q-58 52.5 -58 145.5t58 145.5t176 52.5t176 -52.5t58 -145.5t-58 -145.5t-176 -52.5t-176 52.5z" />
    <glyph glyph-name="uni1ECE" unicode="&#x1ece;" horiz-adv-x="1892" 
d="M486.5 72q-194.5 92 -298.5 263.5t-104 404.5t103.5 404.5t298 263.5t460.5 92q265 0 459.5 -92.5t298.5 -264t104 -403.5t-104 -403.5t-298.5 -264t-459.5 -92.5t-459.5 92zM1227 447.5q97 99.5 97 284.5q0 195 -98.5 297.5t-279.5 102.5t-279.5 -98t-98.5 -286
q0 -200 96 -300t282 -100q184 0 281 99.5zM872 1651q31 24 84 48q36 17 51 27t15 24q0 15 -29 21.5t-87 6.5q-103 0 -206 -20v150q50 10 116.5 16t123.5 6q306 0 306 -148q0 -35 -18.5 -61t-43 -43t-63.5 -38q-32 -17 -48.5 -28.5t-18.5 -25.5h-216q3 41 34 65z" />
    <glyph glyph-name="uni1ECF" unicode="&#x1ecf;" horiz-adv-x="1464" 
d="M381.5 47q-150.5 69 -233 198t-82.5 305q0 177 78 305t228 195.5t360 67.5t360 -67.5t228 -195.5t78 -305q0 -176 -82.5 -305t-233 -198t-350.5 -69t-350.5 69zM887.5 381q52.5 55 52.5 169t-52 167t-156 53t-156 -53t-52 -167t52.5 -169t155.5 -55t155.5 55zM643 1292
q17 30 38.5 48.5t53.5 39.5q29 20 41 31.5t12 26.5q0 19 -20.5 26.5t-75.5 7.5q-87 0 -186 -24v154q42 13 105 19.5t115 6.5q148 0 217 -39t69 -123q0 -37 -12.5 -63.5t-31.5 -43.5t-49 -38q-38 -27 -56.5 -47.5t-22.5 -53.5h-216q2 42 19 72z" />
    <glyph glyph-name="uni1ED0" unicode="&#x1ed0;" horiz-adv-x="1892" 
d="M486.5 72q-194.5 92 -298.5 263.5t-104 404.5t103.5 404.5t298 263.5t460.5 92q265 0 459.5 -92.5t298.5 -264t104 -403.5t-104 -403.5t-298.5 -264t-459.5 -92.5t-459.5 92zM1227 447.5q97 99.5 97 284.5q0 195 -98.5 297.5t-279.5 102.5t-279.5 -98t-98.5 -286
q0 -200 96 -300t282 -100q184 0 281 99.5zM1340 2064h316l-162 -236h-260zM754 1858h384l332 -272h-364l-160 134l-160 -134h-364z" />
    <glyph glyph-name="uni1ED1" unicode="&#x1ed1;" horiz-adv-x="1464" 
d="M381.5 47q-150.5 69 -233 198t-82.5 305q0 177 78 305t228 195.5t360 67.5t360 -67.5t228 -195.5t78 -305q0 -176 -82.5 -305t-233 -198t-350.5 -69t-350.5 69zM887.5 381q52.5 55 52.5 169t-52 167t-156 53t-156 -53t-52 -167t52.5 -169t155.5 -55t155.5 55zM1186 1868
h388l-272 -270h-320zM554 1616h356l286 -396h-334l-130 187l-130 -187h-334z" />
    <glyph glyph-name="uni1ED2" unicode="&#x1ed2;" horiz-adv-x="1892" 
d="M486.5 72q-194.5 92 -298.5 263.5t-104 404.5t103.5 404.5t298 263.5t460.5 92q265 0 459.5 -92.5t298.5 -264t104 -403.5t-104 -403.5t-298.5 -264t-459.5 -92.5t-459.5 92zM1227 447.5q97 99.5 97 284.5q0 195 -98.5 297.5t-279.5 102.5t-279.5 -98t-98.5 -286
q0 -200 96 -300t282 -100q184 0 281 99.5zM1534 1828h-260l-162 236h316zM754 1858h384l332 -272h-364l-160 134l-160 -134h-364z" />
    <glyph glyph-name="uni1ED3" unicode="&#x1ed3;" horiz-adv-x="1464" 
d="M381.5 47q-150.5 69 -233 198t-82.5 305q0 177 78 305t228 195.5t360 67.5t360 -67.5t228 -195.5t78 -305q0 -176 -82.5 -305t-233 -198t-350.5 -69t-350.5 69zM887.5 381q52.5 55 52.5 169t-52 167t-156 53t-156 -53t-52 -167t52.5 -169t155.5 -55t155.5 55zM1342 1598
h-320l-272 270h388zM554 1616h356l286 -396h-334l-130 187l-130 -187h-334z" />
    <glyph glyph-name="uni1ED4" unicode="&#x1ed4;" horiz-adv-x="1892" 
d="M486.5 72q-194.5 92 -298.5 263.5t-104 404.5t103.5 404.5t298 263.5t460.5 92q265 0 459.5 -92.5t298.5 -264t104 -403.5t-104 -403.5t-298.5 -264t-459.5 -92.5t-459.5 92zM1227 447.5q97 99.5 97 284.5q0 195 -98.5 297.5t-279.5 102.5t-279.5 -98t-98.5 -286
q0 -200 96 -300t282 -100q184 0 281 99.5zM1640 1996q0 -30 -18.5 -52t-43 -36.5t-63.5 -33.5q-34 -16 -49.5 -25.5t-17.5 -20.5h-216q3 35 33 55.5t84 41.5q36 15 51.5 24t15.5 21q0 24 -116 24q-101 0 -206 -18v128q51 9 117.5 14.5t122.5 5.5q306 0 306 -128zM754 1858
h384l332 -272h-364l-160 134l-160 -134h-364z" />
    <glyph glyph-name="uni1ED5" unicode="&#x1ed5;" horiz-adv-x="1464" 
d="M381.5 47q-150.5 69 -233 198t-82.5 305q0 177 78 305t228 195.5t360 67.5t360 -67.5t228 -195.5t78 -305q0 -176 -82.5 -305t-233 -198t-350.5 -69t-350.5 69zM887.5 381q52.5 55 52.5 169t-52 167t-156 53t-156 -53t-52 -167t52.5 -169t155.5 -55t155.5 55z
M1272.5 1864.5q63.5 -29.5 63.5 -96.5q0 -31 -21.5 -50.5t-62.5 -41.5q-37 -20 -57 -36.5t-25 -41.5h-188q2 32 19 53.5t37.5 34t51.5 26.5q22 10 31 15.5t9 12.5q0 15 -22.5 21.5t-71.5 6.5q-93 0 -176 -16v122q38 9 99.5 14.5t110.5 5.5q139 0 202.5 -29.5zM554 1616h356
l286 -396h-334l-130 187l-130 -187h-334z" />
    <glyph glyph-name="uni1ED6" unicode="&#x1ed6;" horiz-adv-x="1892" 
d="M486.5 72q-194.5 92 -298.5 263.5t-104 404.5t103.5 404.5t298 263.5t460.5 92q265 0 459.5 -92.5t298.5 -264t104 -403.5t-104 -403.5t-298.5 -264t-459.5 -92.5t-459.5 92zM1227 447.5q97 99.5 97 284.5q0 195 -98.5 297.5t-279.5 102.5t-279.5 -98t-98.5 -286
q0 -200 96 -300t282 -100q184 0 281 99.5zM1315 2080.5q64 14.5 155 51.5v-170q-77 -38 -142.5 -50t-151.5 -12q-64 0 -118.5 7.5t-139.5 22.5q-73 14 -116.5 20t-89.5 6q-71 0 -135 -14.5t-155 -51.5v170q77 38 143.5 51t150.5 13q64 0 121.5 -8t136.5 -23
q68 -14 113.5 -20.5t92.5 -6.5q71 0 135 14.5zM754 1858h384l332 -272h-364l-160 134l-160 -134h-364z" />
    <glyph glyph-name="uni1ED7" unicode="&#x1ed7;" horiz-adv-x="1464" 
d="M381.5 47q-150.5 69 -233 198t-82.5 305q0 177 78 305t228 195.5t360 67.5t360 -67.5t228 -195.5t78 -305q0 -176 -82.5 -305t-233 -198t-350.5 -69t-350.5 69zM887.5 381q52.5 55 52.5 169t-52 167t-156 53t-156 -53t-52 -167t52.5 -169t155.5 -55t155.5 55zM827.5 1604
q-47.5 8 -112.5 24q-63 15 -104.5 22.5t-88.5 7.5q-69 0 -122.5 -13t-111.5 -42v199q50 34 108 50t138 16q54 0 100 -8t115 -25q59 -15 102.5 -23t90.5 -8q69 0 122.5 13t111.5 42v-199q-50 -34 -107.5 -49t-138.5 -15q-55 0 -102.5 8zM1256 1222h-364l-160 155l-160 -155
h-364l332 316h384z" />
    <glyph glyph-name="uni1ED8" unicode="&#x1ed8;" horiz-adv-x="1892" 
d="M486.5 72q-194.5 92 -298.5 263.5t-104 404.5t103.5 404.5t298 263.5t460.5 92q265 0 459.5 -92.5t298.5 -264t104 -403.5t-104 -403.5t-298.5 -264t-459.5 -92.5t-459.5 92zM1227 447.5q97 99.5 97 284.5q0 195 -98.5 297.5t-279.5 102.5t-279.5 -98t-98.5 -286
q0 -200 96 -300t282 -100q184 0 281 99.5zM743 -416q-65 48 -65 132t65 132t203 48t203 -48t65 -132t-65 -132t-203 -48t-203 48zM1470 1586h-364l-160 155l-160 -155h-364l332 316h384z" />
    <glyph glyph-name="uni1ED9" unicode="&#x1ed9;" horiz-adv-x="1464" 
d="M381.5 47q-150.5 69 -233 198t-82.5 305q0 177 78 305t228 195.5t360 67.5t360 -67.5t228 -195.5t78 -305q0 -176 -82.5 -305t-233 -198t-350.5 -69t-350.5 69zM887.5 381q52.5 55 52.5 169t-52 167t-156 53t-156 -53t-52 -167t52.5 -169t155.5 -55t155.5 55zM556 -447.5
q-58 52.5 -58 145.5t58 145.5t176 52.5t176 -52.5t58 -145.5t-58 -145.5t-176 -52.5t-176 52.5zM1196 1220h-334l-130 187l-130 -187h-334l286 396h356z" />
    <glyph glyph-name="uni1EDA" unicode="&#x1eda;" horiz-adv-x="1892" 
d="M1749.5 1054.5q58.5 -140.5 58.5 -314.5q0 -232 -104 -403.5t-298.5 -264t-459.5 -92.5t-459.5 92t-298.5 263.5t-104 404.5t103.5 404.5t298 263.5t460.5 92q74 0 199 -11q20 -1 74.5 -5t90.5 -4q114 0 166 35t52 121q0 61 -12 140h290q11 -44 14.5 -79t3.5 -73
q0 -139 -64 -222.5t-181 -108.5q112 -98 170.5 -238.5zM1227 447.5q97 99.5 97 284.5q0 195 -98.5 297.5t-279.5 102.5t-279.5 -98t-98.5 -286q0 -200 96 -300t282 -100q184 0 281 99.5zM732 1586l204 316h488l-272 -316h-420z" />
    <glyph glyph-name="uni1EDB" unicode="&#x1edb;" horiz-adv-x="1464" 
d="M1412.5 1041.5q-53.5 -79.5 -151.5 -111.5q68 -71 102.5 -167t34.5 -213q0 -176 -82.5 -305t-233 -198t-350.5 -69t-350.5 69t-233 198t-82.5 305q0 178 79 305.5t233 195t374 67.5q58 0 154 -7q52 -5 84 -5q100 0 149 34.5t49 115.5q0 61 -12 140h274q16 -73 16 -152
q0 -123 -53.5 -202.5zM887.5 381q52.5 55 52.5 169t-52 167t-156 53t-156 -53t-52 -167t52.5 -169t155.5 -55t155.5 55zM512 1220l258 396h508l-326 -396h-440z" />
    <glyph glyph-name="uni1EDC" unicode="&#x1edc;" horiz-adv-x="1892" 
d="M1749.5 1054.5q58.5 -140.5 58.5 -314.5q0 -232 -104 -403.5t-298.5 -264t-459.5 -92.5t-459.5 92t-298.5 263.5t-104 404.5t103.5 404.5t298 263.5t460.5 92q74 0 199 -11q20 -1 74.5 -5t90.5 -4q114 0 166 35t52 121q0 61 -12 140h290q11 -44 14.5 -79t3.5 -73
q0 -139 -64 -222.5t-181 -108.5q112 -98 170.5 -238.5zM1227 447.5q97 99.5 97 284.5q0 195 -98.5 297.5t-279.5 102.5t-279.5 -98t-98.5 -286q0 -200 96 -300t282 -100q184 0 281 99.5zM736 1586l-272 316h488l204 -316h-420z" />
    <glyph glyph-name="uni1EDD" unicode="&#x1edd;" horiz-adv-x="1464" 
d="M1412.5 1041.5q-53.5 -79.5 -151.5 -111.5q68 -71 102.5 -167t34.5 -213q0 -176 -82.5 -305t-233 -198t-350.5 -69t-350.5 69t-233 198t-82.5 305q0 178 79 305.5t233 195t374 67.5q58 0 154 -7q52 -5 84 -5q100 0 149 34.5t49 115.5q0 61 -12 140h274q16 -73 16 -152
q0 -123 -53.5 -202.5zM887.5 381q52.5 55 52.5 169t-52 167t-156 53t-156 -53t-52 -167t52.5 -169t155.5 -55t155.5 55zM512 1220l-326 396h508l258 -396h-440z" />
    <glyph glyph-name="uni1EDE" unicode="&#x1ede;" horiz-adv-x="1892" 
d="M1749.5 1054.5q58.5 -140.5 58.5 -314.5q0 -232 -104 -403.5t-298.5 -264t-459.5 -92.5t-459.5 92t-298.5 263.5t-104 404.5t103.5 404.5t298 263.5t460.5 92q74 0 199 -11q20 -1 74.5 -5t90.5 -4q114 0 166 35t52 121q0 61 -12 140h290q11 -44 14.5 -79t3.5 -73
q0 -139 -64 -222.5t-181 -108.5q112 -98 170.5 -238.5zM1227 447.5q97 99.5 97 284.5q0 195 -98.5 297.5t-279.5 102.5t-279.5 -98t-98.5 -286q0 -200 96 -300t282 -100q184 0 281 99.5zM872 1651q31 24 84 48q36 17 51 27t15 24q0 15 -29 21.5t-87 6.5q-103 0 -206 -20v150
q50 10 116.5 16t123.5 6q306 0 306 -148q0 -35 -18.5 -61t-43 -43t-63.5 -38q-32 -17 -48.5 -28.5t-18.5 -25.5h-216q3 41 34 65z" />
    <glyph glyph-name="uni1EDF" unicode="&#x1edf;" horiz-adv-x="1464" 
d="M1412.5 1041.5q-53.5 -79.5 -151.5 -111.5q68 -71 102.5 -167t34.5 -213q0 -176 -82.5 -305t-233 -198t-350.5 -69t-350.5 69t-233 198t-82.5 305q0 178 79 305.5t233 195t374 67.5q58 0 154 -7q52 -5 84 -5q100 0 149 34.5t49 115.5q0 61 -12 140h274q16 -73 16 -152
q0 -123 -53.5 -202.5zM887.5 381q52.5 55 52.5 169t-52 167t-156 53t-156 -53t-52 -167t52.5 -169t155.5 -55t155.5 55zM643 1292q17 30 38.5 48.5t53.5 39.5q29 20 41 31.5t12 26.5q0 19 -20.5 26.5t-75.5 7.5q-87 0 -186 -24v154q42 13 105 19.5t115 6.5q148 0 217 -39
t69 -123q0 -37 -12.5 -63.5t-31.5 -43.5t-49 -38q-38 -27 -56.5 -47.5t-22.5 -53.5h-216q2 42 19 72z" />
    <glyph glyph-name="uni1EE0" unicode="&#x1ee0;" horiz-adv-x="1892" 
d="M1044 1595q-46 9 -115 28q-60 17 -103 26t-90 9q-69 0 -122 -15t-112 -49v232q50 40 108 58t138 18q55 0 102.5 -9.5t112.5 -28.5q63 -18 104.5 -27t88.5 -9q69 0 122 15t112 49v-232q-50 -39 -107.5 -56.5t-138.5 -17.5q-54 0 -100 9zM1749.5 1054.5
q58.5 -140.5 58.5 -314.5q0 -232 -104 -403.5t-298.5 -264t-459.5 -92.5t-459.5 92t-298.5 263.5t-104 404.5t103.5 404.5t298 263.5t460.5 92q74 0 199 -11q20 -1 74.5 -5t90.5 -4q114 0 166 35t52 121q0 61 -12 140h290q11 -44 14.5 -79t3.5 -73q0 -139 -64 -222.5
t-181 -108.5q112 -98 170.5 -238.5zM1227 447.5q97 99.5 97 284.5q0 195 -98.5 297.5t-279.5 102.5t-279.5 -98t-98.5 -286q0 -200 96 -300t282 -100q184 0 281 99.5z" />
    <glyph glyph-name="uni1EE1" unicode="&#x1ee1;" horiz-adv-x="1464" 
d="M814.5 1253.5q-41.5 13.5 -98.5 39.5q-53 24 -89.5 36.5t-74.5 12.5q-61 0 -110.5 -21t-105.5 -71v262q48 45 102 65.5t124 20.5q46 0 87.5 -13.5t98.5 -39.5q53 -24 89.5 -36.5t74.5 -12.5q62 0 112 21.5t104 70.5v-262q-48 -45 -102 -65.5t-124 -20.5q-46 0 -87.5 13.5
zM1412.5 1041.5q-53.5 -79.5 -151.5 -111.5q68 -71 102.5 -167t34.5 -213q0 -176 -82.5 -305t-233 -198t-350.5 -69t-350.5 69t-233 198t-82.5 305q0 178 79 305.5t233 195t374 67.5q58 0 154 -7q52 -5 84 -5q100 0 149 34.5t49 115.5q0 61 -12 140h274q16 -73 16 -152
q0 -123 -53.5 -202.5zM887.5 381q52.5 55 52.5 169t-52 167t-156 53t-156 -53t-52 -167t52.5 -169t155.5 -55t155.5 55z" />
    <glyph glyph-name="uni1EE2" unicode="&#x1ee2;" horiz-adv-x="1892" 
d="M1749.5 1054.5q58.5 -140.5 58.5 -314.5q0 -232 -104 -403.5t-298.5 -264t-459.5 -92.5t-459.5 92t-298.5 263.5t-104 404.5t103.5 404.5t298 263.5t460.5 92q74 0 199 -11q20 -1 74.5 -5t90.5 -4q114 0 166 35t52 121q0 61 -12 140h290q11 -44 14.5 -79t3.5 -73
q0 -139 -64 -222.5t-181 -108.5q112 -98 170.5 -238.5zM1227 447.5q97 99.5 97 284.5q0 195 -98.5 297.5t-279.5 102.5t-279.5 -98t-98.5 -286q0 -200 96 -300t282 -100q184 0 281 99.5zM743 -416q-65 48 -65 132t65 132t203 48t203 -48t65 -132t-65 -132t-203 -48t-203 48z
" />
    <glyph glyph-name="uni1EE3" unicode="&#x1ee3;" horiz-adv-x="1464" 
d="M1412.5 1041.5q-53.5 -79.5 -151.5 -111.5q68 -71 102.5 -167t34.5 -213q0 -176 -82.5 -305t-233 -198t-350.5 -69t-350.5 69t-233 198t-82.5 305q0 178 79 305.5t233 195t374 67.5q58 0 154 -7q52 -5 84 -5q100 0 149 34.5t49 115.5q0 61 -12 140h274q16 -73 16 -152
q0 -123 -53.5 -202.5zM887.5 381q52.5 55 52.5 169t-52 167t-156 53t-156 -53t-52 -167t52.5 -169t155.5 -55t155.5 55zM556 -447.5q-58 52.5 -58 145.5t58 145.5t176 52.5t176 -52.5t58 -145.5t-58 -145.5t-176 -52.5t-176 52.5z" />
    <glyph glyph-name="uni1EE4" unicode="&#x1ee4;" horiz-adv-x="1756" 
d="M306 163q-182 183 -182 531v786h476v-824q0 -153 70 -226.5t212 -73.5t212 73.5t70 226.5v824h468v-786q0 -347 -181 -530.5t-569 -183.5q-394 0 -576 183zM679 -416q-65 48 -65 132t65 132t203 48t203 -48t65 -132t-65 -132t-203 -48t-203 48z" />
    <glyph glyph-name="uni1EE5" unicode="&#x1ee5;" horiz-adv-x="1452" 
d="M236 107q-128 125 -128 385v608h464v-582q0 -84 31.5 -118t96.5 -34q49 0 95.5 17.5t76.5 46.5v670h464v-1100h-378l-28 96h-16q-68 -55 -152.5 -84.5t-175.5 -29.5q-222 0 -350 125zM546 -447.5q-58 52.5 -58 145.5t58 145.5t176 52.5t176 -52.5t58 -145.5t-58 -145.5
t-176 -52.5t-176 52.5z" />
    <glyph glyph-name="uni1EE6" unicode="&#x1ee6;" horiz-adv-x="1756" 
d="M306 163q-182 183 -182 531v786h476v-824q0 -153 70 -226.5t212 -73.5t212 73.5t70 226.5v824h468v-786q0 -347 -181 -530.5t-569 -183.5q-394 0 -576 183zM808 1651q31 24 84 48q36 17 51 27t15 24q0 15 -29 21.5t-87 6.5q-103 0 -206 -20v150q50 10 116.5 16t123.5 6
q306 0 306 -148q0 -35 -18.5 -61t-43 -43t-63.5 -38q-32 -17 -48.5 -28.5t-18.5 -25.5h-216q3 41 34 65z" />
    <glyph glyph-name="uni1EE7" unicode="&#x1ee7;" horiz-adv-x="1452" 
d="M236 107q-128 125 -128 385v608h464v-582q0 -84 31.5 -118t96.5 -34q49 0 95.5 17.5t76.5 46.5v670h464v-1100h-378l-28 96h-16q-68 -55 -152.5 -84.5t-175.5 -29.5q-222 0 -350 125zM633 1292q17 30 38.5 48.5t53.5 39.5q29 20 41 31.5t12 26.5q0 19 -20.5 26.5
t-75.5 7.5q-87 0 -186 -24v154q42 13 105 19.5t115 6.5q148 0 217 -39t69 -123q0 -37 -12.5 -63.5t-31.5 -43.5t-49 -38q-38 -27 -56.5 -47.5t-22.5 -53.5h-216q2 42 19 72z" />
    <glyph glyph-name="uni1EE8" unicode="&#x1ee8;" horiz-adv-x="1756" 
d="M306 163q-182 183 -182 531v786h476v-824q0 -153 70 -226.5t212 -73.5t212 73.5t70 226.5v824h136q114 0 166 35t52 121q0 61 -12 140h290q11 -44 14.5 -79t3.5 -73q0 -118 -47.5 -196.5t-134.5 -115.5v-618q0 -347 -181 -530.5t-569 -183.5q-394 0 -576 183zM664 1586
l204 316h488l-272 -316h-420z" />
    <glyph glyph-name="uni1EE9" unicode="&#x1ee9;" horiz-adv-x="1492" 
d="M1481 1039.5q-51 -78.5 -145 -112.5v-927h-378l-28 96h-16q-68 -55 -152.5 -84.5t-175.5 -29.5q-222 0 -350 125t-128 385v608h464v-582q0 -84 31.5 -118t96.5 -34q49 0 95.5 17.5t76.5 46.5v670h184q100 0 149 34.5t49 115.5q0 61 -12 140h272q11 -44 14.5 -79t3.5 -73
q0 -120 -51 -198.5zM502 1220l258 396h508l-326 -396h-440z" />
    <glyph glyph-name="uni1EEA" unicode="&#x1eea;" horiz-adv-x="1756" 
d="M306 163q-182 183 -182 531v786h476v-824q0 -153 70 -226.5t212 -73.5t212 73.5t70 226.5v824h136q114 0 166 35t52 121q0 61 -12 140h290q11 -44 14.5 -79t3.5 -73q0 -118 -47.5 -196.5t-134.5 -115.5v-618q0 -347 -181 -530.5t-569 -183.5q-394 0 -576 183zM668 1586
l-272 316h488l204 -316h-420z" />
    </font>
</defs>
</svg>
